<svg width="46" height="189" viewBox="0 0 46 189" fill="none" xmlns="http://www.w3.org/2000/svg">
<rect width="188" height="41" transform="matrix(0 -1 1 0 0.5 188.5)" fill="#181818"/>
<path d="M20.84 165.854H19.994V163.82C19.994 163.4 19.922 163.022 19.778 162.686C19.634 162.35 19.424 162.086 19.148 161.894C18.872 161.702 18.536 161.606 18.14 161.606C17.54 161.606 17.078 161.816 16.754 162.236C16.418 162.656 16.25 163.184 16.25 163.82V165.53H26.15V163.64C26.15 163.1 26.054 162.626 25.862 162.218C25.67 161.798 25.394 161.474 25.034 161.246C24.674 161.006 24.236 160.886 23.72 160.886C23.336 160.886 22.994 160.952 22.694 161.084C22.394 161.216 22.142 161.408 21.938 161.66C21.734 161.9 21.584 162.188 21.488 162.524C21.38 162.86 21.326 163.232 21.326 163.64V165.854H20.48V163.64C20.48 163.028 20.546 162.464 20.678 161.948C20.81 161.432 21.014 160.982 21.29 160.598C21.554 160.202 21.896 159.896 22.316 159.68C22.736 159.464 23.234 159.356 23.81 159.356C24.638 159.356 25.328 159.548 25.88 159.932C26.42 160.304 26.828 160.814 27.104 161.462C27.368 162.098 27.5 162.824 27.5 163.64V167.06H14.9V163.82C14.9 163.064 15.014 162.41 15.242 161.858C15.47 161.294 15.818 160.856 16.286 160.544C16.742 160.232 17.33 160.076 18.05 160.076C18.638 160.076 19.142 160.232 19.562 160.544C19.982 160.856 20.3 161.294 20.516 161.858C20.732 162.41 20.84 163.064 20.84 163.82V165.854ZM27.68 153.909C27.68 154.677 27.5 155.361 27.14 155.961C26.768 156.549 26.258 157.011 25.61 157.347C24.962 157.671 24.212 157.833 23.36 157.833C22.496 157.833 21.74 157.665 21.092 157.329C20.444 156.981 19.94 156.501 19.58 155.889C19.22 155.265 19.04 154.545 19.04 153.729C19.04 152.913 19.214 152.217 19.562 151.641C19.898 151.053 20.384 150.603 21.02 150.291C21.656 149.979 22.412 149.823 23.288 149.823C23.372 149.823 23.462 149.829 23.558 149.841C23.642 149.841 23.696 149.841 23.72 149.841V156.915H22.496L22.496 150.975L23.324 151.551C23.264 151.515 23.174 151.479 23.054 151.443C22.922 151.407 22.814 151.389 22.73 151.389C22.238 151.389 21.812 151.491 21.452 151.695C21.092 151.887 20.81 152.157 20.606 152.505C20.402 152.853 20.3 153.261 20.3 153.729C20.3 154.281 20.42 154.755 20.66 155.151C20.888 155.535 21.224 155.835 21.668 156.051C22.1 156.255 22.634 156.363 23.27 156.375C23.918 156.375 24.47 156.273 24.926 156.069C25.382 155.865 25.73 155.565 25.97 155.169C26.21 154.773 26.33 154.293 26.33 153.729C26.33 153.165 26.21 152.667 25.97 152.235C25.718 151.803 25.34 151.437 24.836 151.137L25.574 149.967C26.27 150.399 26.798 150.945 27.158 151.605C27.506 152.253 27.68 153.021 27.68 153.909ZM23.36 147.201C23.936 147.201 24.446 147.081 24.89 146.841C25.334 146.589 25.688 146.253 25.952 145.833C26.204 145.401 26.33 144.915 26.33 144.375C26.33 143.931 26.264 143.517 26.132 143.133C25.988 142.737 25.802 142.395 25.574 142.107C25.334 141.819 25.082 141.615 24.818 141.495H26.618C26.954 141.783 27.218 142.197 27.41 142.737C27.59 143.265 27.68 143.811 27.68 144.375C27.68 145.179 27.494 145.905 27.122 146.553C26.75 147.201 26.24 147.717 25.592 148.101C24.932 148.473 24.188 148.659 23.36 148.659C22.52 148.659 21.776 148.473 21.128 148.101C20.48 147.717 19.97 147.201 19.598 146.553C19.226 145.905 19.04 145.179 19.04 144.375C19.04 143.811 19.136 143.265 19.328 142.737C19.508 142.197 19.766 141.783 20.102 141.495H21.902C21.626 141.615 21.374 141.819 21.146 142.107C20.918 142.395 20.738 142.737 20.606 143.133C20.462 143.517 20.39 143.931 20.39 144.375C20.39 144.915 20.516 145.401 20.768 145.833C21.02 146.253 21.374 146.589 21.83 146.841C22.274 147.081 22.784 147.201 23.36 147.201ZM23.36 139.974C22.52 139.974 21.776 139.788 21.128 139.416C20.48 139.032 19.97 138.516 19.598 137.868C19.226 137.22 19.04 136.494 19.04 135.69C19.04 134.874 19.226 134.148 19.598 133.512C19.97 132.864 20.48 132.354 21.128 131.982C21.776 131.598 22.52 131.406 23.36 131.406C24.188 131.406 24.932 131.598 25.592 131.982C26.24 132.354 26.75 132.864 27.122 133.512C27.494 134.148 27.68 134.874 27.68 135.69C27.68 136.494 27.494 137.22 27.122 137.868C26.75 138.516 26.24 139.032 25.592 139.416C24.932 139.788 24.188 139.974 23.36 139.974ZM23.36 138.516C23.936 138.516 24.446 138.396 24.89 138.156C25.334 137.904 25.688 137.568 25.952 137.148C26.204 136.716 26.33 136.23 26.33 135.69C26.33 135.15 26.204 134.67 25.952 134.25C25.688 133.818 25.334 133.482 24.89 133.242C24.446 132.99 23.936 132.864 23.36 132.864C22.784 132.864 22.274 132.99 21.83 133.242C21.374 133.482 21.02 133.818 20.768 134.25C20.516 134.67 20.39 135.15 20.39 135.69C20.39 136.23 20.516 136.716 20.768 137.148C21.02 137.568 21.374 137.904 21.83 138.156C22.274 138.396 22.784 138.516 23.36 138.516ZM22.28 118.087H27.5V119.527H22.46C21.752 119.527 21.23 119.659 20.894 119.923C20.558 120.175 20.39 120.571 20.39 121.111C20.39 121.507 20.474 121.849 20.642 122.137C20.798 122.425 21.032 122.647 21.344 122.803C21.656 122.959 22.028 123.037 22.46 123.037H27.5V124.477H22.46C21.752 124.477 21.23 124.609 20.894 124.873C20.558 125.125 20.39 125.521 20.39 126.061C20.39 126.457 20.474 126.799 20.642 127.087C20.798 127.375 21.032 127.597 21.344 127.753C21.656 127.909 22.028 127.987 22.46 127.987H27.5V129.427H19.22V127.987H20.426C19.958 127.735 19.61 127.423 19.382 127.051C19.154 126.667 19.04 126.217 19.04 125.701C19.04 125.125 19.178 124.633 19.454 124.225C19.718 123.805 20.096 123.499 20.588 123.307C20.072 123.019 19.688 122.659 19.436 122.227C19.172 121.795 19.04 121.303 19.04 120.751C19.04 120.187 19.166 119.707 19.418 119.311C19.67 118.915 20.042 118.615 20.534 118.411C21.014 118.195 21.596 118.087 22.28 118.087ZM27.68 112.178C27.68 112.946 27.5 113.63 27.14 114.23C26.768 114.818 26.258 115.28 25.61 115.616C24.962 115.94 24.212 116.102 23.36 116.102C22.496 116.102 21.74 115.934 21.092 115.598C20.444 115.25 19.94 114.77 19.58 114.158C19.22 113.534 19.04 112.814 19.04 111.998C19.04 111.182 19.214 110.486 19.562 109.91C19.898 109.322 20.384 108.872 21.02 108.56C21.656 108.248 22.412 108.092 23.288 108.092C23.372 108.092 23.462 108.098 23.558 108.11C23.642 108.11 23.696 108.11 23.72 108.11V115.184H22.496V109.244L23.324 109.82C23.264 109.784 23.174 109.748 23.054 109.712C22.922 109.676 22.814 109.658 22.73 109.658C22.238 109.658 21.812 109.76 21.452 109.964C21.092 110.156 20.81 110.426 20.606 110.774C20.402 111.122 20.3 111.53 20.3 111.998C20.3 112.55 20.42 113.024 20.66 113.42C20.888 113.804 21.224 114.104 21.668 114.32C22.1 114.524 22.634 114.632 23.27 114.644C23.918 114.644 24.47 114.542 24.926 114.338C25.382 114.134 25.73 113.834 25.97 113.438C26.21 113.042 26.33 112.562 26.33 111.998C26.33 111.434 26.21 110.936 25.97 110.504C25.718 110.072 25.34 109.706 24.836 109.406L25.574 108.236C26.27 108.668 26.798 109.214 27.158 109.874C27.506 110.522 27.68 111.29 27.68 112.178ZM23.72 99.4263L22.28 98.8863V93.3063L23.72 92.7663L23.72 99.4263ZM17.744 96.1323L22.748 98.2563L23.072 98.4003L27.5 100.272V101.982L14.27 96.1323L27.5 90.2823V91.9923L23.18 93.8283L22.82 93.9723L17.744 96.1323ZM18.986 81.607L27.5 82.543V84.073L14.27 82.543L23.396 77.503L14.27 72.463L27.5 70.933V72.463L18.986 73.399L26.33 77.503L18.986 81.607ZM27.68 65.6667C27.68 66.4347 27.5 67.1187 27.14 67.7187C26.768 68.3067 26.258 68.7687 25.61 69.1047C24.962 69.4287 24.212 69.5907 23.36 69.5907C22.496 69.5907 21.74 69.4227 21.092 69.0867C20.444 68.7387 19.94 68.2587 19.58 67.6467C19.22 67.0227 19.04 66.3027 19.04 65.4867C19.04 64.6707 19.214 63.9747 19.562 63.3987C19.898 62.8107 20.384 62.3607 21.02 62.0487C21.656 61.7367 22.412 61.5807 23.288 61.5807C23.372 61.5807 23.462 61.5867 23.558 61.5987C23.642 61.5987 23.696 61.5987 23.72 61.5987V68.6727H22.496V62.7327L23.324 63.3087C23.264 63.2727 23.174 63.2367 23.054 63.2007C22.922 63.1647 22.814 63.1467 22.73 63.1467C22.238 63.1467 21.812 63.2487 21.452 63.4527C21.092 63.6447 20.81 63.9147 20.606 64.2627C20.402 64.6107 20.3 65.0187 20.3 65.4867C20.3 66.0387 20.42 66.5127 20.66 66.9087C20.888 67.2927 21.224 67.5927 21.668 67.8087C22.1 68.0127 22.634 68.1207 23.27 68.1327C23.918 68.1327 24.47 68.0307 24.926 67.8267C25.382 67.6227 25.73 67.3227 25.97 66.9267C26.21 66.5307 26.33 66.0507 26.33 65.4867C26.33 64.9227 26.21 64.4247 25.97 63.9927C25.718 63.5607 25.34 63.1947 24.836 62.8947L25.574 61.7247C26.27 62.1567 26.798 62.7027 27.158 63.3627C27.506 64.0107 27.68 64.7787 27.68 65.6667ZM22.28 48.267H27.5V49.707H22.46C21.752 49.707 21.23 49.839 20.894 50.103C20.558 50.355 20.39 50.751 20.39 51.291C20.39 51.687 20.474 52.029 20.642 52.317C20.798 52.605 21.032 52.827 21.344 52.983C21.656 53.139 22.028 53.217 22.46 53.217H27.5V54.657H22.46C21.752 54.657 21.23 54.789 20.894 55.053C20.558 55.305 20.39 55.701 20.39 56.241C20.39 56.637 20.474 56.979 20.642 57.267C20.798 57.555 21.032 57.777 21.344 57.933C21.656 58.089 22.028 58.167 22.46 58.167H27.5V59.607H19.22V58.167H20.426C19.958 57.915 19.61 57.603 19.382 57.231C19.154 56.847 19.04 56.397 19.04 55.881C19.04 55.305 19.178 54.813 19.454 54.405C19.718 53.985 20.096 53.679 20.588 53.487C20.072 53.199 19.688 52.839 19.436 52.407C19.172 51.975 19.04 51.483 19.04 50.931C19.04 50.367 19.166 49.887 19.418 49.491C19.67 49.095 20.042 48.795 20.534 48.591C21.014 48.375 21.596 48.267 22.28 48.267ZM13.46 44.2121H27.5V45.6521H13.46V44.2121ZM23.36 37.2821C24.248 37.2821 25.016 37.4681 25.664 37.8401C26.312 38.2121 26.81 38.7101 27.158 39.3341C27.506 39.9461 27.68 40.6301 27.68 41.3861C27.68 42.0701 27.506 42.6761 27.158 43.2041C26.81 43.7201 26.312 44.1281 25.664 44.4281C25.016 44.7161 24.248 44.8601 23.36 44.8601C22.46 44.8601 21.692 44.7161 21.056 44.4281C20.408 44.1281 19.91 43.7201 19.562 43.2041C19.214 42.6761 19.04 42.0701 19.04 41.3861C19.04 40.6301 19.214 39.9461 19.562 39.3341C19.91 38.7101 20.408 38.2121 21.056 37.8401C21.692 37.4681 22.46 37.2821 23.36 37.2821ZM23.36 38.7401C22.724 38.7401 22.184 38.8721 21.74 39.1361C21.296 39.3881 20.96 39.7301 20.732 40.1621C20.504 40.5821 20.39 41.0501 20.39 41.5661C20.39 41.9861 20.504 42.4001 20.732 42.8081C20.96 43.2161 21.296 43.5521 21.74 43.8161C22.184 44.0801 22.724 44.2121 23.36 44.2121C23.996 44.2121 24.536 44.0801 24.98 43.8161C25.424 43.5521 25.76 43.2161 25.988 42.8081C26.216 42.4001 26.33 41.9861 26.33 41.5661C26.33 41.0501 26.216 40.5821 25.988 40.1621C25.76 39.7301 25.424 39.3881 24.98 39.1361C24.536 38.8721 23.996 38.7401 23.36 38.7401ZM27.68 32.0925C27.68 32.8605 27.5 33.5445 27.14 34.1445C26.768 34.7325 26.258 35.1945 25.61 35.5305C24.962 35.8545 24.212 36.0165 23.36 36.0165C22.496 36.0165 21.74 35.8485 21.092 35.5125C20.444 35.1645 19.94 34.6845 19.58 34.0725C19.22 33.4485 19.04 32.7285 19.04 31.9125C19.04 31.0965 19.214 30.4005 19.562 29.8245C19.898 29.2365 20.384 28.7865 21.02 28.4745C21.656 28.1625 22.412 28.0065 23.288 28.0065C23.372 28.0065 23.462 28.0125 23.558 28.0245C23.642 28.0245 23.696 28.0245 23.72 28.0245L23.72 35.0985H22.496L22.496 29.1585L23.324 29.7345C23.264 29.6985 23.174 29.6625 23.054 29.6265C22.922 29.5905 22.814 29.5725 22.73 29.5725C22.238 29.5725 21.812 29.6745 21.452 29.8785C21.092 30.0705 20.81 30.3405 20.606 30.6885C20.402 31.0365 20.3 31.4445 20.3 31.9125C20.3 32.4645 20.42 32.9385 20.66 33.3345C20.888 33.7185 21.224 34.0185 21.668 34.2345C22.1 34.4385 22.634 34.5465 23.27 34.5585C23.918 34.5585 24.47 34.4565 24.926 34.2525C25.382 34.0485 25.73 33.7485 25.97 33.3525C26.21 32.9565 26.33 32.4765 26.33 31.9125C26.33 31.3485 26.21 30.8505 25.97 30.4185C25.718 29.9865 25.34 29.6205 24.836 29.3205L25.574 28.1505C26.27 28.5825 26.798 29.1285 27.158 29.7885C27.506 30.4365 27.68 31.2045 27.68 32.0925ZM19.22 24.5928H27.5V26.0328H19.22V24.5928ZM20.804 22.0908C20.66 22.2828 20.558 22.4568 20.498 22.6128C20.426 22.7688 20.39 22.9668 20.39 23.2068C20.39 23.5668 20.48 23.8488 20.66 24.0528C20.84 24.2568 21.086 24.4008 21.398 24.4848C21.71 24.5568 22.064 24.5928 22.46 24.5928V25.2408C21.8 25.2408 21.218 25.1268 20.714 24.8988C20.198 24.6588 19.79 24.3528 19.49 23.9808C19.19 23.6088 19.04 23.2308 19.04 22.8468C19.04 22.5468 19.082 22.2708 19.166 22.0188C19.238 21.7548 19.388 21.5148 19.616 21.2988L20.804 22.0908Z" fill="white"/>
<rect x="44.5" y="188.5" width="188" height="1" transform="rotate(-90 44.5 188.5)" fill="#181818"/>
</svg>
