<svg width="18" height="18" viewBox="0 0 18 18" fill="none" xmlns="http://www.w3.org/2000/svg">
<path d="M16.3463 6.1875C16.3438 6.12985 16.3324 6.07294 16.3126 6.01875V4.5C16.3126 4.05245 16.1348 3.62322 15.8183 3.30676C15.5018 2.99029 15.0726 2.8125 14.6251 2.8125H12.3751V2.25C12.3751 2.10082 12.3158 1.95774 12.2103 1.85225C12.1048 1.74676 11.9617 1.6875 11.8126 1.6875C11.6634 1.6875 11.5203 1.74676 11.4148 1.85225C11.3093 1.95774 11.2501 2.10082 11.2501 2.25V2.8125H6.75006V2.25C6.75006 2.10082 6.6908 1.95774 6.58531 1.85225C6.47982 1.74676 6.33674 1.6875 6.18756 1.6875C6.03837 1.6875 5.8953 1.74676 5.78981 1.85225C5.68432 1.95774 5.62506 2.10082 5.62506 2.25V2.8125H3.37506C2.92751 2.8125 2.49828 2.99029 2.18182 3.30676C1.86535 3.62322 1.68756 4.05245 1.68756 4.5V6.01875C1.66528 6.07222 1.65381 6.12957 1.65381 6.1875C1.65381 6.24543 1.66528 6.30278 1.68756 6.35625V13.5C1.68756 13.9476 1.86535 14.3768 2.18182 14.6932C2.49828 15.0097 2.92751 15.1875 3.37506 15.1875H14.6251C15.0726 15.1875 15.5018 15.0097 15.8183 14.6932C16.1348 14.3768 16.3126 13.9476 16.3126 13.5V6.35625C16.3324 6.30206 16.3438 6.24515 16.3463 6.1875ZM3.37506 3.9375H5.62506V4.5C5.62506 4.64918 5.68432 4.79226 5.78981 4.89775C5.8953 5.00324 6.03837 5.0625 6.18756 5.0625C6.33674 5.0625 6.47982 5.00324 6.58531 4.89775C6.6908 4.79226 6.75006 4.64918 6.75006 4.5V3.9375H11.2501V4.5C11.2501 4.64918 11.3093 4.79226 11.4148 4.89775C11.5203 5.00324 11.6634 5.0625 11.8126 5.0625C11.9617 5.0625 12.1048 5.00324 12.2103 4.89775C12.3158 4.79226 12.3751 4.64918 12.3751 4.5V3.9375H14.6251C14.7742 3.9375 14.9173 3.99676 15.0228 4.10225C15.1283 4.20774 15.1876 4.35082 15.1876 4.5V5.625H2.81256V4.5C2.81256 4.35082 2.87182 4.20774 2.97731 4.10225C3.0828 3.99676 3.22587 3.9375 3.37506 3.9375ZM14.6251 14.0625H3.37506C3.22587 14.0625 3.0828 14.0032 2.97731 13.8977C2.87182 13.7923 2.81256 13.6492 2.81256 13.5V6.75H15.1876V13.5C15.1876 13.6492 15.1283 13.7923 15.0228 13.8977C14.9173 14.0032 14.7742 14.0625 14.6251 14.0625Z" fill="#181818"/>
</svg>
