<svg width="50" height="50" viewBox="0 0 50 50" fill="none" xmlns="http://www.w3.org/2000/svg">
<path d="M35.245 16.3533H32.7761V13.8843C32.7761 13.7568 32.7254 13.6345 32.6353 13.5444C32.5451 13.4542 32.4228 13.4036 32.2953 13.4036H29.3455C29.218 13.4036 29.0957 13.4542 29.0056 13.5444C28.9154 13.6345 28.8648 13.7568 28.8648 13.8843V16.3533H26.3958C26.2683 16.3533 26.146 16.4039 26.0559 16.4941C25.9657 16.5843 25.915 16.7065 25.915 16.834V19.7838C25.915 19.9113 25.9657 20.0336 26.0559 20.1237C26.146 20.2139 26.2683 20.2645 26.3958 20.2645H28.8648V22.7335C28.8648 22.861 28.9154 22.9833 29.0056 23.0734C29.0957 23.1636 29.218 23.2142 29.3455 23.2142H32.2953C32.4228 23.2142 32.5451 23.1636 32.6353 23.0734C32.7254 22.9833 32.7761 22.861 32.7761 22.7335V20.2645H35.245C35.3725 20.2645 35.4948 20.2139 35.585 20.1237C35.6752 20.0336 35.7258 19.9113 35.7258 19.7838V16.834C35.7258 16.7065 35.6752 16.5843 35.585 16.4941C35.4948 16.4039 35.3725 16.3533 35.245 16.3533ZM34.7643 19.303H32.2953C32.1678 19.303 32.0455 19.3536 31.9554 19.4438C31.8652 19.534 31.8146 19.6562 31.8146 19.7838V22.2527H29.8263V19.7838C29.8263 19.6562 29.7756 19.534 29.6855 19.4438C29.5953 19.3536 29.473 19.303 29.3455 19.303H26.8766V17.3148H29.3455C29.473 17.3148 29.5953 17.2642 29.6855 17.174C29.7756 17.0838 29.8263 16.9616 29.8263 16.834V14.3651H31.8146V16.834C31.8146 16.9616 31.8652 17.0838 31.9554 17.174C32.0455 17.2642 32.1678 17.3148 32.2953 17.3148H34.7643V19.303Z" fill="white"/>
<path d="M30.8205 9.95801C26.0769 9.95801 22.2178 13.8172 22.2178 18.5608C22.2178 23.3044 26.0769 27.1635 30.8205 27.1635C35.564 27.1635 39.4232 23.3044 39.4232 18.5608C39.4232 13.8172 35.564 9.95801 30.8205 9.95801ZM30.8205 26.202C26.6072 26.202 23.1793 22.7742 23.1793 18.5608C23.1793 14.3474 26.6071 10.9195 30.8205 10.9195C35.0337 10.9195 38.4616 14.3473 38.4616 18.5608C38.4616 22.7742 35.0338 26.202 30.8205 26.202Z" fill="white"/>
<path d="M29.1377 2.64429C22.5907 2.64429 16.559 6.11698 13.234 11.7517C12.9015 11.396 12.5994 11.1189 12.3398 10.9467C11.0772 10.1088 9.26661 10.1584 7.96844 10.9449C7.73651 11.086 7.25123 11.5152 6.69055 12.0436L6.68757 12.0464C5.50219 13.164 3.98017 14.7257 3.79276 14.9636C3.62796 15.1751 3.4744 15.3084 3.31988 15.6116C1.25507 19.6945 3.10084 27.3213 4.74921 31.1695C6.98863 36.4039 13.3029 42.718 18.5371 44.9576C22.5369 46.6719 30.1514 48.383 34.0932 46.3879C34.3975 46.2358 34.5318 46.0815 34.7466 45.9141C34.9825 45.7284 36.5267 44.223 37.6418 43.0407C37.6506 43.032 37.6592 43.023 37.6674 43.0136C38.1948 42.4535 38.6225 41.969 38.762 41.738C39.5783 40.3955 39.5782 38.5988 38.7619 37.3686C38.6873 37.256 38.5931 37.1362 38.4834 37.0106C44.1204 33.6864 47.5961 27.6482 47.5961 21.1027C47.5961 10.9248 39.3157 2.64429 29.1377 2.64429ZM8.46748 11.7668C9.48411 11.1509 10.8916 11.1398 11.8082 11.7478C13.0223 12.5531 15.8516 16.8041 16.6776 18.0389C17.4353 19.1645 17.7938 20.8235 16.8947 22.0026C16.7686 22.1272 16.0736 22.7356 15.2072 23.4874L7.66334 12.4487C8.03526 12.1056 8.33151 11.8496 8.46748 11.7668ZM34.1535 45.1572C34.0872 45.2093 34.0221 45.2629 33.9583 45.318C33.8481 45.4121 33.7814 45.4688 33.6609 45.5291C30.0422 47.3604 22.643 45.6712 18.9154 44.0737C13.9598 41.9535 7.75315 35.7468 5.63296 30.7911C3.93584 26.8292 2.36238 19.6352 4.177 16.047C4.26959 15.8652 4.37084 15.786 4.54949 15.5567C4.74815 15.3044 5.92834 14.1053 6.95555 13.1171L14.4756 24.1211C13.7796 24.723 13.0826 25.3239 12.3847 25.9237C12.318 25.981 12.2683 26.0555 12.241 26.139C12.2138 26.2226 12.2099 26.3121 12.2299 26.3977C13.1997 30.5527 19.1598 36.5096 23.309 37.4769C23.3946 37.4969 23.484 37.493 23.5675 37.4657C23.6511 37.4384 23.7255 37.3887 23.7828 37.3221C24.402 36.6016 25.0223 35.8821 25.6437 35.1636L36.5687 42.775C35.5859 43.7965 34.4035 44.9604 34.1535 45.1572ZM37.9395 41.2398C37.8557 41.3784 37.5903 41.685 37.2365 42.0682L26.277 34.4328C27.0019 33.5977 27.5825 32.9351 27.7039 32.8122C28.8381 31.9481 30.4832 32.2078 31.6637 33.027C32.9599 33.9265 35.9345 35.8865 37.3537 37.2252C37.3657 37.2382 37.3784 37.2502 37.3917 37.2616C37.6419 37.5004 37.8393 37.7175 37.9606 37.9003C38.5681 38.8159 38.5596 40.22 37.9395 41.2398ZM37.7745 36.3076C36.2822 34.9724 33.6838 33.2583 32.2118 32.2371C30.6627 31.1617 28.5645 30.9277 27.0978 32.0652C27.05 32.1023 26.9066 32.2135 23.2489 36.4679C19.55 35.4048 14.3038 30.1602 13.2388 26.4576C17.4933 22.8 17.6046 22.6564 17.6415 22.6088C18.8514 21.0493 18.4297 18.9203 17.4752 17.5022L17.324 17.2773C16.1738 15.5652 14.9445 13.788 13.9025 12.5202C17.0187 7.014 22.825 3.60583 29.1377 3.60583C38.7855 3.60583 46.6346 11.4549 46.6346 21.1027C46.6346 27.3911 43.2476 33.1842 37.7745 36.3076ZM7.4519 42.0674C6.25892 42.0674 5.28844 43.0379 5.28844 44.2308C5.28844 45.4237 6.25892 46.3943 7.4519 46.3943C8.64488 46.3943 9.61536 45.4237 9.61536 44.2308C9.61536 43.0379 8.64488 42.0674 7.4519 42.0674ZM7.4519 45.4328C6.78911 45.4328 6.24998 44.8936 6.24998 44.2308C6.24998 43.568 6.78911 43.0289 7.4519 43.0289C8.11469 43.0289 8.65382 43.568 8.65382 44.2308C8.65382 44.8936 8.11469 45.4328 7.4519 45.4328Z" fill="white"/>
<path d="M5.52877 6.97112C5.92705 6.97112 6.24992 6.64824 6.24992 6.24996C6.24992 5.85168 5.92705 5.52881 5.52877 5.52881C5.13049 5.52881 4.80762 5.85168 4.80762 6.24996C4.80762 6.64824 5.13049 6.97112 5.52877 6.97112Z" fill="white"/>
<path d="M44.9516 38.2211C45.3499 38.2211 45.6728 37.8982 45.6728 37.5C45.6728 37.1017 45.3499 36.7788 44.9516 36.7788C44.5533 36.7788 44.2305 37.1017 44.2305 37.5C44.2305 37.8982 44.5533 38.2211 44.9516 38.2211Z" fill="white"/>
<path d="M44.4712 5.52873C44.8694 5.52873 45.1923 5.20586 45.1923 4.80758C45.1923 4.4093 44.8694 4.08643 44.4712 4.08643C44.0729 4.08643 43.75 4.4093 43.75 4.80758C43.75 5.20586 44.0729 5.52873 44.4712 5.52873Z" fill="white"/>
<path d="M41.1059 46.8749C41.5042 46.8749 41.8271 46.5521 41.8271 46.1538C41.8271 45.7555 41.5042 45.4326 41.1059 45.4326C40.7076 45.4326 40.3848 45.7555 40.3848 46.1538C40.3848 46.5521 40.7076 46.8749 41.1059 46.8749Z" fill="white"/>
<path d="M5.0483 39.6635C5.44658 39.6635 5.76946 39.3406 5.76946 38.9423C5.76946 38.5441 5.44658 38.2212 5.0483 38.2212C4.65002 38.2212 4.32715 38.5441 4.32715 38.9423C4.32715 39.3406 4.65002 39.6635 5.0483 39.6635Z" fill="white"/>
<path d="M12.4998 8.41352C14.0904 8.41352 15.3845 7.11948 15.3845 5.5289C15.3845 3.93833 14.0904 2.64429 12.4998 2.64429C10.9093 2.64429 9.61523 3.93833 9.61523 5.5289C9.61523 7.11948 10.9093 8.41352 12.4998 8.41352ZM12.4998 3.60583C13.5602 3.60583 14.4229 4.46852 14.4229 5.5289C14.4229 6.58929 13.5602 7.45198 12.4998 7.45198C11.4395 7.45198 10.5768 6.58929 10.5768 5.5289C10.5768 4.46852 11.4395 3.60583 12.4998 3.60583Z" fill="white"/>
</svg>
