<svg width="82" height="82" viewBox="0 0 82 82" fill="none" xmlns="http://www.w3.org/2000/svg">
<path d="M30.0859 48.888L24.1426 45.322C22.3409 44.241 19.9967 44.7527 18.8093 46.4932C18.4971 46.9511 18.2882 47.4566 18.1874 47.9827L16.0378 46.6571L14.9011 38.8169C14.6402 37.0183 13.0725 35.662 11.2551 35.662C10.2184 35.662 9.22433 36.1024 8.5274 36.8694C7.83047 37.637 7.48826 38.668 7.58773 39.699L8.77576 52.0405C8.81017 52.3933 8.98847 52.7167 9.26937 52.9332L21.6627 62.4781V70.4159C21.6627 71.1234 22.2364 71.6971 22.944 71.6971C23.6515 71.6971 24.2252 71.1234 24.2252 70.4159V61.8475C24.2252 61.4503 24.0407 61.0749 23.726 60.8322L11.2732 51.2422L10.1383 39.4532C10.1077 39.1347 10.2097 38.8288 10.4242 38.5923C10.6401 38.3552 10.9347 38.2245 11.2551 38.2245C11.8081 38.2245 12.2854 38.6374 12.3649 39.1848L13.588 47.6174C13.6424 47.9928 13.8607 48.325 14.1835 48.5239L23.7929 54.4497C24.3954 54.8219 25.1843 54.6349 25.5559 54.0318C25.9275 53.4293 25.7404 52.6404 25.138 52.2688L21.3543 49.9353C21.0221 49.7301 20.7944 49.4079 20.713 49.0263C20.6317 48.6453 20.708 48.258 20.927 47.9358C21.348 47.3158 22.1838 47.1344 22.8238 47.5192L29.4503 51.4949C29.9045 51.7671 30.4894 51.7233 30.9074 51.3992C32.0447 50.5152 33.6832 50.6022 34.7192 51.6025C35.2841 52.1481 35.6082 52.9119 35.6082 53.6977V70.4159C35.6082 71.1234 36.1819 71.6971 36.8894 71.6971C37.597 71.6971 38.1707 71.1234 38.1707 70.4159V53.6977C38.1707 52.2213 37.562 50.7861 36.4991 49.7595C34.7736 48.0928 32.1561 47.7744 30.0859 48.888ZM73.4733 36.8694C72.7763 36.1024 71.7822 35.662 70.7456 35.662C68.9282 35.662 67.3604 37.0183 67.0995 38.8169L65.9628 46.6571L63.8132 47.9827C63.7125 47.4566 63.5029 46.9511 63.1907 46.4932C62.0052 44.7521 59.6617 44.2378 57.858 45.322L51.9166 48.8867C49.8552 47.7732 47.232 48.0903 45.501 49.7595C44.4387 50.7861 43.83 52.2213 43.83 53.6977V70.4159C43.83 71.1234 44.4036 71.6971 45.1112 71.6971C45.8188 71.6971 46.3925 71.1234 46.3925 70.4159V53.6977C46.3925 52.9119 46.7165 52.1481 47.2808 51.6025C48.3168 50.6028 49.9553 50.5152 51.1046 51.408C51.5218 51.732 52.0961 51.7677 52.5503 51.4949L59.1768 47.5192C59.8156 47.1325 60.6514 47.3158 61.073 47.9358C61.2926 48.258 61.3689 48.6453 61.2876 49.0263C61.2063 49.4079 60.9786 49.7301 60.6464 49.9353L56.8627 52.2688C56.2602 52.6404 56.0732 53.4293 56.4448 54.0318C56.8158 54.6349 57.6059 54.8219 58.2077 54.4497L67.8171 48.5239C68.1399 48.325 68.3583 47.9928 68.4127 47.6174L69.6358 39.1848C69.7152 38.6374 70.1926 38.2245 70.7456 38.2245C71.0659 38.2245 71.3606 38.3552 71.5764 38.5923C71.791 38.8288 71.893 39.1347 71.8617 39.4538L70.7275 51.2422L58.2747 60.8322C57.96 61.0749 57.7754 61.4503 57.7754 61.8475V70.4159C57.7754 71.1234 58.3491 71.6971 59.0567 71.6971C59.7643 71.6971 60.3379 71.1234 60.3379 70.4159V62.4781L72.7313 52.9332C73.0122 52.7167 73.1905 52.3933 73.2249 52.0405L74.4123 39.6997C74.5124 38.668 74.1702 37.637 73.4733 36.8694ZM61.5873 26.7483V24.4754C61.5873 23.7679 61.0136 23.1942 60.306 23.1942H58.0338C55.1124 23.1942 52.3587 23.8993 49.9057 25.1211C49.3408 20.3828 47.2133 15.9854 43.7956 12.5676L41.9062 10.6782C41.4057 10.1777 40.5949 10.1777 40.0944 10.6782L38.2051 12.5676C34.7873 15.9854 32.6598 20.3828 32.095 25.1211C29.642 23.8993 26.8882 23.1942 23.9668 23.1942H21.6946C20.9871 23.1942 20.4134 23.7679 20.4134 24.4754V26.7483C20.4134 36.8469 28.6289 45.0624 38.7275 45.0624H41.0003H43.2732C53.3718 45.0624 61.5873 36.8469 61.5873 26.7483ZM40.0169 14.3793L41.0003 13.3959L41.9838 14.3793C45.2698 17.6654 47.1815 21.9834 47.4451 26.5925C44.5689 28.6403 42.3126 31.4922 41.0003 34.8235C39.688 31.4922 37.4318 28.6403 34.5555 26.5925C34.8191 21.9834 36.7308 17.6654 40.0169 14.3793ZM22.9759 26.7483V25.7567H23.9668C32.6528 25.7567 39.7191 32.823 39.7191 41.5083V42.4999H38.7275C30.0421 42.4999 22.9759 35.4336 22.9759 26.7483ZM43.2732 42.4999H42.2816V41.5083C42.2816 32.823 49.3478 25.7567 58.0338 25.7567H59.0248V26.7483C59.0248 35.4336 51.9585 42.4999 43.2732 42.4999Z" fill="#007AFF"/>
</svg>
