<svg width="82" height="82" viewBox="0 0 82 82" fill="none" xmlns="http://www.w3.org/2000/svg">
<path d="M17.6424 62.8667C14.2879 60.8788 11.4303 58.394 9.06971 55.4122C4.96971 50.0697 2.48486 43.3607 2.48486 36.1546C2.48486 34.4152 2.60911 32.8001 2.85759 31.1849C4.22426 22.4879 9.44244 14.9091 16.5243 10.1879C21.3697 6.95763 27.2091 5.09399 33.5455 5.09399C39.8818 5.09399 45.597 6.95763 50.5667 10.1879C57.6485 14.7849 62.7424 22.2394 64.2333 30.9364C64.4818 32.6758 64.7303 34.4152 64.7303 36.2788C64.7303 38.8879 64.3576 41.497 63.7364 43.9819" stroke="#007AFF" stroke-width="2" stroke-miterlimit="10" stroke-linecap="round" stroke-linejoin="round"/>
<path d="M2.85742 31.1849C10.6847 25.4698 21.618 21.991 33.6695 21.991C45.4726 21.991 56.2817 25.3455 64.1089 30.9364M33.5453 5.09399V46.094" stroke="#007AFF" stroke-width="2" stroke-miterlimit="10" stroke-linecap="round" stroke-linejoin="round"/>
<path d="M16.5242 10.1879C17.2696 10.8091 18.0151 11.306 18.6363 11.9273C23.7302 16.2757 25.5938 23.3576 23.3575 29.5697V29.6939C22.7363 31.3091 21.8666 32.8 20.8726 34.1667C15.5302 40.8757 11.8029 47.9576 9.19385 55.4121M51.4363 41.497C49.9454 39.0121 48.206 36.5273 46.2181 34.0424C45.2241 32.6757 44.3545 31.1848 43.7332 29.6939V29.5697C42.8635 27.3333 42.6151 24.9727 42.8635 22.6121C43.2363 18.5121 45.2241 14.6606 48.4545 11.9273C49.0757 11.306 49.8211 10.8091 50.5666 10.1879M35.2848 72.5576V50.6909M66.8423 72.5576V50.6909M40.7514 61.6242H61.3757M44.3545 58.8909V64.3576M48.8272 58.8909V64.3576M53.2999 58.8909V64.3576M57.7726 58.8909V64.3576M78.3969 59.0151C79.8878 60.3818 79.8878 62.8667 78.3969 64.2333C73.6757 68.5818 63.2393 76.7818 51.0635 76.7818C38.8878 76.7818 28.4514 68.5818 23.7302 64.2333C22.2393 62.8667 22.2393 60.3818 23.7302 59.0151C28.4514 54.6667 38.8878 46.4667 51.0635 46.4667C63.2393 46.4667 73.6757 54.6667 78.3969 59.0151Z" stroke="#007AFF" stroke-width="2" stroke-miterlimit="10" stroke-linecap="round" stroke-linejoin="round"/>
</svg>
