<svg width="82" height="82" viewBox="0 0 82 82" fill="none" xmlns="http://www.w3.org/2000/svg">
<path d="M68.1823 2.56022C67.6427 2.50897 67.0863 2.5858 66.5658 2.7293C65.5247 3.02296 64.4834 3.59405 63.3726 4.35588C61.1511 5.87954 58.6724 8.19257 56.1556 10.8173C51.1221 16.0669 45.999 22.5539 43.3181 26.2224C37.974 33.5342 32.8285 42.7226 28.6988 50.5608L24.1444 56.8022C23.9406 56.7766 23.7372 56.7382 23.5338 56.7331C21.1177 56.6741 18.7431 57.5374 16.9924 59.1905C16.8323 59.3446 16.715 59.5375 16.652 59.7507C14.2643 62.3545 13.865 65.326 13.7292 67.9287C13.5842 70.7108 13.505 73.0916 11.3018 75.5564C11.1012 75.7812 10.9863 76.0695 10.9772 76.3707C10.968 76.6718 11.0653 76.9665 11.2519 77.203C12.5716 78.8771 14.7584 79.4771 17.1977 79.4299C17.2587 79.4429 17.3206 79.4515 17.3829 79.4556H50.6954C50.8652 79.458 51.0338 79.4266 51.1913 79.3633C51.3489 79.3 51.4923 79.206 51.6132 79.0868C51.7341 78.9675 51.8301 78.8255 51.8956 78.6689C51.9612 78.5122 51.9949 78.3441 51.9949 78.1743C51.9949 78.0045 51.9612 77.8364 51.8956 77.6798C51.8301 77.5231 51.7341 77.3811 51.6132 77.2619C51.4923 77.1426 51.3489 77.0486 51.1913 76.9853C51.0338 76.922 50.8652 76.8907 50.6954 76.8931H25.9863C27.485 76.0315 28.8932 74.9845 30.0503 73.6799C31.9047 71.5907 32.9742 69.1745 33.0632 66.7234C33.1099 65.4419 32.8603 64.1627 32.3575 62.9448L36.972 56.6336C43.1841 50.3032 50.3828 42.6195 55.7303 35.3028C58.4122 31.6328 63.0236 24.7874 66.4858 18.3963C68.217 15.2006 69.6595 12.1348 70.4347 9.55236C70.8223 8.26111 71.0554 7.09094 71.0202 6.00906C70.9851 4.92717 70.6214 3.81275 69.704 3.13625C69.2448 2.79775 68.7221 2.6217 68.1825 2.5707L68.1823 2.56022ZM67.902 5.09269C68.0425 5.09269 68.124 5.14391 68.1823 5.18747C68.2997 5.2746 68.437 5.45425 68.4576 6.08335C68.4781 6.71244 68.3228 7.67159 67.9821 8.806C67.301 11.0751 65.915 14.051 64.2285 17.1642C60.8555 23.3908 56.2731 30.209 53.6632 33.7804C48.6473 40.6435 41.825 47.9002 35.8057 54.0602L31.4915 50.9021C35.519 43.2999 40.3682 34.5986 45.3851 27.7345C47.996 24.1618 53.1035 17.7092 58.0074 12.5947C60.4594 10.0376 62.8735 7.81151 64.824 6.47389C65.7993 5.80482 66.6604 5.36712 67.2614 5.19748C67.562 5.11292 67.7615 5.08501 67.902 5.09269ZM30.0701 53.0395L34.2042 56.0624L30.921 60.5618C30.7208 60.3081 30.5536 60.0427 30.3254 59.8011C29.2945 58.7092 28.1041 57.9426 26.852 57.4388L30.0701 53.0395ZM23.4437 59.2756C25.1987 59.3089 27.0088 60.022 28.4636 61.5628C29.9494 63.1367 30.5648 64.8496 30.5006 66.6177C30.4362 68.3856 29.6633 70.2441 28.1333 71.9679C26.0166 74.3544 22.6753 75.9954 19.635 76.5925C17.027 77.1044 15.0071 76.6567 13.9294 75.9218C15.7096 73.225 16.1628 70.433 16.2867 68.0591C16.431 65.2916 16.522 63.1597 18.7541 61.0523C19.9899 59.8853 21.6886 59.2415 23.4437 59.2756ZM58.2526 76.8827C58.0844 76.8913 57.9195 76.9328 57.7673 77.005C57.6151 77.0773 57.4787 77.1791 57.3657 77.3041C57.2528 77.4291 57.1656 77.5748 57.1091 77.7336C57.0526 77.8923 57.0279 78.0608 57.0365 78.229C57.045 78.3973 57.0866 78.562 57.1589 78.7142C57.2312 78.8664 57.3328 79.0029 57.4578 79.1159C57.5828 79.2288 57.7288 79.3162 57.8876 79.3727C58.0463 79.4292 58.2146 79.4538 58.3828 79.4452H66.0703C66.2401 79.4476 66.4087 79.4163 66.5662 79.353C66.7238 79.2896 66.8672 79.1956 66.9881 79.0764C67.109 78.9572 67.205 78.8152 67.2705 78.6585C67.3361 78.5019 67.3698 78.3338 67.3698 78.164C67.3698 77.9942 67.3361 77.8261 67.2705 77.6694C67.205 77.5128 67.109 77.3707 66.9881 77.2515C66.8672 77.1323 66.7238 77.0383 66.5662 76.975C66.4087 76.9117 66.2401 76.8803 66.0703 76.8827H58.3828C58.3395 76.8805 58.296 76.8805 58.2526 76.8827Z" fill="#007AFF"/>
</svg>
