<svg width="82" height="82" viewBox="0 0 82 82" fill="none" xmlns="http://www.w3.org/2000/svg">
<path d="M35.3625 18.9625C26.8208 35.875 19.3042 53.3 11.9583 70.5542C11.275 71.9209 13.1542 72.9459 13.6667 71.75C21.0125 54.325 28.5292 36.9 37.0708 20.1584C37.7542 18.7917 36.0458 17.7667 35.3625 18.9625Z" fill="#007AFF"/>
<path d="M11.6167 71.75C12.1292 76.3625 16.2292 77.9 19.8167 74.9958C22.55 72.775 24.0875 66.7958 25.625 63.55C27.8459 58.9375 30.2375 54.4958 32.8 50.0541C33.4834 48.8583 31.6042 47.8333 30.9209 49.0291C28.7 52.9583 26.65 56.8875 24.6 60.8166C23.4042 63.0375 22.3792 65.4291 21.1834 67.65C20.6709 68.8458 20.1584 69.8708 19.475 71.0666C18.7917 73.6291 16.7417 73.8 13.6667 71.75C13.6667 70.3833 11.6167 70.3833 11.6167 71.75Z" fill="#007AFF"/>
<path d="M31.0915 50.3958C38.6082 54.325 45.0999 65.6 39.1207 73.4583C38.2665 74.4833 40.1457 75.6792 40.9999 74.4833C47.6624 65.7708 40.829 52.9583 32.2874 48.3458C31.0915 47.8333 29.8957 49.7125 31.0915 50.3958Z" fill="#007AFF"/>
<path d="M39.2915 74.9959C39.6332 84.5625 49.5415 78.0709 51.2498 72.4334C53.2998 65.9417 53.2998 60.1334 50.5665 53.8125C49.8832 52.275 48.8582 50.5667 47.8332 49.2C43.7332 44.2459 43.3915 42.3667 46.6373 36.7292C47.3207 35.5334 45.4415 34.5084 44.7582 35.7042C43.2207 38.2667 38.779 42.5375 41.1707 45.6125C44.2457 49.5417 47.4915 51.5917 49.3707 56.5459C50.2248 58.9375 50.5665 61.5 50.5665 64.0625C50.3957 65.7709 50.054 67.4792 49.8832 69.1875C49.5415 74.3125 46.6373 76.1917 41.3415 74.9959C41.3415 73.6292 39.2915 73.6292 39.2915 74.9959Z" fill="#007AFF"/>
<path d="M44.9292 35.7041C45.2709 45.7833 66.9667 43.7333 66.4542 33.3125C66.4542 31.9458 64.2334 31.9458 64.2334 33.3125C64.4042 37.0708 60.8167 38.7791 57.7417 39.6333C54.8375 40.4875 47.15 40.1458 46.9792 35.7041C47.15 34.3375 44.9292 34.3375 44.9292 35.7041Z" fill="#007AFF"/>
<path d="M66.2832 32.1167C65.9415 30.5792 65.0874 29.2125 63.2082 29.0417C62.0124 28.8708 61.1582 28.8709 60.1332 29.3834C58.9373 30.0667 57.5707 30.5792 56.3748 31.2625C53.2998 32.4583 52.9582 27.675 52.6165 26.3083C51.7623 22.55 47.3207 20.6709 44.2457 18.9625C41.854 17.5959 38.779 16.0583 36.2165 17.7667C35.0207 18.6208 36.2165 20.3292 37.2415 19.6459C40.4873 17.425 49.3707 24.2584 50.3957 26.9917C50.9082 28.5292 50.7373 31.0917 52.104 32.2875C53.129 33.1417 53.6415 33.825 55.179 33.825C56.7165 33.825 63.5498 30.2375 64.2332 32.9708C64.5748 33.9958 66.6248 33.4833 66.2832 32.1167Z" fill="#007AFF"/>
<path d="M37.2416 18.2791C24.2583 8.88327 8.5416 36.2166 23.0624 44.4166C24.2583 45.0999 25.2833 43.2208 24.0874 42.5374C11.9583 35.5333 25.4541 12.2999 36.0458 19.9874C37.2416 20.8416 38.2666 18.9624 37.2416 18.2791Z" fill="#007AFF"/>
<path d="M46.1252 14.5208C44.5877 11.9583 43.3919 7.51663 46.4669 5.2958C48.1752 4.09996 51.421 3.92913 53.471 4.2708C55.0085 4.44163 55.8627 6.49163 56.3752 7.85829C57.0585 9.56663 56.0335 11.4458 55.0085 12.8125C52.9585 15.375 49.371 15.7166 46.1252 14.5208C44.9294 14.0083 44.4169 16.0583 45.7835 16.5708C54.1544 19.9875 63.2085 10.25 56.0335 3.07496C53.471 0.683295 47.321 2.04996 44.9294 3.92913C41.3419 6.49163 42.5377 12.4708 44.4169 15.7166C44.9294 16.7416 46.8085 15.5458 46.1252 14.5208Z" fill="#007AFF"/>
<path d="M68.3336 21.1833C66.1127 24.0875 62.6961 25.9667 61.6711 29.725C61.3294 31.0917 63.3794 31.6042 63.7211 30.2375C64.7461 26.8208 68.1627 24.9417 70.2127 22.2083C71.0669 21.0125 69.1877 19.9875 68.3336 21.1833Z" fill="#007AFF"/>
<path d="M53.4709 41.8541C51.0793 44.075 49.0293 46.4666 46.9793 49.0291C46.1251 50.0541 47.6626 51.5916 48.5168 50.5666C50.5668 48.0041 52.6168 45.6125 55.0085 43.3916C55.8626 42.3666 54.3251 40.8291 53.4709 41.8541Z" fill="#007AFF"/>
<path d="M39.9752 58.5958C38.9502 59.45 38.4377 60.475 37.5836 61.5C36.5586 62.8666 35.3627 64.2333 34.1669 65.4291C31.9461 67.8208 29.3836 70.0416 27.1627 72.4333C26.1377 73.4583 27.6752 74.825 28.7002 73.9708C31.0919 71.5791 33.4836 69.3583 35.7044 66.9666C36.7294 65.9416 37.7544 64.7458 38.7794 63.55C39.6336 62.3541 40.3169 60.9874 41.5127 59.9624C42.5377 59.2791 41.0002 57.7416 39.9752 58.5958Z" fill="#007AFF"/>
</svg>
