<svg width="83" height="82" viewBox="0 0 83 82" fill="none" xmlns="http://www.w3.org/2000/svg">
<path d="M47.4194 62.999C54.2868 54.2609 65.8438 38.1941 65.8438 28.9947C65.8438 15.8362 54.9275 5.125 41.5 5.125C28.0724 5.125 17.1562 15.8362 17.1562 28.9947C17.1562 38.1941 28.7131 54.2609 35.5806 62.999C27.0475 63.6781 19.5009 65.869 19.5009 69.8153C19.5009 74.6712 30.904 76.875 41.5 76.875C52.0959 76.875 63.499 74.6712 63.499 69.8153C63.499 65.869 55.9525 63.6781 47.4194 62.999ZM19.7188 28.9947C19.7188 17.2456 29.4947 7.6875 41.5 7.6875C53.5053 7.6875 63.2812 17.2456 63.2812 28.9947C63.2812 37.8609 50.7249 54.735 44.2675 62.8196C43.4859 63.8062 42.794 64.6518 42.2302 65.3438C41.9484 65.6769 41.705 65.9587 41.5 66.215C41.295 65.9587 41.0515 65.6769 40.7697 65.3438C40.2059 64.6518 39.514 63.8062 38.7325 62.8196C32.275 54.735 19.7188 37.8609 19.7188 28.9947ZM41.5 74.3125C28.9309 74.3125 22.0634 71.34 22.0634 69.8153C22.0634 68.4572 27.4959 65.9715 37.5281 65.4334C39.1937 67.4962 40.334 68.8159 40.5262 69.0465C40.7697 69.3284 41.1284 69.495 41.5 69.495C41.8715 69.495 42.2302 69.3284 42.4737 69.0465C42.6659 68.8159 43.8062 67.4962 45.4718 65.4334C55.5041 65.9715 60.9365 68.4572 60.9365 69.8153C60.9365 71.34 54.0691 74.3125 41.5 74.3125Z" fill="#007AFF"/>
<path d="M41.5002 28.7C45.5105 28.7 48.7777 25.4328 48.7777 21.4225C48.7777 17.4122 45.5105 14.145 41.5002 14.145C37.4899 14.145 34.2227 17.4122 34.2227 21.4225C34.2227 25.4328 37.4899 28.7 41.5002 28.7ZM41.5002 16.7075C44.1011 16.7075 46.2152 18.8216 46.2152 21.4225C46.2152 24.0235 44.1011 26.1375 41.5002 26.1375C38.8993 26.1375 36.7852 24.0235 36.7852 21.4225C36.7852 18.8216 38.8993 16.7075 41.5002 16.7075Z" fill="#007AFF"/>
<path d="M60.6293 28.9947C60.6293 18.45 52.0449 9.87842 41.5002 9.87842C30.9555 9.87842 22.3711 18.45 22.3711 28.9947C22.3711 39.5394 30.9555 48.1238 41.5002 48.1238C52.0449 48.1238 60.6293 39.5394 60.6293 28.9947ZM24.9336 28.9947C24.9336 19.8594 32.3649 12.4409 41.5002 12.4409C50.6355 12.4409 58.0668 19.8594 58.0668 28.9947C58.0668 34.2606 55.594 38.9628 51.7502 41.9994L51.745 42.0032C51.4824 38.0655 50.4364 35.1901 48.5488 33.2836C46.8447 31.5632 44.4736 30.6904 41.4994 30.6904C35.2523 30.6904 31.7724 34.463 31.1127 41.8867L31.1092 41.8841C27.3424 38.8475 24.9336 34.1966 24.9336 28.9947ZM33.5795 43.5481C33.8832 34.4651 37.947 33.2529 41.4994 33.2529C43.7954 33.2529 45.5059 33.8529 46.7283 35.0866C48.3524 36.7272 49.1911 39.6131 49.2454 43.6423C46.9406 44.8702 44.3037 45.5613 41.5002 45.5613C38.6302 45.5613 35.9267 44.831 33.582 43.5497L33.5795 43.5481Z" fill="#007AFF"/>
</svg>
