<svg width="82" height="82" viewBox="0 0 82 82" fill="none" xmlns="http://www.w3.org/2000/svg">
<path d="M41.0093 58.5503C36.8557 58.5522 32.8244 57.1441 29.5753 54.5563C27.7127 53.0487 26.1681 51.186 25.0312 49.0765C23.8944 46.967 23.1879 44.6526 22.9527 42.2679C22.702 39.883 22.9267 37.4721 23.6138 35.1747C24.301 32.8772 25.437 30.7389 26.956 28.8834C28.4279 27.0371 30.2539 25.5036 32.3266 24.3727C34.3994 23.2418 36.6771 22.5364 39.0262 22.2979C41.4271 22.0298 43.8573 22.2442 46.1741 22.9285C48.4909 23.6128 50.6476 24.7531 52.5176 26.2826C53.4975 26.9746 54.4217 27.8988 55.1833 28.9716C55.4091 29.3232 55.4909 29.7484 55.4115 30.1587C55.3321 30.569 55.0978 30.933 54.7571 31.175C54.4164 31.4171 53.9956 31.5186 53.582 31.4586C53.1684 31.3985 52.7939 31.1814 52.5361 30.8525C51.9913 30.0847 51.3209 29.4143 50.5531 28.8694C49.0075 27.5938 47.222 26.6408 45.3021 26.0665C43.3822 25.4922 41.3667 25.3083 39.3745 25.5256C37.4503 25.7221 35.5846 26.3006 33.8868 27.2272C32.189 28.1539 30.6932 29.41 29.4871 30.9221C28.2355 32.4476 27.2994 34.2066 26.7334 36.0969C26.1673 37.9872 25.9825 39.9712 26.1897 41.9335C26.5984 45.9228 28.5211 49.5035 31.6141 52.0206C38.0835 57.1524 47.4972 56.1539 52.5965 49.7728C52.8656 49.436 53.2576 49.2198 53.6861 49.1719C54.1146 49.124 54.5446 49.2483 54.8814 49.5174C55.2183 49.7865 55.4345 50.1785 55.4824 50.607C55.5303 51.0355 55.406 51.4655 55.1369 51.8024C53.4419 53.9181 51.2911 55.6238 48.8449 56.7923C46.3987 57.9607 43.7202 58.5617 41.0093 58.5503ZM41.1115 16.8178C40.6804 16.8178 40.2669 16.6465 39.9621 16.3417C39.6573 16.0369 39.486 15.6234 39.486 15.1923V8.62546C39.486 8.19436 39.6573 7.78092 39.9621 7.47609C40.2669 7.17125 40.6804 7 41.1115 7C41.5426 7 41.956 7.17125 42.2608 7.47609C42.5657 7.78092 42.7369 8.19436 42.7369 8.62546V15.1923C42.7369 15.6234 42.5657 16.0369 42.2608 16.3417C41.956 16.6465 41.5426 16.8178 41.1115 16.8178ZM41.1115 75C40.6804 75 40.2669 74.8288 39.9621 74.5239C39.6573 74.2191 39.486 73.8056 39.486 73.3745V66.9331C39.486 66.502 39.6573 66.0885 39.9621 65.7837C40.2669 65.4789 40.6804 65.3076 41.1115 65.3076C41.5426 65.3076 41.956 65.4789 42.2608 65.7837C42.5657 66.0885 42.7369 66.502 42.7369 66.9331V73.3745C42.7369 73.8056 42.5657 74.2191 42.2608 74.5239C41.956 74.8288 41.5426 75 41.1115 75ZM15.0716 42.6905H8.62546C8.19436 42.6905 7.78092 42.5192 7.47609 42.2144C7.17125 41.9096 7 41.4961 7 41.065C7 40.6339 7.17125 40.2205 7.47609 39.9156C7.78092 39.6108 8.19436 39.4396 8.62546 39.4396H15.0716C15.5027 39.4396 15.9161 39.6108 16.221 39.9156C16.5258 40.2205 16.697 40.6339 16.697 41.065C16.697 41.4961 16.5258 41.9096 16.221 42.2144C15.9161 42.5192 15.5027 42.6905 15.0716 42.6905ZM63.9933 65.5398C63.7803 65.5406 63.5692 65.4991 63.3723 65.4178C63.1754 65.3365 62.9966 65.217 62.8462 65.0661L58.2438 60.4777C58.0926 60.327 57.9725 60.1481 57.8904 59.951C57.8083 59.754 57.7658 59.5427 57.7654 59.3292C57.765 59.1157 57.8066 58.9043 57.8879 58.7069C57.9692 58.5095 58.0885 58.3301 58.2392 58.1788C58.3898 58.0276 58.5688 57.9075 58.7658 57.8254C58.9629 57.7433 59.1742 57.7008 59.3876 57.7004C59.6011 57.6999 59.8126 57.7416 60.01 57.8229C60.2074 57.9041 60.3868 58.0235 60.538 58.1742L65.1404 62.7626C65.3684 62.9897 65.5239 63.2793 65.5872 63.5948C65.6504 63.9103 65.6186 64.2375 65.4958 64.5349C65.3729 64.8323 65.1646 65.0866 64.8971 65.2655C64.6296 65.4444 64.3151 65.5398 63.9933 65.5398ZM22.6973 24.3042C22.2673 24.3042 21.8549 24.1339 21.5502 23.8305L16.9432 19.2374C16.7919 19.0868 16.6718 18.9078 16.5897 18.7107C16.5076 18.5137 16.4652 18.3024 16.4647 18.0889C16.4643 17.8755 16.5059 17.664 16.5872 17.4666C16.6685 17.2692 16.7879 17.0898 16.9385 16.9385C17.0892 16.7873 17.2681 16.6672 17.4652 16.5851C17.6622 16.503 17.8735 16.4605 18.087 16.4601C18.3005 16.4597 18.5119 16.5013 18.7093 16.5826C18.9067 16.6639 19.0861 16.7832 19.2374 16.9339L23.8444 21.5223C24.074 21.7491 24.2309 22.0392 24.2951 22.3555C24.3593 22.6718 24.3279 23 24.2048 23.2984C24.0818 23.5968 23.8727 23.8518 23.6043 24.0309C23.3358 24.21 23.0201 24.3051 22.6973 24.3042ZM18.0903 65.5398C17.7685 65.5398 17.454 65.4444 17.1865 65.2655C16.919 65.0866 16.7107 64.8323 16.5878 64.5349C16.465 64.2375 16.4332 63.9103 16.4964 63.5948C16.5597 63.2793 16.7152 62.9897 16.9432 62.7626L21.5502 58.1742C21.7014 58.0235 21.8809 57.9041 22.0783 57.8229C22.2757 57.7416 22.4871 57.6999 22.7006 57.7004C22.9141 57.7008 23.1254 57.7433 23.3224 57.8254C23.5195 57.9075 23.6984 58.0276 23.8491 58.1788C23.9997 58.3301 24.1191 58.5095 24.2004 58.7069C24.2817 58.9043 24.3233 59.1157 24.3229 59.3292C24.3224 59.5427 24.28 59.754 24.1979 59.951C24.1158 60.1481 23.9957 60.327 23.8444 60.4777L19.2374 65.0661C18.9327 65.3695 18.5203 65.5399 18.0903 65.5398ZM59.3909 24.3042C59.0691 24.3042 58.7546 24.2087 58.4871 24.0298C58.2197 23.8509 58.0113 23.5967 57.8885 23.2993C57.7656 23.0019 57.7338 22.6747 57.7971 22.3592C57.8603 22.0437 58.0158 21.754 58.2438 21.527L62.8462 16.9385C62.9974 16.7879 63.1769 16.6685 63.3743 16.5872C63.5717 16.5059 63.7831 16.4643 63.9966 16.4647C64.2101 16.4652 64.4214 16.5077 64.6184 16.5897C64.8155 16.6718 64.9944 16.7919 65.1451 16.9432C65.2957 17.0944 65.4151 17.2739 65.4964 17.4713C65.5777 17.6686 65.6193 17.8801 65.6189 18.0936C65.6184 18.307 65.576 18.5183 65.4939 18.7154C65.4118 18.9124 65.2917 19.0914 65.1404 19.242L60.538 23.8305C60.2334 24.1339 59.8209 24.3042 59.3909 24.3042Z" fill="#007AFF"/>
<path d="M67.9362 52.6663H47.4182C47.1328 52.6661 46.8525 52.5908 46.6055 52.448C42.8019 51.821 40.0107 48.6723 40.0107 44.8733C40.0107 40.8375 43.4335 37.4101 47.5761 37.2151C47.8791 34.7144 49.087 32.4112 50.9719 30.7402C52.8568 29.0692 55.2883 28.146 57.8072 28.145C63.3245 28.145 67.8619 32.3944 68.2195 37.7538C72.1252 38.0325 75.2136 41.2369 75.2136 45.1381C75.2136 49.0995 72.1438 52.3365 68.0662 52.6663H67.9362ZM48.0498 49.4153H67.8665C70.2118 49.1971 71.972 47.3673 71.972 45.1381C71.972 42.8485 70.0446 40.9862 67.6761 40.9862C67.2847 41.0553 66.889 41.0972 66.4918 41.1116C66.2343 41.1098 65.9808 41.0473 65.752 40.929C65.5232 40.8107 65.3256 40.64 65.1753 40.4308C65.025 40.2217 64.9262 39.98 64.8871 39.7254C64.8479 39.4708 64.8695 39.2106 64.95 38.9659C64.9964 38.8406 65.0011 38.7941 65.0011 38.4412C65.0011 34.489 61.843 31.3959 57.8119 31.3959C55.9421 31.3959 54.1487 32.1378 52.8252 33.4586C51.5018 34.7794 50.7564 36.5714 50.7527 38.4412V38.9659C50.7527 40.1549 49.4291 40.6982 48.2634 40.4985C45.4723 40.5821 43.2617 42.4769 43.2617 44.8687C43.2617 47.1861 45.1054 49.0856 47.5575 49.2899C47.7269 49.3075 47.8927 49.3497 48.0498 49.4153Z" fill="#007AFF"/>
</svg>
