<svg width="82" height="82" viewBox="0 0 82 82" fill="none" xmlns="http://www.w3.org/2000/svg">
<path d="M45.3035 11.0508C29.7003 11.0508 16.8483 23.0454 15.4776 38.2977L9.48171 32.3016C8.8563 31.6762 7.84219 31.6762 7.21662 32.3016C6.59121 32.927 6.59121 33.9411 7.21662 34.5667L15.8234 43.1735C16.1362 43.4861 16.546 43.6426 16.9559 43.6426C17.3657 43.6426 17.7757 43.4861 18.0883 43.1735L26.6951 34.5667C27.3205 33.9413 27.3205 32.9272 26.6951 32.3016C26.0697 31.6762 25.0556 31.6762 24.43 32.3016L18.7258 38.0059C20.2192 24.6625 31.5679 14.2539 45.3035 14.2539C60.0514 14.2539 72.0496 26.2522 72.0496 41C72.0496 55.7478 60.0514 67.7461 45.3035 67.7461C38.2796 67.7461 31.6441 65.0441 26.6195 60.1379C25.9866 59.5201 24.9727 59.5322 24.3548 60.1649C23.7369 60.7977 23.7489 61.8118 24.3817 62.4299C30.0081 67.9237 37.4383 70.9492 45.3035 70.9492C61.8176 70.9492 75.2528 57.514 75.2528 41C75.2528 24.486 61.8176 11.0508 45.3035 11.0508Z" fill="#007AFF"/>
<path d="M45.3037 21.3964C44.4193 21.3964 43.7021 22.1134 43.7021 22.9979V41C43.7021 41.8843 44.4193 42.6015 45.3037 42.6015H57.9905C58.8749 42.6015 59.5921 41.8843 59.5921 41C59.5921 40.1154 58.8749 39.3984 57.9905 39.3984H46.9053V22.9979C46.9053 22.1134 46.1881 21.3964 45.3037 21.3964Z" fill="#007AFF"/>
</svg>
