<svg width="82" height="82" viewBox="0 0 82 82" fill="none" xmlns="http://www.w3.org/2000/svg">
<g clip-path="url(#clip0_224_2376)">
<path d="M7.68521 49.2709C5.85764 43.9643 5.32418 38.2979 6.12925 32.7434C6.93431 27.189 9.0546 21.9072 12.3136 17.3379C15.5726 12.7685 19.876 9.04378 24.8655 6.47379C29.855 3.90381 35.3863 2.56293 40.9988 2.5628C46.6113 2.56266 52.1426 3.90326 57.1322 6.473C62.1219 9.04274 66.4255 12.7672 69.6847 17.3364C72.9439 21.9056 75.0645 27.1873 75.8698 32.7417C76.6751 38.2961 76.1419 43.9626 74.3146 49.2693C75.1916 49.2238 76.0692 49.3435 76.902 49.6221C78.7697 43.9451 79.2646 37.906 78.3461 32.0006C77.4275 26.0952 75.1216 20.4918 71.6176 15.6504C68.1137 10.8089 63.5116 6.86732 58.1891 4.1492C52.8666 1.43108 46.9753 0.0138803 40.9989 0.013916C35.0225 0.0139517 29.1313 1.43122 23.8088 4.14941C18.4863 6.86759 13.8843 10.8092 10.3804 15.6507C6.87652 20.4922 4.5707 26.0957 3.65218 32.0011C2.73367 37.9065 3.22864 43.9455 5.09648 49.6225C5.92989 49.3448 6.80792 49.2256 7.68521 49.2709Z" fill="#007AFF"/>
<path d="M28.0215 17.9126C27.5345 17.2042 27.1346 16.4398 26.8303 15.6359C23.1398 17.9469 20.0949 21.1551 17.9797 24.9611C15.8645 28.7672 14.748 33.0471 14.7343 37.4015C14.734 41.5261 15.7345 45.5892 17.65 49.2421L20.1599 48.4978C18.2821 45.1008 17.297 41.2829 17.2968 37.4015C17.3095 33.5148 18.2982 29.6935 20.172 26.2884C22.0459 22.8832 24.7449 20.0032 28.0215 17.9126ZM64.3615 49.2454C66.2777 45.5921 67.2745 41.5268 67.2656 37.4015C67.252 33.0471 66.1355 28.7672 64.0203 24.9611C61.9051 21.1551 58.8601 17.9469 55.1696 15.6359C54.8653 16.4398 54.4654 17.2042 53.9785 17.9126C57.2551 20.0032 59.9541 22.8832 61.8279 26.2884C63.7018 29.6935 64.6904 33.5148 64.7031 37.4015C64.7115 41.2836 63.7298 45.1038 61.8507 48.5009L64.3615 49.2454ZM53.1718 12.5716C53.1812 11.4537 52.8485 10.3596 52.2183 9.43619C51.5881 8.51276 50.6906 7.80411 49.6462 7.40531C48.8068 7.06895 47.892 6.96631 46.9989 7.1083C46.1059 7.25029 45.268 7.63161 44.5743 8.21172C43.9886 7.49431 43.3211 6.84765 42.5856 6.28485C42.1254 5.94827 41.5701 5.76685 41 5.76685C40.4299 5.76685 39.8745 5.94827 39.4144 6.28485C38.6788 6.8477 38.0113 7.49442 37.4255 8.21189C36.7317 7.63218 35.8938 7.25111 35.0009 7.10911C34.1079 6.96711 33.1932 7.06948 32.3537 7.40534C31.3093 7.80416 30.4118 8.5128 29.7817 9.43623C29.1515 10.3597 28.8188 11.4537 28.8281 12.5716C28.8281 15.4415 30.9311 17.8542 33.1168 19.469C35.432 21.1794 38.2709 22.4394 41.1808 22.4116C44.143 22.3833 47.1303 20.9002 49.4004 19.0698C51.3655 17.4854 53.1718 15.2163 53.1718 12.5716ZM31.3906 12.5716C31.3788 11.9717 31.5533 11.3828 31.89 10.8861C32.2268 10.3895 32.7092 10.0094 33.2709 9.79826C33.7281 9.60305 34.2343 9.55339 34.7207 9.65604C35.2071 9.75868 35.6501 10.0087 35.9895 10.372C36.0073 10.3918 36.0285 10.4061 36.0472 10.4245C35.4538 11.7048 35.1782 13.1093 35.2438 14.5189C35.3095 15.9284 35.7144 17.3013 36.4243 18.5208C33.7867 17.1273 31.3906 14.8557 31.3906 12.5716ZM41.0528 19.8518C41.0208 19.8609 40.9871 19.8617 40.9546 19.8543C38.9183 18.2897 37.7968 16.2452 37.7968 14.0937C37.7968 11.9366 38.9242 9.88649 40.9471 8.3356C40.9712 8.3256 41.0288 8.3256 41.0285 8.32059C43.0757 9.88649 44.2031 11.9366 44.2031 14.0937C44.2031 16.2508 43.0757 18.3009 41.0528 19.8518ZM45.5757 18.5208C46.2855 17.3013 46.6905 15.9284 46.7561 14.5188C46.8218 13.1093 46.5462 11.7047 45.9527 10.4245C45.9714 10.4061 45.9927 10.3917 46.0105 10.3719C46.3496 10.0083 46.7926 9.75814 47.2791 9.65548C47.7656 9.55281 48.2719 9.60267 48.7291 9.79826C49.2908 10.0094 49.7732 10.3895 50.1099 10.8861C50.4466 11.3828 50.6211 11.9717 50.6093 12.5716C50.6093 14.8557 48.2133 17.1273 45.5757 18.5208ZM77.8494 53.1036C77.3962 52.6683 76.8586 52.3305 76.2697 52.1112C75.6808 51.8919 75.0532 51.7957 74.4257 51.8287L67.0444 52.1928C66.0441 52.2434 65.0425 52.1228 64.0828 51.8362L55.7644 49.3694C55.4145 49.2594 55.0704 49.1318 54.7334 48.9871C53.2359 48.3614 51.669 47.9169 50.066 47.6631C49.4806 48.5416 48.7716 49.3311 47.9608 50.0072C49.9508 50.1281 51.9063 50.5827 53.7455 51.3519C54.1669 51.5323 54.5975 51.6904 55.0355 51.8255L63.3546 54.2929C64.5919 54.6587 65.8819 54.8142 67.1708 54.7528C67.1708 54.7528 74.5503 54.3885 74.5611 54.388C75.1694 54.431 75.7408 54.6958 76.1668 55.1321C76.5929 55.5684 76.8439 56.146 76.8724 56.7551C76.9008 57.3643 76.7046 57.9627 76.3211 58.4368C75.9375 58.911 75.3933 59.2278 74.7917 59.3272L66.6984 59.7283C65.8538 59.7716 65.0073 59.6924 64.1854 59.493L54.0587 57.0575C53.8703 57.0121 53.6741 57.01 53.4848 57.0515C53.2955 57.0929 53.1181 57.1767 52.9659 57.2966C52.8137 57.4165 52.6907 57.5694 52.6061 57.7438C52.5216 57.9181 52.4777 58.1093 52.4777 58.3031V79.4375H29.5222V58.3031C29.5223 58.1093 29.4784 57.9181 29.3938 57.7438C29.3093 57.5694 29.1863 57.4165 29.0341 57.2966C28.8819 57.1767 28.7045 57.0929 28.5152 57.0515C28.3259 57.01 28.1297 57.0121 27.9413 57.0575L17.8149 59.493C16.9926 59.6901 16.1466 59.7695 15.3021 59.7289L7.21733 59.3272C6.61982 59.2586 6.07089 58.965 5.68219 58.5061C5.29349 58.0471 5.09424 57.4574 5.12497 56.8567C5.12497 55.6314 6.11858 54.2976 7.44788 54.3886L14.8292 54.7528C16.118 54.814 17.408 54.6583 18.6454 54.2923L26.965 51.8255C27.4028 51.6903 27.8332 51.5322 28.2544 51.3519C30.0937 50.5827 32.0492 50.1281 34.0392 50.0072C33.2283 49.3311 32.5193 48.5416 31.934 47.6631C30.331 47.9169 28.7641 48.3614 27.2666 48.9871C26.9299 49.1318 26.586 49.2592 26.2362 49.3688L17.9171 51.8355C16.9573 52.1217 15.9559 52.2425 14.9555 52.1928L7.58331 51.8293C4.79496 51.6918 2.56247 54.1533 2.56247 56.8592C2.53211 58.1154 2.98315 59.3358 3.82324 60.2703C4.66332 61.2048 5.82888 61.7828 7.08126 61.886L15.1757 62.2882C16.2641 62.3409 17.3544 62.2385 18.4139 61.9842L26.9597 59.9291V80.7187C26.9597 81.0585 27.0947 81.3844 27.335 81.6247C27.5753 81.865 27.9012 82 28.241 82H53.759C54.0988 82 54.4247 81.865 54.6649 81.6247C54.9052 81.3844 55.0402 81.0585 55.0402 80.7187V59.9291L63.5864 61.9842C64.6459 62.2392 65.7364 62.3414 66.8248 62.2876L74.9278 61.8859C76.1789 61.7806 77.3426 61.2013 78.1809 60.2665C79.0192 59.3317 79.4687 58.1119 79.4375 56.8567C79.4407 56.1562 79.3016 55.4623 79.0286 54.8172C78.7556 54.172 78.3544 53.5891 77.8494 53.1036Z" fill="#007AFF"/>
<path d="M32.6719 41.6406C32.6719 43.2878 33.1603 44.8979 34.0754 46.2675C34.9905 47.637 36.2912 48.7045 37.813 49.3348C39.3347 49.9651 41.0092 50.1301 42.6247 49.8087C44.2402 49.4874 45.7242 48.6942 46.8889 47.5295C48.0536 46.3648 48.8468 44.8809 49.1681 43.2654C49.4894 41.6499 49.3245 39.9754 48.6942 38.4536C48.0639 36.9318 46.9964 35.6311 45.6269 34.716C44.2573 33.8009 42.6471 33.3125 41 33.3125C38.792 33.315 36.6752 34.1932 35.1139 35.7545C33.5526 37.3158 32.6744 39.4326 32.6719 41.6406ZM46.7656 41.6406C46.7656 42.781 46.4275 43.8957 45.7939 44.8438C45.1604 45.792 44.2599 46.531 43.2064 46.9674C42.1529 47.4038 40.9936 47.5179 39.8752 47.2955C38.7568 47.073 37.7294 46.5239 36.9231 45.7175C36.1168 44.9112 35.5676 43.8839 35.3452 42.7654C35.1227 41.647 35.2369 40.4877 35.6733 39.4342C36.1096 38.3807 36.8486 37.4802 37.7968 36.8467C38.7449 36.2131 39.8597 35.875 41 35.875C42.5286 35.8767 43.9941 36.4847 45.075 37.5656C46.1559 38.6465 46.7639 40.112 46.7656 41.6406Z" fill="#007AFF"/>
</g>
<defs>
<clipPath id="clip0_224_2376">
<rect width="82" height="82" fill="white"/>
</clipPath>
</defs>
</svg>
