<svg width="82" height="82" viewBox="0 0 82 82" fill="none" xmlns="http://www.w3.org/2000/svg">
<g clip-path="url(#clip0_224_2327)">
<path d="M50.4649 43.9864C50.3082 43.9938 50.1511 43.9895 49.9951 43.9736L53.9289 46.2164H56.2117C56.0076 45.7717 55.7169 45.3722 55.3566 45.0412C53.6868 43.5306 51.0486 43.885 50.4649 43.9864ZM24.4758 43.2306C24.5745 44.2334 24.7272 45.2301 24.9331 46.2164H26.9764L24.4758 43.2306ZM24.8781 34.8662C25.1186 34.8167 25.3633 34.7904 25.6088 34.7877H27.5188C27.7929 33.5716 28.1555 32.3772 28.6036 31.2139C28.9076 31.352 29.2358 31.4294 29.5695 31.4416C29.602 31.4429 29.6346 31.4435 29.6671 31.4435C31.2968 31.4435 32.7489 29.9853 33.8368 28.7052C34.631 27.8892 35.6003 27.2645 36.6715 26.8784C36.8647 26.7905 37.0593 26.702 37.2539 26.6107C37.9559 26.3385 38.5948 25.9257 39.1314 25.3975C39.6681 24.8694 40.0911 24.2371 40.3744 23.5395C40.6892 22.461 40.7198 21.3193 40.4633 20.2254C40.4395 20.088 40.4169 19.9104 40.3913 19.7114C40.3254 19.0926 40.215 18.4792 40.061 17.8762C42.9929 16.1954 46.2221 15.0974 49.5709 14.6424C49.574 14.7779 49.5728 15.1342 49.5728 15.1342C49.5772 15.8464 49.5609 16.3669 49.3038 16.5775C48.9839 16.794 48.6337 16.962 48.2646 17.0761C48.0157 17.1696 47.7685 17.2637 47.5302 17.3717C46.34 17.8465 45.2461 18.534 44.302 19.4005C43.256 20.4522 43.3479 21.3665 43.6101 21.9483C43.736 22.2275 43.9578 22.4524 44.2352 22.5822C44.5126 22.712 44.8273 22.7383 45.1224 22.6561C45.4174 22.5739 45.6733 22.3889 45.8437 22.1343C46.0141 21.8798 46.0877 21.5727 46.0512 21.2686C46.0719 21.2458 46.0975 21.2195 46.1288 21.1882C46.8584 20.5512 47.6922 20.0446 48.5937 19.6905C48.7801 19.606 48.9753 19.5335 49.1711 19.4603C49.8051 19.2562 50.4003 18.9469 50.9316 18.5453C52.151 17.5493 52.1415 16.0861 52.1353 15.1163C52.1353 15.1163 52.1334 14.6284 52.124 14.4209C52.4662 14.4078 52.8097 14.3988 53.1556 14.3988C55.4756 14.3989 57.7854 14.7046 60.0254 15.3081C59.801 16.3167 59.804 17.3626 60.0342 18.3698L60.0706 18.5822C60.1996 19.097 60.2306 19.6315 60.1618 20.1578L60.1237 20.1609C58.9726 20.0746 54.161 19.9063 53.7637 23.0247L53.7669 23.025C53.7575 23.0848 53.75 23.147 53.7462 23.2127C53.7688 23.7332 53.6446 24.2496 53.3877 24.7029C53.2607 24.7841 53.1286 24.8572 52.9923 24.9218C52.4575 25.1412 51.9933 25.5034 51.6504 25.9688C51.3783 26.4002 50.5481 27.7124 51.2388 28.9036C52.0271 30.263 53.9295 30.1945 56.3369 30.1059C58.3238 30.0346 61.0408 29.9352 61.9968 30.9205C62.1792 31.1313 62.3115 31.3806 62.384 31.6498C62.4565 31.9189 62.4672 32.201 62.4153 32.4748C62.3615 32.5912 62.0187 32.8615 60.962 32.8058L60.8282 32.7995C59.6081 32.7939 58.3907 32.6872 57.1883 32.4805C54.9336 31.8083 52.1278 30.9715 49.1893 31.7088C47.5862 32.1337 46.1464 33.0273 45.0542 34.2753C43.962 35.5233 43.267 37.0688 43.0583 38.714C43.0166 39.1389 43.0013 39.566 43.0126 39.9928L45.9342 41.6581C45.5768 40.8085 45.4639 39.8759 45.6083 38.9655C45.7637 37.8433 46.2453 36.7915 46.9934 35.9407C47.7415 35.0899 48.723 34.4776 49.8161 34.1799C51.9032 33.6563 53.9683 34.1812 56.4508 34.9213C57.8521 35.193 59.2756 35.3348 60.703 35.3448L60.8319 35.3514C61.406 35.4216 61.9884 35.3772 62.5452 35.2207C63.102 35.0642 63.6222 34.7987 64.0757 34.4396C64.5826 33.9975 64.9017 33.3785 64.9678 32.7091C65.0507 32.0698 64.9928 31.4201 64.7982 30.8055C64.6035 30.1909 64.2769 29.6263 63.8411 29.1513C62.0906 27.3464 58.8475 27.4643 56.2436 27.5594C55.3918 27.6106 54.5376 27.6079 53.6861 27.5513C53.7112 27.5059 53.7406 27.4556 53.7738 27.3996C53.8607 27.342 54.0359 27.2535 54.1573 27.1916C54.5759 27.009 54.9557 26.7478 55.2759 26.422C55.9372 25.5345 56.2978 24.459 56.305 23.3522L56.3062 23.345C56.3513 22.9893 58.0542 22.552 59.9848 22.7065C60.0142 22.709 60.0442 22.7103 60.0736 22.711C60.1606 22.7119 60.2495 22.7103 60.3183 22.705C60.6688 22.6964 61.0134 22.612 61.3283 22.4577C61.6432 22.3034 61.9209 22.0828 62.1425 21.811C63.024 20.7134 62.7469 19.0552 62.598 18.165L62.5605 17.9425C62.407 17.3378 62.3726 16.709 62.4591 16.0911C66.1275 17.4708 69.4405 19.6544 72.155 22.4814C74.8695 25.3085 76.9167 28.7074 78.1463 32.4289C77.9167 32.493 77.6915 32.5599 77.4813 32.6262C76.7538 32.9359 75.9549 33.0386 75.1728 32.9231C74.8567 32.8129 74.5596 32.6545 74.2919 32.4536C73.6607 31.9699 72.9099 31.6669 72.1197 31.5768C71.6444 31.5481 71.169 31.6311 70.7314 31.819C70.2939 32.007 69.9064 32.2947 69.5998 32.6591C69.2948 33.0156 69.0779 33.4389 68.9668 33.8948C68.8558 34.3507 68.8536 34.8263 68.9604 35.2832C69.0916 35.6879 69.2621 36.0787 69.4697 36.45C69.2248 36.4017 68.9827 36.34 68.7446 36.2651C68.0647 35.9705 67.3124 35.8852 66.5837 36.0199C66.1816 36.1095 65.8055 36.2904 65.4845 36.5486C65.1635 36.8069 64.9062 37.1355 64.7326 37.5091C64.5342 37.9741 64.4411 38.4772 64.4601 38.9823C64.479 39.4875 64.6094 39.9822 64.8421 40.431C65.1326 40.9985 65.5344 41.5017 66.0234 41.9107C66.5124 42.3197 67.0787 42.6261 67.6886 42.8118C68.0667 42.9498 68.4296 43.1264 68.7715 43.3389C68.6508 43.5353 66.7033 46.0193 66.5506 46.2164H69.785C69.8338 46.1491 70.141 45.7453 70.263 45.5982C70.7991 44.9501 71.5336 44.0627 71.3865 42.9498C71.3358 42.6166 71.2148 42.2981 71.0317 42.0152C70.8485 41.7323 70.6074 41.4915 70.3243 41.3087C69.8052 40.956 69.2449 40.6681 68.6558 40.4517C67.8963 40.1439 67.479 39.9746 67.1331 39.2893C66.7614 38.5533 67.3351 38.4772 67.9076 38.674C68.3005 38.8248 68.7104 38.9271 69.1281 38.9787C69.5819 39.0667 70.0501 39.045 70.4938 38.9154C70.9375 38.7857 71.3438 38.5519 71.6787 38.2333C72.7135 37.0534 72.0084 35.7596 71.6687 35.1371C71.0206 33.9466 72.1761 34.1211 72.8874 34.5853C73.413 34.9706 74.007 35.2525 74.6378 35.4158C75.8542 35.6315 77.1065 35.5067 78.2564 35.0552C78.451 34.9935 78.6349 34.9379 78.8157 34.8865C79.8086 39.3845 79.5773 44.0664 78.1457 48.4445C78.5934 48.7409 79.0168 49.0725 79.4119 49.4361C79.7216 49.6125 80.0225 49.8058 80.3178 50.0066C81.4218 46.9349 81.9855 43.6952 81.9838 40.431C81.917 33.3105 79.2193 26.4662 74.4099 21.215C69.6004 15.9638 63.0189 12.6767 55.9317 11.9861C48.8444 11.2954 41.7521 13.2501 36.0193 17.474C30.2866 21.6979 26.3183 27.8926 24.8781 34.8662ZM37.7562 19.3627C37.7969 19.6226 37.8282 19.8697 37.8495 20.0349C37.8808 20.2748 37.9089 20.4888 37.9371 20.6524C38.1088 21.3238 38.1148 22.0269 37.9546 22.7012C37.7313 23.3425 37.1957 23.822 36.1628 24.3044C35.9764 24.3923 35.79 24.4767 35.6054 24.5609C34.1861 25.0921 32.9106 25.9475 31.8805 27.0589C30.2739 28.9489 29.6971 28.8945 29.6703 28.8979C29.6579 28.8907 29.6466 28.882 29.6364 28.872C31.5381 25.0948 34.3237 21.8326 37.7562 19.3627ZM28.8119 53.2654C28.473 53.2645 28.1476 53.3983 27.9073 53.6373C27.6671 53.8763 27.5316 54.2009 27.5306 54.5398V55.8138C27.5306 56.1537 27.6656 56.4795 27.9059 56.7198C28.1462 56.9601 28.4721 57.0951 28.8119 57.0951C29.1517 57.0951 29.4776 56.9601 29.7179 56.7198C29.9582 56.4795 30.0931 56.1537 30.0931 55.8138V54.5398C30.0922 54.2009 29.9567 53.8763 29.7164 53.6373C29.4762 53.3983 29.1508 53.2645 28.8119 53.2654ZM26.5847 18.3366C26.7386 18.2087 26.8936 18.0844 27.0495 17.9638C27.1821 17.8614 27.2931 17.7338 27.3762 17.5883C27.4593 17.4428 27.5127 17.2824 27.5335 17.1161C27.5542 16.9499 27.5419 16.7812 27.4972 16.6198C27.4525 16.4583 27.3762 16.3073 27.2729 16.1755C27.0632 15.9084 26.7564 15.7352 26.4194 15.6935C26.0824 15.6519 25.7426 15.7453 25.4742 15.9534C25.296 16.0914 25.1185 16.2337 24.9419 16.3804C24.8109 16.4859 24.7025 16.6167 24.6232 16.765C24.5438 16.9133 24.4952 17.0761 24.48 17.2436C24.4649 17.4111 24.4837 17.58 24.5352 17.7401C24.5867 17.9002 24.6699 18.0483 24.7799 18.1756C25.0079 18.4202 25.3183 18.572 25.6514 18.6017C25.9846 18.6314 26.3169 18.537 26.5847 18.3366ZM21.1857 22.6515C21.4668 22.8399 21.8104 22.9109 22.1432 22.8495C22.4759 22.7881 22.7715 22.599 22.9668 22.3227C23.0813 22.1566 23.1979 21.9929 23.3165 21.8316C23.4156 21.6965 23.4869 21.5431 23.5264 21.3803C23.5659 21.2176 23.5728 21.0485 23.5467 20.8831C23.5206 20.7176 23.462 20.5589 23.3743 20.4162C23.2866 20.2735 23.1715 20.1495 23.0356 20.0515C22.7609 19.8523 22.4185 19.7699 22.0831 19.8222C21.7478 19.8745 21.4468 20.0574 21.2458 20.3308C21.1138 20.5113 20.9834 20.6943 20.8548 20.8798C20.7595 21.0176 20.6924 21.1729 20.6574 21.3368C20.6225 21.5007 20.6203 21.6699 20.6511 21.8346C20.6819 21.9993 20.7449 22.1563 20.8367 22.2965C20.9285 22.4367 21.0471 22.5574 21.1857 22.6515ZM18.8071 27.8691C19.1251 27.9846 19.4757 27.9711 19.7838 27.8314C20.0919 27.6916 20.3331 27.4368 20.4556 27.1215C20.527 26.9319 20.6006 26.7439 20.6765 26.5575C20.8013 26.2426 20.7961 25.891 20.6622 25.5798C20.5283 25.2686 20.2766 25.0232 19.9621 24.8972C19.6475 24.7713 19.296 24.7751 18.9843 24.9079C18.6726 25.0407 18.4262 25.2916 18.2992 25.6056C18.216 25.8118 18.1348 26.0197 18.0558 26.2294C17.997 26.3864 17.9698 26.5534 17.9757 26.7209C17.9817 26.8884 18.0207 27.0531 18.0905 27.2055C18.1603 27.3578 18.2596 27.4949 18.3826 27.6088C18.5056 27.7227 18.6498 27.8111 18.8071 27.8691ZM17.7842 33.4661C17.9492 33.4957 18.1185 33.4905 18.2814 33.4508C18.4442 33.411 18.5969 33.3377 18.7297 33.2355C18.8625 33.1332 18.9725 33.0043 19.0525 32.857C19.1325 32.7098 19.1808 32.5474 19.1944 32.3804C19.2169 32.1802 19.242 31.981 19.2695 31.7829C19.3145 31.4472 19.2247 31.1074 19.0198 30.8378C18.8148 30.5681 18.5115 30.3906 18.176 30.344C17.8406 30.2975 17.5003 30.3856 17.2297 30.5893C16.9591 30.7929 16.7802 31.0955 16.732 31.4307C16.7007 31.6522 16.6732 31.8743 16.6482 32.0979C16.6274 32.2633 16.6408 32.4312 16.6875 32.5912C16.7342 32.7512 16.8133 32.8999 16.9198 33.0281C17.0262 33.1564 17.1579 33.2614 17.3066 33.3367C17.4553 33.4121 17.6179 33.4561 17.7842 33.4661ZM29.0759 14.0788L30.3653 14.1351L29.7484 15.4538C29.6775 15.6057 29.6374 15.7701 29.6303 15.9376C29.6231 16.1051 29.6492 16.2723 29.7069 16.4296C29.7647 16.587 29.853 16.7314 29.9667 16.8545C30.0804 16.9776 30.2174 17.0771 30.3697 17.1471C30.6779 17.2866 31.0285 17.3001 31.3466 17.1847C31.6646 17.0692 31.925 16.8341 32.072 16.5293L33.4971 13.4829C33.5857 13.2925 33.6258 13.0833 33.614 12.8737C33.6022 12.6641 33.5387 12.4607 33.4293 12.2815C33.32 12.1023 33.168 11.953 32.9869 11.8467C32.8059 11.7404 32.6014 11.6805 32.3916 11.6723L29.1885 11.5326C29.0208 11.5243 28.8531 11.5492 28.6951 11.6059C28.537 11.6626 28.3918 11.75 28.2676 11.8631C28.1434 11.9761 28.0429 12.1126 27.9716 12.2646C27.9004 12.4167 27.8599 12.5813 27.8524 12.7491C27.845 12.9168 27.8708 13.0844 27.9284 13.2421C27.9859 13.3999 28.0741 13.5447 28.1878 13.6682C28.3015 13.7918 28.4384 13.8917 28.5909 13.9622C28.7433 14.0326 28.9081 14.0722 29.0759 14.0788Z" fill="#007AFF"/>
<path d="M77.8561 51.5008C75.8579 48.8207 72.0029 48.7932 71.8452 48.7741C71.794 48.7682 53.2421 48.7651 53.2421 48.7651L33.4991 37.505C33.3052 37.3945 33.0859 37.3365 32.8628 37.3364H25.6151C25.3723 37.3349 25.134 37.4028 24.9285 37.5323C24.7231 37.6617 24.5589 37.8472 24.4554 38.0669C24.3519 38.2867 24.3135 38.5314 24.3446 38.7723C24.3757 39.0131 24.4751 39.2401 24.631 39.4263L32.4474 48.7651H19.1538L6.20304 33.9516C6.08264 33.8138 5.93415 33.7034 5.76754 33.6278C5.60093 33.5522 5.42007 33.5132 5.23711 33.5133H1.28075C1.07616 33.5133 0.874548 33.5623 0.692707 33.656C0.510867 33.7498 0.354065 33.8856 0.235367 34.0523C0.116784 34.2184 0.0401662 34.4108 0.0120546 34.613C-0.016057 34.8152 0.00517187 35.0212 0.0739292 35.2134L5.53679 50.558V50.838L2.57262 51.3929C2.28001 51.4472 2.01559 51.602 1.82513 51.8307C1.63468 52.0594 1.53019 52.3475 1.52975 52.6451V55.0108C1.53025 55.293 1.62429 55.5671 1.79714 55.7901C1.96999 56.0132 2.21191 56.1727 2.48505 56.2436L8.51781 57.8173L3.85266 60.439C3.6065 60.5771 3.41321 60.793 3.30314 61.0529C3.19308 61.3128 3.17249 61.6019 3.2446 61.8748C3.31672 62.1477 3.47745 62.3889 3.70155 62.5605C3.92565 62.7321 4.2004 62.8243 4.48265 62.8228H11.4069C11.5646 62.8229 11.7209 62.7939 11.868 62.7371L18.1385 60.3267L21.284 61.1471C22.1754 61.3846 23.091 61.5192 24.0129 61.5485C24.307 61.5485 31.5065 61.4812 31.5065 61.4812L24.7074 68.2963C24.5289 68.4741 24.4073 68.701 24.3582 68.9481C24.3091 69.1952 24.3346 69.4513 24.4314 69.6839C24.5297 69.9166 24.6944 70.1152 24.905 70.2547C25.1155 70.3943 25.3625 70.4688 25.6151 70.4687H32.9792C33.1738 70.4685 33.3658 70.4244 33.5409 70.3395L51.7806 61.4812C51.7806 61.4812 72.2606 61.4787 72.3069 61.4734C79.5671 60.6711 81.332 58.5849 81.6122 58.1749C82.2391 57.2577 82.0283 55.8548 81.5297 54.9326C80.8181 53.6923 79.7992 52.656 78.5712 51.9235C78.3604 51.7914 78.0037 51.6989 77.8561 51.5008ZM28.3478 39.8848H32.5212L48.0908 48.7651H35.7819L28.3478 39.8848ZM79.3957 56.8123C78.919 57.1989 77.106 58.3697 72.0955 58.9325H56.9958C57.1882 58.8225 57.3484 58.6639 57.4604 58.4726C57.5724 58.2813 57.6322 58.064 57.6338 57.8423V55.1769C57.632 54.8384 57.4962 54.5144 57.2562 54.2757C57.0162 54.037 56.6914 53.903 56.3529 53.903C56.0144 53.903 55.6896 54.037 55.4496 54.2757C55.2096 54.5144 55.0738 54.8384 55.072 55.1769V57.0463L32.6826 67.92H28.6906L37.4091 59.1815C37.5272 59.0636 37.621 58.9237 37.685 58.7696C37.749 58.6155 37.7819 58.4502 37.782 58.2834V55.1769C37.7805 54.8383 37.6449 54.514 37.4049 54.2751C37.1649 54.0362 36.84 53.902 36.5014 53.902C36.1627 53.902 35.8378 54.0362 35.5978 54.2751C35.3578 54.514 35.2222 54.8383 35.2207 55.1769V57.7585L34.0483 58.9325C34.0483 58.9325 24.3577 58.9516 24.2369 58.9881C23.4974 58.9592 22.7619 58.8648 22.0391 58.706C22.2136 58.5322 22.3337 58.3114 22.3848 58.0705C22.4359 57.8296 22.4158 57.579 22.3269 57.3494C22.2026 57.0342 21.9589 56.7808 21.6489 56.6443C21.3388 56.5077 20.9874 56.4989 20.6709 56.6199L11.1685 60.2741H9.35428L14.1821 57.5605C14.3284 57.4789 14.4572 57.3691 14.5609 57.2374C14.6646 57.1058 14.7412 56.9549 14.7863 56.7935C14.8314 56.6322 14.8442 56.4634 14.8238 56.2971C14.8034 56.1308 14.7503 55.9701 14.6676 55.8244C14.4996 55.5297 14.2217 55.3135 13.8948 55.223C13.5678 55.1326 13.2183 55.1753 12.9228 55.3418L11.7197 56.0178L4.09097 54.0273V53.702L7.05514 53.1471C7.34794 53.0931 7.6126 52.9384 7.8032 52.7096C7.99381 52.4809 8.09834 52.1927 8.09865 51.895V50.3391C8.09924 50.1939 8.07426 50.0498 8.02485 49.9134L3.09313 36.062H4.6528L17.6042 50.8755C17.7247 51.0133 17.8733 51.1237 18.04 51.1993C18.2068 51.2748 18.3877 51.3139 18.5708 51.3138H71.6025C72.882 51.5121 74.1103 51.9586 75.2185 52.6282H74.9232C74.7554 52.6275 74.5891 52.6599 74.4338 52.7236C74.2785 52.7873 74.1373 52.881 74.0184 52.9994C73.8995 53.1178 73.8051 53.2586 73.7407 53.4136C73.6763 53.5686 73.6431 53.7347 73.6431 53.9026C73.6431 54.0704 73.6763 54.2366 73.7407 54.3916C73.8051 54.5466 73.8995 54.6873 74.0184 54.8057C74.1373 54.9241 74.2785 55.0179 74.4338 55.0816C74.5891 55.1453 74.7554 55.1777 74.9232 55.1769H78.5618C78.8089 55.3747 79.011 55.6228 79.1548 55.9048C79.2986 56.1868 79.3808 56.4961 79.3957 56.8123Z" fill="#007AFF"/>
</g>
<defs>
<clipPath id="clip0_224_2327">
<rect width="82" height="82" fill="white"/>
</clipPath>
</defs>
</svg>
