<svg width="25" height="25" viewBox="0 0 25 25" fill="none" xmlns="http://www.w3.org/2000/svg">
<g clip-path="url(#clip0_268_1088)">
<path d="M22.7252 2.2736C22.5002 2.04863 22.195 1.92226 21.8768 1.92226C21.5586 1.92226 21.2534 2.04863 21.0284 2.2736L2.276 21.0284C2.16139 21.1391 2.06997 21.2715 2.00708 21.4179C1.94419 21.5643 1.91108 21.7218 1.9097 21.8811C1.90831 22.0405 1.93868 22.1985 1.99901 22.3459C2.05935 22.4934 2.14845 22.6274 2.26113 22.7401C2.3738 22.8527 2.50778 22.9418 2.65526 23.0022C2.80273 23.0625 2.96075 23.0929 3.12008 23.0915C3.27942 23.0901 3.43688 23.057 3.58329 22.9941C3.72969 22.9312 3.8621 22.8398 3.9728 22.7252L22.724 3.9704C22.949 3.74537 23.0753 3.4402 23.0753 3.122C23.0753 2.8038 22.9502 2.49863 22.7252 2.2736ZM4.2296 16.6976L7.3016 13.6256C7.21401 13.2567 7.16852 12.8791 7.166 12.5C7.166 9.6452 9.554 7.3292 12.5 7.3292C12.8432 7.3292 13.1768 7.3676 13.502 7.4276L14.9456 5.9852C14.1372 5.85128 13.3194 5.78306 12.5 5.7812C4.628 5.78 0.5 11.5772 0.5 12.5C0.5 13.0076 1.7684 15.0092 4.2296 16.6976ZM20.774 8.306L17.6996 11.378C17.7824 11.7404 17.8328 12.1136 17.8328 12.5C17.8328 15.3548 15.446 17.6684 12.5 17.6684C12.1592 17.6684 11.828 17.63 11.5052 17.5712L10.0604 19.0148C10.8308 19.1396 11.6396 19.2188 12.5 19.2188C20.372 19.2188 24.5 13.4192 24.5 12.5C24.5 11.9912 23.2328 9.992 20.774 8.306Z" fill="#7F8194"/>
</g>
<defs>
<clipPath id="clip0_268_1088">
<rect width="24" height="24" fill="white" transform="translate(0.5 0.5)"/>
</clipPath>
</defs>
</svg>
