<svg width="24" height="24" viewBox="0 0 24 24" fill="none" xmlns="http://www.w3.org/2000/svg">
<g clip-path="url(#clip0_558_299)">
<path d="M12.0586 15.2325C12.4831 15.2325 12.9034 15.1489 13.2956 14.9864C13.6878 14.824 14.0442 14.5859 14.3443 14.2857C14.6445 13.9856 14.8826 13.6292 15.045 13.237C15.2075 12.8448 15.2911 12.4245 15.2911 12C15.2911 11.6344 14.8702 11.4675 14.512 11.5397C14.384 11.5661 14.2537 11.5793 14.123 11.5791C13.819 11.5788 13.5193 11.5075 13.2478 11.371C12.9762 11.2344 12.7403 11.0363 12.5589 10.7925C12.3774 10.5487 12.2554 10.2658 12.2026 9.9665C12.1497 9.66718 12.1675 9.35966 12.2545 9.06843C12.2665 9.03565 12.2708 9.00052 12.2668 8.96582C12.2629 8.93113 12.251 8.89782 12.232 8.86853C12.213 8.83925 12.1874 8.81479 12.1573 8.79709C12.1272 8.77939 12.0934 8.76893 12.0586 8.76656C11.2008 8.76656 10.3781 9.10732 9.77155 9.71388C9.16498 10.3204 8.82422 11.1431 8.82422 12.0009C8.82422 12.8587 9.16498 13.6814 9.77155 14.288C10.3781 14.8945 11.2008 15.2353 12.0586 15.2353V15.2325Z" fill="#7F8194"/>
<path fill-rule="evenodd" clip-rule="evenodd" d="M22.2602 12.9375C22.4344 12.6561 22.5272 12.3318 22.5282 12.0008C22.5292 11.6698 22.4384 11.345 22.2658 11.0625C21.0358 9.03093 17.6252 4.41562 12.0592 4.41562C6.49331 4.41562 3.08269 9.03093 1.85175 11.0625C1.67951 11.3451 1.58886 11.6698 1.58985 12.0008C1.59084 12.3317 1.68344 12.6559 1.85737 12.9375C3.1005 14.9653 6.53737 19.5853 12.0592 19.5853C17.5811 19.5853 21.0171 14.9644 22.2602 12.9375ZM12.0592 17.1075C13.0696 17.1075 14.0573 16.8079 14.8974 16.2465C15.7375 15.6851 16.3923 14.8873 16.7789 13.9538C17.1655 13.0203 17.2666 11.9931 17.0695 11.0021C16.8723 10.0111 16.3856 9.1009 15.6711 8.38651C14.9566 7.67212 14.0463 7.18567 13.0553 6.98866C12.0643 6.79166 11.0371 6.89296 10.1037 7.27974C9.17026 7.66653 8.37249 8.32144 7.81128 9.16164C7.25007 10.0018 6.95062 10.9896 6.95081 12C6.95081 12.6708 7.08295 13.335 7.33969 13.9548C7.59642 14.5745 7.97272 15.1376 8.44709 15.6119C8.92147 16.0862 9.48463 16.4624 10.1044 16.719C10.7242 16.9756 11.3884 17.1076 12.0592 17.1075Z" fill="#7F8194"/>
</g>
<defs>
<clipPath id="clip0_558_299">
<rect width="24" height="24" fill="white"/>
</clipPath>
</defs>
</svg>
