<svg width="46" height="46" viewBox="0 0 46 46" fill="none" xmlns="http://www.w3.org/2000/svg">
<g clip-path="url(#clip0_147_1492)">
<path d="M45.5752 22.6328C45.5752 10.2064 35.5016 0.132812 23.0752 0.132812C10.6488 0.132812 0.575195 10.2064 0.575195 22.6328C0.575195 33.8632 8.80312 43.1715 19.5596 44.8594V29.1367H13.8467V22.6328H19.5596V17.6758C19.5596 12.0367 22.9187 8.92188 28.0581 8.92188C30.5199 8.92188 33.0947 9.36133 33.0947 9.36133V14.8984H30.2575C27.4625 14.8984 26.5908 16.6328 26.5908 18.4122V22.6328H32.8311L31.8335 29.1367H26.5908V44.8594C37.3473 43.1715 45.5752 33.8632 45.5752 22.6328Z" fill="#1877F2"/>
<path d="M31.8335 29.1367L32.8311 22.6328H26.5908V18.4122C26.5908 16.6328 27.4625 14.8984 30.2575 14.8984H33.0947V9.36133C33.0947 9.36133 30.5199 8.92188 28.0581 8.92188C22.9187 8.92188 19.5596 12.0367 19.5596 17.6758V22.6328H13.8467V29.1367H19.5596V44.8594C21.8891 45.224 24.2612 45.224 26.5908 44.8594V29.1367H31.8335Z" fill="white"/>
</g>
<defs>
<clipPath id="clip0_147_1492">
<rect width="45" height="45" fill="white" transform="translate(0.575195 0.132812)"/>
</clipPath>
</defs>
</svg>
