<svg width="19" height="12" viewBox="0 0 19 12" fill="none" xmlns="http://www.w3.org/2000/svg">
<g clip-path="url(#clip0_147_1030)">
<path d="M6.4909 10.1713H1.01953C0.926291 10.1713 0.83687 10.1343 0.770939 10.0683C0.705008 10.0024 0.667969 9.91294 0.667969 9.81968V7.70315C0.668444 6.83509 0.9887 5.99764 1.56753 5.35086C2.14636 4.70407 2.94318 4.29331 3.80569 4.19706C4.6682 4.10082 5.53593 4.32585 6.24303 4.82914C6.95014 5.33244 7.44703 6.0787 7.63875 6.92531C7.65768 7.01571 7.6403 7.10993 7.59036 7.18761C7.54041 7.2653 7.46192 7.32021 7.37183 7.34048C7.28175 7.36076 7.1873 7.34477 7.10891 7.29597C7.03051 7.24717 6.97445 7.16948 6.95285 7.07969C6.79854 6.40246 6.40035 5.80576 5.83425 5.40345C5.26816 5.00114 4.57379 4.82137 3.88364 4.89846C3.1935 4.97555 2.55588 5.30409 2.09246 5.82139C1.62904 6.3387 1.37225 7.00855 1.37109 7.70315V9.46804H6.4909C6.58414 9.46804 6.67356 9.50508 6.73949 9.57103C6.80542 9.63697 6.84246 9.72642 6.84246 9.81968C6.84246 9.91294 6.80542 10.0024 6.73949 10.0683C6.67356 10.1343 6.58414 10.1713 6.4909 10.1713Z" fill="white"/>
<path d="M4.1966 4.87988C3.77835 4.8796 3.36958 4.75529 3.02195 4.52267C2.67433 4.29005 2.40346 3.95956 2.2436 3.57299C2.08374 3.18641 2.04205 2.7611 2.12382 2.35083C2.20559 1.94056 2.40713 1.56375 2.70297 1.26804C2.99882 0.972324 3.37568 0.770984 3.78591 0.689472C4.19614 0.60796 4.62132 0.649936 5.00771 0.810092C5.39409 0.970249 5.72433 1.2414 5.95666 1.58925C6.189 1.93711 6.31301 2.34606 6.31301 2.7644C6.31217 3.32545 6.08888 3.86325 5.69212 4.25984C5.29535 4.65643 4.75752 4.87941 4.1966 4.87988ZM4.1966 1.35221C3.91742 1.35249 3.64459 1.43555 3.41259 1.59089C3.18059 1.74623 2.99985 1.96688 2.8932 2.22495C2.78656 2.48302 2.7588 2.76692 2.81343 3.04077C2.86807 3.31461 3.00265 3.56611 3.20016 3.76347C3.39767 3.96083 3.64924 4.09519 3.92308 4.14956C4.19692 4.20394 4.48073 4.17589 4.73863 4.06896C4.99654 3.96204 5.21696 3.78103 5.37204 3.54883C5.52711 3.31663 5.60988 3.04365 5.60988 2.7644C5.60923 2.38982 5.46008 2.03079 5.19514 1.76605C4.9302 1.50132 4.5711 1.35249 4.1966 1.35221ZM12.845 11.5825H6.4909C6.39766 11.5825 6.30824 11.5455 6.24231 11.4795C6.17638 11.4136 6.13934 11.3241 6.13934 11.2309V9.10415C6.14036 8.17185 6.51108 7.27803 7.17017 6.6188C7.82926 5.95956 8.72287 5.58876 9.65496 5.58773H9.68098C10.6131 5.58876 11.5067 5.95956 12.1658 6.6188C12.8249 7.27803 13.1956 8.17185 13.1966 9.10415V11.2309C13.1966 11.3241 13.1596 11.4136 13.0936 11.4795C13.0277 11.5455 12.9383 11.5825 12.845 11.5825ZM6.84246 10.8792H12.4935V9.10415C12.4926 8.35832 12.1961 7.64327 11.6688 7.11589C11.1415 6.58851 10.4266 6.29185 9.68098 6.29102H9.65496C8.9093 6.29185 8.19441 6.58851 7.66715 7.11589C7.13988 7.64327 6.8433 8.35832 6.84246 9.10415V10.8792Z" fill="white"/>
<path d="M9.66792 6.29101C9.24967 6.29073 8.84089 6.16643 8.49327 5.93381C8.14564 5.70119 7.87478 5.3707 7.71491 4.98412C7.55505 4.59754 7.51337 4.17223 7.59513 3.76196C7.6769 3.3517 7.87844 2.97489 8.17429 2.67917C8.47013 2.38346 8.84699 2.18212 9.25722 2.10061C9.66745 2.01909 10.0926 2.06107 10.479 2.22123C10.8654 2.38138 11.1956 2.65253 11.428 3.00039C11.6603 3.34824 11.7843 3.75719 11.7843 4.17554C11.7835 4.73658 11.5602 5.27439 11.1634 5.67097C10.7667 6.06756 10.2288 6.29055 9.66792 6.29101ZM9.66792 2.76334C9.38873 2.76362 9.1159 2.84668 8.8839 3.00202C8.65191 3.15737 8.47116 3.37802 8.36452 3.63609C8.25787 3.89416 8.23011 4.17806 8.28475 4.4519C8.33938 4.72575 8.47396 4.97724 8.67147 5.1746C8.86898 5.37196 9.12056 5.50632 9.3944 5.5607C9.66823 5.61507 9.95204 5.58702 10.2099 5.4801C10.4679 5.37317 10.6883 5.19216 10.8434 4.95996C10.9984 4.72776 11.0812 4.45478 11.0812 4.17554C11.0805 3.80096 10.9314 3.44192 10.6665 3.17719C10.4015 2.91245 10.0424 2.76362 9.66792 2.76334ZM18.3164 10.1714H12.845C12.7517 10.1714 12.6623 10.1343 12.5964 10.0684C12.5305 10.0024 12.4934 9.913 12.4934 9.81974C12.4934 9.72647 12.5305 9.63703 12.5964 9.57109C12.6623 9.50514 12.7517 9.46809 12.845 9.46809H17.9648V7.7032C17.9647 7.33224 17.8915 6.96494 17.7494 6.62228C17.6073 6.27961 17.3991 5.9683 17.1367 5.70612C16.8744 5.44394 16.5629 5.23603 16.2202 5.09426C15.8775 4.95249 15.5102 4.87964 15.1393 4.87987C13.8294 4.87987 12.6703 5.80504 12.383 7.0801C12.3625 7.17107 12.3067 7.25017 12.2279 7.29999C12.1491 7.34981 12.0537 7.36628 11.9627 7.34576C11.8718 7.32524 11.7927 7.26943 11.7429 7.19059C11.6931 7.11175 11.6766 7.01635 11.6971 6.92537C11.8369 6.30989 12.139 5.74313 12.5721 5.28408C13.0052 4.82504 13.5533 4.4905 14.1596 4.31529C14.7658 4.14008 15.4079 4.1306 16.019 4.28784C16.6301 4.44509 17.1879 4.7633 17.6343 5.20936C17.9631 5.53592 18.2237 5.92452 18.4011 6.35261C18.5786 6.78071 18.6692 7.23978 18.6679 7.7032V9.81974C18.6679 9.913 18.6309 10.0024 18.5649 10.0684C18.499 10.1343 18.4096 10.1714 18.3164 10.1714Z" fill="white"/>
<path d="M15.1394 4.87988C14.7211 4.87953 14.3124 4.75517 13.9648 4.5225C13.6172 4.28984 13.3464 3.95933 13.1866 3.57274C13.0268 3.18616 12.9852 2.76086 13.067 2.35062C13.1488 1.94037 13.3504 1.56359 13.6462 1.26791C13.9421 0.972235 14.3189 0.77093 14.7292 0.689447C15.1394 0.607963 15.5645 0.649959 15.9509 0.810126C16.3373 0.970293 16.6675 1.24144 16.8998 1.58929C17.1321 1.93714 17.2561 2.34608 17.2561 2.7644C17.2553 3.32551 17.0319 3.86337 16.6351 4.25997C16.2383 4.65656 15.7003 4.87951 15.1394 4.87988ZM15.1394 1.35221C14.8602 1.35256 14.5874 1.43568 14.3554 1.59106C14.1235 1.74645 13.9428 1.96712 13.8362 2.2252C13.7296 2.48327 13.7019 2.76716 13.7566 3.04098C13.8113 3.31481 13.9459 3.56627 14.1434 3.76359C14.3409 3.96092 14.5925 4.09524 14.8663 4.14959C15.1402 4.20394 15.4239 4.17587 15.6818 4.06893C15.9397 3.96199 16.1601 3.78099 16.3152 3.54879C16.4702 3.3166 16.553 3.04363 16.553 2.7644C16.5523 2.38976 16.4031 2.03068 16.1381 1.76593C15.8731 1.50118 15.5139 1.3524 15.1394 1.35221Z" fill="white"/>
</g>
<defs>
<clipPath id="clip0_147_1030">
<rect width="18" height="10.9336" fill="white" transform="translate(0.667969 0.648926)"/>
</clipPath>
</defs>
</svg>
