<svg width="50" height="50" viewBox="0 0 50 50" fill="none" xmlns="http://www.w3.org/2000/svg">
<path d="M40.6249 7.8125H9.37489C8.34894 7.8125 7.33303 8.01458 6.38518 8.40719C5.43732 8.79981 4.57608 9.37527 3.85062 10.1007C2.38549 11.5659 1.56239 13.553 1.56239 15.625V32.4844C1.53862 34.1075 2.00443 35.7002 2.8991 37.0548C3.79377 38.4093 5.07579 39.4629 6.57801 40.0781C7.99451 40.6507 9.55189 40.778 11.0426 40.4431C12.5333 40.1081 13.8864 39.3267 14.9218 38.2031L21.5311 31.25H28.4686L35.078 38.2031C36.1121 39.3286 37.4653 40.1113 38.9565 40.4464C40.4477 40.7815 42.0056 40.653 43.4218 40.0781C44.924 39.4629 46.206 38.4093 47.1007 37.0548C47.9953 35.7002 48.4612 34.1075 48.4374 32.4844V15.625C48.4374 13.553 47.6143 11.5659 46.1492 10.1007C44.684 8.6356 42.6969 7.8125 40.6249 7.8125ZM45.3124 32.4844C45.3422 33.483 45.0664 34.4669 44.5219 35.3046C43.9775 36.1422 43.1902 36.7937 42.2655 37.1719C41.4298 37.5182 40.507 37.596 39.6251 37.3944C38.7432 37.1928 37.9459 36.7219 37.3436 36.0469L30.2811 28.6094C30.1341 28.4551 29.9571 28.3326 29.7609 28.2493C29.5647 28.166 29.3536 28.1237 29.1405 28.125H20.8593C20.6462 28.1237 20.435 28.166 20.2389 28.2493C20.0427 28.3326 19.8657 28.4551 19.7186 28.6094L12.6561 36.0469C12.0597 36.7058 11.2761 37.1667 10.4104 37.3677C9.54468 37.5688 8.63818 37.5005 7.81239 37.1719C6.88767 36.7937 6.10044 36.1422 5.55597 35.3046C5.01149 34.4669 4.73572 33.483 4.76551 32.4844V15.625C4.76534 14.3952 5.24847 13.2146 6.11072 12.3378C6.97297 11.4609 8.14528 10.958 9.37489 10.9375H40.6249C41.8681 10.9375 43.0604 11.4314 43.9395 12.3104C44.8185 13.1895 45.3124 14.3818 45.3124 15.625V32.4844ZM35.9374 14.0625C34.7013 14.0625 33.4929 14.4291 32.4651 15.1158C31.4373 15.8026 30.6362 16.7787 30.1631 17.9207C29.6901 19.0628 29.5663 20.3194 29.8075 21.5318C30.0486 22.7442 30.6439 23.8578 31.518 24.7319C32.3921 25.606 33.5057 26.2013 34.7181 26.4424C35.9305 26.6836 37.1871 26.5598 38.3292 26.0867C39.4712 25.6137 40.4473 24.8126 41.1341 23.7848C41.8208 22.757 42.1874 21.5486 42.1874 20.3125C42.1874 18.6549 41.5289 17.0652 40.3568 15.8931C39.1847 14.721 37.595 14.0625 35.9374 14.0625ZM35.9374 23.4375C35.3193 23.4375 34.7151 23.2542 34.2012 22.9108C33.6873 22.5675 33.2868 22.0794 33.0503 21.5084C32.8137 20.9374 32.7519 20.309 32.8724 19.7028C32.993 19.0967 33.2906 18.5398 33.7277 18.1028C34.1647 17.6658 34.7215 17.3681 35.3277 17.2475C35.9339 17.127 36.5623 17.1889 37.1333 17.4254C37.7043 17.6619 38.1924 18.0624 38.5357 18.5763C38.8791 19.0902 39.0624 19.6944 39.0624 20.3125C39.0624 21.1413 38.7332 21.9362 38.1471 22.5222C37.561 23.1083 36.7662 23.4375 35.9374 23.4375ZM20.3124 20.3125C20.3124 20.7269 20.1478 21.1243 19.8547 21.4174C19.5617 21.7104 19.1643 21.875 18.7499 21.875H15.6249V25C15.6249 25.4144 15.4603 25.8118 15.1672 26.1049C14.8742 26.3979 14.4768 26.5625 14.0624 26.5625C13.648 26.5625 13.2506 26.3979 12.9575 26.1049C12.6645 25.8118 12.4999 25.4144 12.4999 25V21.875H9.37489C8.96049 21.875 8.56306 21.7104 8.27004 21.4174C7.97701 21.1243 7.81239 20.7269 7.81239 20.3125C7.81239 19.8981 7.97701 19.5007 8.27004 19.2076C8.56306 18.9146 8.96049 18.75 9.37489 18.75H12.4999V15.625C12.4999 15.2106 12.6645 14.8132 12.9575 14.5201C13.2506 14.2271 13.648 14.0625 14.0624 14.0625C14.4768 14.0625 14.8742 14.2271 15.1672 14.5201C15.4603 14.8132 15.6249 15.2106 15.6249 15.625V18.75H18.7499C19.1643 18.75 19.5617 18.9146 19.8547 19.2076C20.1478 19.5007 20.3124 19.8981 20.3124 20.3125Z" fill="white"/>
</svg>
