<svg width="50" height="50" viewBox="0 0 50 50" fill="none" xmlns="http://www.w3.org/2000/svg">
<path d="M47.6562 16.0149H45.7832V12.4771C45.7832 12.0453 45.4338 11.6959 45.002 11.6959H41.4568L25.367 3.24405C25.1404 3.12503 24.8688 3.12503 24.6407 3.24405L8.54254 11.6959H4.99725C4.56543 11.6959 4.216 12.0453 4.216 12.4771V16.0149H2.34375C1.91193 16.0149 1.5625 16.3643 1.5625 16.7961V21.1121C1.5625 21.5439 1.91193 21.8933 2.34375 21.8933H4.216V46.064C4.216 46.4958 4.56543 46.8453 4.99725 46.8453H7.69653H12.925H17.4896H22.718H27.282H32.5104H37.075H42.3035H45.002C45.4338 46.8453 45.7832 46.4958 45.7832 46.064V21.8933H47.6562C48.0881 21.8933 48.4375 21.5439 48.4375 21.1121V16.7961C48.4375 16.3643 48.0881 16.0149 47.6562 16.0149ZM25.0038 4.81876L38.0966 11.6959H11.9041L25.0038 4.81876ZM5.7785 13.2584H8.73566H41.2636H44.2207V16.0149H5.7785V13.2584ZM8.47778 45.2828V27.1286C8.47778 26.1177 9.30023 25.2953 10.3111 25.2953C11.3213 25.2953 12.1437 26.1177 12.1437 27.1286V45.2828H8.47778ZM18.2709 45.2828V27.1286C18.2709 26.1177 19.0933 25.2953 20.1035 25.2953C21.1143 25.2953 21.9368 26.1177 21.9368 27.1286V45.2828H18.2709ZM28.0632 45.2828V27.1286C28.0632 26.1177 28.8857 25.2953 29.8965 25.2953C30.9067 25.2953 31.7291 26.1177 31.7291 27.1286V45.2828H28.0632ZM37.8563 45.2828V27.1286C37.8563 26.1177 38.6787 25.2953 39.6889 25.2953C40.6998 25.2953 41.5222 26.1177 41.5222 27.1286V45.2828H37.8563ZM44.2207 45.2828H43.0847V27.1286C43.0847 25.2564 41.5611 23.7328 39.6889 23.7328C37.8166 23.7328 36.2938 25.2564 36.2938 27.1286V45.2828H33.2916V27.1286C33.2916 25.2564 31.7688 23.7328 29.8965 23.7328C28.0243 23.7328 26.5007 25.2564 26.5007 27.1286V45.2828H23.4993V27.1286C23.4993 25.2564 21.9757 23.7328 20.1035 23.7328C18.2312 23.7328 16.7084 25.2564 16.7084 27.1286V45.2828H13.7062V27.1286C13.7062 25.2564 12.1834 23.7328 10.3111 23.7328C8.43887 23.7328 6.91528 25.2564 6.91528 27.1286V45.2828H5.7785V21.8933H44.2207V45.2828ZM46.875 20.3308H45.002H4.99725H3.125V19.735H22.718C23.1499 19.735 23.4993 19.3856 23.4993 18.9537C23.4993 18.5219 23.1499 18.1725 22.718 18.1725H3.125V17.5774H4.98214C4.98748 17.5775 4.99187 17.5804 4.99725 17.5804H45.002C45.0074 17.5804 45.0118 17.5775 45.0171 17.5774H46.875V20.3308Z" fill="white"/>
<path d="M26.1086 18.1724H25C24.5682 18.1724 24.2188 18.5218 24.2188 18.9536C24.2188 19.3854 24.5682 19.7349 25 19.7349H26.1086C26.5404 19.7349 26.8898 19.3854 26.8898 18.9536C26.8898 18.5218 26.5404 18.1724 26.1086 18.1724Z" fill="white"/>
</svg>
