<svg width="24" height="25" viewBox="0 0 24 25" fill="none" xmlns="http://www.w3.org/2000/svg">
<path d="M18.1622 23.3725H5.83787C5.75186 23.3725 5.66936 23.3384 5.60854 23.2776C5.54772 23.2167 5.51355 23.1342 5.51355 23.0482V3.58876C5.51355 3.50274 5.54772 3.42025 5.60854 3.35943C5.66936 3.2986 5.75186 3.26443 5.83787 3.26443H18.1622C18.2482 3.26443 18.3307 3.2986 18.3915 3.35943C18.4524 3.42025 18.4865 3.50274 18.4865 3.58876V23.0482C18.4865 23.1342 18.4524 23.2167 18.3915 23.2776C18.3307 23.3384 18.2482 23.3725 18.1622 23.3725ZM6.1622 22.7239H17.8379V3.91308H6.1622V22.7239Z" fill="#181818"/>
<path d="M15.5676 3.91309H8.43247C8.34645 3.91309 8.26396 3.87892 8.20313 3.8181C8.14231 3.75728 8.10814 3.67478 8.10814 3.58877V1.96715C8.10814 1.88113 8.14231 1.79864 8.20313 1.73781C8.26396 1.67699 8.34645 1.64282 8.43247 1.64282H15.5676C15.6536 1.64282 15.7361 1.67699 15.7969 1.73781C15.8578 1.79864 15.8919 1.88113 15.8919 1.96715V3.58877C15.8919 3.67478 15.8578 3.75728 15.7969 3.8181C15.7361 3.87892 15.6536 3.91309 15.5676 3.91309ZM8.75679 3.26444H15.2433V2.29147H8.75679V3.26444ZM23.0271 23.3726H18.1622C18.0762 23.3726 17.9937 23.3384 17.9329 23.2776C17.872 23.2167 17.8379 23.1342 17.8379 23.0482V7.48066C17.8379 7.39464 17.872 7.31215 17.9329 7.25133C17.9937 7.19051 18.0762 7.15634 18.1622 7.15634H23.0271C23.1131 7.15634 23.1956 7.19051 23.2564 7.25133C23.3172 7.31215 23.3514 7.39464 23.3514 7.48066V23.0482C23.3514 23.1342 23.3172 23.2167 23.2564 23.2776C23.1956 23.3384 23.1131 23.3726 23.0271 23.3726ZM18.4865 22.7239H22.7027V7.80498H18.4865V22.7239ZM5.83787 23.3726H0.973006C0.88699 23.3726 0.804497 23.3384 0.743674 23.2776C0.682851 23.2167 0.648682 23.1342 0.648682 23.0482V7.48066C0.648682 7.39464 0.682851 7.31215 0.743674 7.25133C0.804497 7.19051 0.88699 7.15634 0.973006 7.15634H5.83787C5.92389 7.15634 6.00638 7.19051 6.0672 7.25133C6.12803 7.31215 6.16219 7.39464 6.16219 7.48066V23.0482C6.16219 23.1342 6.12803 23.2167 6.0672 23.2776C6.00638 23.3384 5.92389 23.3726 5.83787 23.3726ZM1.29733 22.7239H5.51355V7.80498H1.29733V22.7239ZM15.3244 8.21039H13.946C13.7739 8.21039 13.609 8.14205 13.4873 8.0204C13.3657 7.89876 13.2973 7.73377 13.2973 7.56174V6.18336C13.2973 6.01133 13.3657 5.84634 13.4873 5.7247C13.609 5.60305 13.7739 5.53471 13.946 5.53471H15.3244C15.4964 5.53471 15.6614 5.60305 15.783 5.7247C15.9047 5.84634 15.973 6.01133 15.973 6.18336V7.56174C15.973 7.73377 15.9047 7.89876 15.783 8.0204C15.6614 8.14205 15.4964 8.21039 15.3244 8.21039ZM13.946 6.18336V7.56174H15.3244V6.18336H13.946ZM10.0541 8.21039H8.67571C8.50368 8.21039 8.33869 8.14205 8.21704 8.0204C8.0954 7.89876 8.02706 7.73377 8.02706 7.56174V6.18336C8.02706 6.01133 8.0954 5.84634 8.21704 5.7247C8.33869 5.60305 8.50368 5.53471 8.67571 5.53471H10.0541C10.2261 5.53471 10.3911 5.60305 10.5128 5.7247C10.6344 5.84634 10.7027 6.01133 10.7027 6.18336V7.56174C10.7027 7.73377 10.6344 7.89876 10.5128 8.0204C10.3911 8.14205 10.2261 8.21039 10.0541 8.21039ZM10.0541 6.18336H8.67571V7.56174H10.0541V6.18336ZM15.3244 12.2239H13.946C13.7739 12.2239 13.609 12.1556 13.4873 12.0339C13.3657 11.9123 13.2973 11.7473 13.2973 11.5753V10.1969C13.2973 10.0248 13.3657 9.85986 13.4873 9.73821C13.609 9.61657 13.7739 9.54823 13.946 9.54823H15.3244C15.4964 9.54823 15.6614 9.61657 15.783 9.73821C15.9047 9.85986 15.973 10.0248 15.973 10.1969V11.5753C15.973 11.7473 15.9047 11.9123 15.783 12.0339C15.6614 12.1556 15.4964 12.2239 15.3244 12.2239ZM13.946 10.1969V11.5753H15.3244V10.1969H13.946ZM10.0541 12.2239H8.67571C8.50368 12.2239 8.33869 12.1556 8.21704 12.0339C8.0954 11.9123 8.02706 11.7473 8.02706 11.5753V10.1969C8.02706 10.0248 8.0954 9.85986 8.21704 9.73821C8.33869 9.61657 8.50368 9.54823 8.67571 9.54823H10.0541C10.2261 9.54823 10.3911 9.61657 10.5128 9.73821C10.6344 9.85986 10.7027 10.0248 10.7027 10.1969V11.5753C10.7027 11.7473 10.6344 11.9123 10.5128 12.0339C10.3911 12.1556 10.2261 12.2239 10.0541 12.2239ZM10.0541 10.1966H8.67571V11.5749H10.0541V10.1966ZM15.3244 16.2374H13.946C13.7739 16.2374 13.609 16.1691 13.4873 16.0474C13.3657 15.9258 13.2973 15.7608 13.2973 15.5888V14.2104C13.2973 14.0384 13.3657 13.8734 13.4873 13.7517C13.609 13.6301 13.7739 13.5617 13.946 13.5617H15.3244C15.4964 13.5617 15.6614 13.6301 15.783 13.7517C15.9047 13.8734 15.973 14.0384 15.973 14.2104V15.5888C15.973 15.7608 15.9047 15.9258 15.783 16.0474C15.6614 16.1691 15.4964 16.2374 15.3244 16.2374ZM13.946 14.2104V15.5888H15.3244V14.2104H13.946ZM10.0541 16.2374H8.67571C8.50368 16.2374 8.33869 16.1691 8.21704 16.0474C8.0954 15.9258 8.02706 15.7608 8.02706 15.5888V14.2104C8.02706 14.0384 8.0954 13.8734 8.21704 13.7517C8.33869 13.6301 8.50368 13.5617 8.67571 13.5617H10.0541C10.2261 13.5617 10.3911 13.6301 10.5128 13.7517C10.6344 13.8734 10.7027 14.0384 10.7027 14.2104V15.5888C10.7027 15.7608 10.6344 15.9258 10.5128 16.0474C10.3911 16.1691 10.2261 16.2374 10.0541 16.2374ZM10.0541 14.2101H8.67571V15.5888H10.0541V14.2101ZM14.0134 23.3726H9.98663C9.90061 23.3726 9.81812 23.3384 9.75729 23.2776C9.69647 23.2167 9.6623 23.1342 9.6623 23.0482V17.859C9.6623 17.773 9.69647 17.6905 9.75729 17.6297C9.81812 17.5689 9.90061 17.5347 9.98663 17.5347H14.0134C14.0995 17.5347 14.1819 17.5689 14.2428 17.6297C14.3036 17.6905 14.3378 17.773 14.3378 17.859V23.0482C14.3378 23.1342 14.3036 23.2167 14.2428 23.2776C14.1819 23.3384 14.0995 23.3726 14.0134 23.3726ZM10.311 22.7239H13.6891V18.1834H10.311V22.7239Z" fill="#181818"/>
<path d="M21.1011 12.3455H20.088C19.9159 12.3455 19.7509 12.2772 19.6293 12.1556C19.5077 12.0339 19.4393 11.8689 19.4393 11.6969V10.6834C19.4393 10.5113 19.5077 10.3464 19.6293 10.2247C19.7509 10.1031 19.9159 10.0347 20.088 10.0347H21.1011C21.2732 10.0347 21.4382 10.1031 21.5598 10.2247C21.6815 10.3464 21.7498 10.5113 21.7498 10.6834V11.6969C21.7498 11.8689 21.6815 12.0339 21.5598 12.1556C21.4382 12.2772 21.2732 12.3455 21.1011 12.3455ZM20.088 10.6834V11.6969H21.1011V10.6834H20.088ZM21.1011 16.4197H20.088C19.9159 16.4197 19.7509 16.3514 19.6293 16.2297C19.5077 16.1081 19.4393 15.9431 19.4393 15.7711V14.7579C19.4393 14.5858 19.5077 14.4208 19.6293 14.2992C19.7509 14.1776 19.9159 14.1092 20.088 14.1092H21.1011C21.2732 14.1092 21.4382 14.1776 21.5598 14.2992C21.6815 14.4208 21.7498 14.5858 21.7498 14.7579V15.7711C21.7498 15.9431 21.6815 16.1081 21.5598 16.2297C21.4382 16.3514 21.2732 16.4197 21.1011 16.4197ZM20.088 14.7579V15.7711H21.1011V14.7579H20.088ZM21.1011 20.4942H20.088C19.9159 20.4942 19.7509 20.4258 19.6293 20.3042C19.5077 20.1826 19.4393 20.0176 19.4393 19.8455V18.832C19.4393 18.66 19.5077 18.495 19.6293 18.3734C19.7509 18.2517 19.9159 18.1834 20.088 18.1834H21.1011C21.2732 18.1834 21.4382 18.2517 21.5598 18.3734C21.6815 18.495 21.7498 18.66 21.7498 18.832V19.8455C21.7498 20.0176 21.6815 20.1826 21.5598 20.3042C21.4382 20.4258 21.2732 20.4942 21.1011 20.4942ZM20.088 18.832V19.8455H21.1011V18.832H20.088ZM3.91196 12.3455H2.89877C2.72674 12.3455 2.56175 12.2772 2.44011 12.1556C2.31846 12.0339 2.25012 11.8689 2.25012 11.6969V10.6834C2.25012 10.5113 2.31846 10.3464 2.44011 10.2247C2.56175 10.1031 2.72674 10.0347 2.89877 10.0347H3.91196C4.08399 10.0347 4.24898 10.1031 4.37062 10.2247C4.49227 10.3464 4.56061 10.5113 4.56061 10.6834V11.6969C4.56061 11.7821 4.54383 11.8664 4.51123 11.9451C4.47864 12.0238 4.43086 12.0953 4.37062 12.1556C4.31039 12.2158 4.23888 12.2636 4.16019 12.2962C4.08149 12.3288 3.99714 12.3455 3.91196 12.3455ZM2.89877 10.6834V11.6969H3.91196V10.6834H2.89877ZM3.91196 16.4197H2.89877C2.72674 16.4197 2.56175 16.3514 2.44011 16.2297C2.31846 16.1081 2.25012 15.9431 2.25012 15.7711V14.7579C2.25012 14.5858 2.31846 14.4208 2.44011 14.2992C2.56175 14.1776 2.72674 14.1092 2.89877 14.1092H3.91196C4.08399 14.1092 4.24898 14.1776 4.37062 14.2992C4.49227 14.4208 4.56061 14.5858 4.56061 14.7579V15.7711C4.56061 15.9431 4.49227 16.1081 4.37062 16.2297C4.24898 16.3514 4.08399 16.4197 3.91196 16.4197ZM2.89877 14.7579V15.7711H3.91196V14.7579H2.89877ZM3.91196 20.4942H2.89877C2.72674 20.4942 2.56175 20.4258 2.44011 20.3042C2.31846 20.1826 2.25012 20.0176 2.25012 19.8455V18.832C2.25012 18.66 2.31846 18.495 2.44011 18.3734C2.56175 18.2517 2.72674 18.1834 2.89877 18.1834H3.91196C4.08399 18.1834 4.24898 18.2517 4.37062 18.3734C4.49227 18.495 4.56061 18.66 4.56061 18.832V19.8455C4.56061 19.9307 4.54383 20.0151 4.51123 20.0938C4.47864 20.1725 4.43086 20.244 4.37062 20.3042C4.31039 20.3644 4.23888 20.4122 4.16019 20.4448C4.08149 20.4774 3.99714 20.4942 3.91196 20.4942ZM2.89877 18.832V19.8455H3.91196V18.832H2.89877Z" fill="#181818"/>
</svg>
