<svg width="50" height="50" viewBox="0 0 50 50" fill="none" xmlns="http://www.w3.org/2000/svg">
<path fill-rule="evenodd" clip-rule="evenodd" d="M25 2.34375C21.5482 2.34375 18.75 5.14197 18.75 8.59375C18.75 12.0455 21.5482 14.8438 25 14.8438C28.4518 14.8438 31.25 12.0455 31.25 8.59375C31.25 5.14197 28.4518 2.34375 25 2.34375ZM21.875 8.59375C21.875 6.86786 23.2741 5.46875 25 5.46875C26.7259 5.46875 28.125 6.86786 28.125 8.59375C28.125 10.3196 26.7259 11.7188 25 11.7188C23.2741 11.7188 21.875 10.3196 21.875 8.59375ZM37.465 24.2188H46.875C47.738 24.2188 48.4375 24.9183 48.4375 25.7812C48.4375 26.6442 47.738 27.3438 46.875 27.3438H44.4763C45.0081 28.263 45.3125 29.3304 45.3125 30.4688V46.0938C45.3125 46.9567 44.613 47.6562 43.75 47.6562C42.887 47.6562 42.1875 46.9567 42.1875 46.0938V30.4688C42.1875 28.7429 40.7884 27.3438 39.0625 27.3438H10.9375C9.21164 27.3438 7.8125 28.7429 7.8125 30.4688V46.0938C7.8125 46.9567 7.11295 47.6562 6.25 47.6562C5.38705 47.6562 4.6875 46.9567 4.6875 46.0938V30.4688C4.6875 29.3304 4.99186 28.263 5.52364 27.3438H3.125C2.26205 27.3438 1.5625 26.6442 1.5625 25.7812C1.5625 24.9183 2.26205 24.2188 3.125 24.2188H12.535C12.9298 19.8387 16.6109 16.4062 21.0938 16.4062H28.9062C33.3891 16.4062 37.0702 19.8387 37.465 24.2188ZM15.6804 24.2188H23.4375V19.5312H21.0938C18.3387 19.5312 16.0595 21.5685 15.6804 24.2188ZM26.5625 24.2188H34.3196C33.9405 21.5685 31.6613 19.5312 28.9062 19.5312H26.5625V24.2188Z" fill="white"/>
</svg>
