<svg width="46" height="46" viewBox="0 0 46 46" fill="none" xmlns="http://www.w3.org/2000/svg">
<g clip-path="url(#clip0_147_1495)">
<mask id="mask0_147_1495" style="mask-type:luminance" maskUnits="userSpaceOnUse" x="0" y="0" width="46" height="46">
<path d="M23.0752 45.1328C35.5016 45.1328 45.5752 35.0592 45.5752 22.6328C45.5752 10.2064 35.5016 0.132812 23.0752 0.132812C10.6488 0.132812 0.575195 10.2064 0.575195 22.6328C0.575195 35.0592 10.6488 45.1328 23.0752 45.1328Z" fill="white"/>
</mask>
<g mask="url(#mask0_147_1495)">
<path d="M10.2432 91.1875C36.9405 91.1875 58.583 69.545 58.583 42.8477C58.583 16.1503 36.9405 -5.49219 10.2432 -5.49219C-16.4542 -5.49219 -38.0967 16.1503 -38.0967 42.8477C-38.0967 69.545 -16.4542 91.1875 10.2432 91.1875Z" fill="url(#paint0_radial_147_1495)"/>
</g>
<path d="M29.4033 18.0625C30.3741 18.0625 31.1611 17.2755 31.1611 16.3047C31.1611 15.3339 30.3741 14.5469 29.4033 14.5469C28.4325 14.5469 27.6455 15.3339 27.6455 16.3047C27.6455 17.2755 28.4325 18.0625 29.4033 18.0625Z" fill="white"/>
<path d="M23.0752 17.0078C21.9627 17.0078 20.8751 17.3377 19.9501 17.9558C19.0251 18.5739 18.3041 19.4524 17.8784 20.4802C17.4526 21.5081 17.3412 22.6391 17.5583 23.7302C17.7753 24.8213 18.3111 25.8236 19.0977 26.6103C19.8844 27.397 20.8867 27.9327 21.9778 28.1497C23.069 28.3668 24.2 28.2554 25.2278 27.8296C26.2556 27.4039 27.1341 26.6829 27.7522 25.7579C28.3703 24.8329 28.7002 23.7453 28.7002 22.6328C28.7002 21.141 28.1076 19.7102 27.0527 18.6553C25.9978 17.6004 24.567 17.0078 23.0752 17.0078ZM23.0752 25.4453C22.5189 25.4453 21.9752 25.2804 21.5127 24.9713C21.0501 24.6623 20.6897 24.223 20.4768 23.7091C20.2639 23.1952 20.2082 22.6297 20.3167 22.0841C20.4253 21.5385 20.6931 21.0374 21.0865 20.6441C21.4798 20.2507 21.9809 19.9829 22.5265 19.8744C23.0721 19.7658 23.6376 19.8215 24.1515 20.0344C24.6654 20.2473 25.1047 20.6078 25.4137 21.0703C25.7227 21.5328 25.8877 22.0766 25.8877 22.6328C25.8877 23.3787 25.5914 24.0941 25.0639 24.6215C24.5365 25.149 23.8211 25.4453 23.0752 25.4453Z" fill="white"/>
<path d="M30.1064 11.3828H16.0439C13.714 11.3828 11.8252 13.2716 11.8252 15.6016V29.6641C11.8252 31.994 13.714 33.8828 16.0439 33.8828H30.1064C32.4364 33.8828 34.3252 31.994 34.3252 29.6641V15.6016C34.3252 13.2716 32.4364 11.3828 30.1064 11.3828Z" stroke="white" stroke-width="2" stroke-miterlimit="10"/>
</g>
<defs>
<radialGradient id="paint0_radial_147_1495" cx="0" cy="0" r="1" gradientUnits="userSpaceOnUse" gradientTransform="translate(10.2432 42.8477) scale(48.3398)">
<stop stop-color="#FFD676"/>
<stop offset="0.25" stop-color="#F2A454"/>
<stop offset="0.38" stop-color="#F05C3C"/>
<stop offset="0.7" stop-color="#C22F86"/>
<stop offset="0.96" stop-color="#6666AD"/>
<stop offset="0.99" stop-color="#5C6CB2"/>
</radialGradient>
<clipPath id="clip0_147_1495">
<rect width="45" height="45" fill="white" transform="translate(0.575195 0.132812)"/>
</clipPath>
</defs>
</svg>
