<svg width="50" height="50" viewBox="0 0 50 50" fill="none" xmlns="http://www.w3.org/2000/svg">
<path d="M46.0346 7.96472C45.7717 7.74455 45.4637 7.58487 45.1322 7.49701C44.8007 7.40914 44.454 7.39523 44.1166 7.45627C41.7221 7.80957 39.5046 8.92288 37.7908 10.6321C36.3938 9.53196 34.6513 8.96423 32.8744 9.03023C31.0975 9.09624 29.4019 9.79169 28.0904 10.9924L26.8342 10.3505C25.5502 9.68069 24.0988 9.4 22.6577 9.54284C21.2166 9.68567 19.8485 10.2458 18.7211 11.1546C15.1344 6.76119 9.27353 4.83133 5.99899 4.06C5.6554 3.98226 5.29874 3.98261 4.9553 4.06103C4.61185 4.13945 4.29039 4.29393 4.01459 4.5131C3.73879 4.73228 3.51569 5.01054 3.36173 5.3274C3.20776 5.64425 3.12687 5.99162 3.125 6.34389V21.6973C3.12696 22.0502 3.20822 22.3981 3.36276 22.7154C3.5173 23.0327 3.74117 23.3112 4.01783 23.5303C4.29449 23.7494 4.61686 23.9036 4.96111 23.9813C5.30535 24.0591 5.66267 24.0585 6.00666 23.9795C7.94953 23.547 9.75271 22.6335 11.2508 21.323C12.6376 22.4335 14.3603 23.04 16.1369 23.0431C17.9135 23.0463 19.6384 22.4459 21.0291 21.3403L23.6221 22.2942C24.8683 22.7537 26.2232 22.8308 27.5134 22.5154C28.8036 22.2001 29.9703 21.5067 30.864 20.5242C32.9582 22.8493 37.5546 26.9264 44.3775 27.4582C44.6974 27.478 45.018 27.4322 45.3195 27.3236C45.6211 27.215 45.8973 27.046 46.1311 26.8268C46.365 26.6077 46.5516 26.343 46.6796 26.0492C46.8075 25.7553 46.874 25.4384 46.875 25.1179V9.76486C46.8755 9.42154 46.8005 9.08231 46.6553 8.77121C46.51 8.46012 46.2981 8.18478 46.0346 7.96472ZM10.5835 19.7792C9.23333 21.1366 7.51516 22.0687 5.64117 22.4606C5.52644 22.4897 5.40651 22.4918 5.29081 22.4668C5.17511 22.4418 5.06679 22.3902 4.97437 22.3163C4.88195 22.2423 4.80795 22.1479 4.75817 22.0405C4.70839 21.9331 4.6842 21.8156 4.6875 21.6973V6.34386C4.68615 6.22621 4.71161 6.1098 4.76194 6.00344C4.81226 5.89709 4.88614 5.80359 4.97797 5.73003C5.0698 5.65647 5.17717 5.60477 5.29195 5.57887C5.40672 5.55297 5.52588 5.55354 5.64041 5.58053C8.74405 6.31182 14.3108 8.13562 17.5938 12.246L10.5835 19.7792ZM20.8508 19.3508C19.8071 20.5488 18.3447 21.3022 16.7633 21.4562C15.1819 21.6103 13.6015 21.1535 12.3463 20.1794L19.1056 12.9173C19.1148 12.9117 19.1577 12.865 19.1758 12.849C21.2887 10.6603 24.4746 10.598 26.9869 12.1834L20.8508 19.3508ZM30.3177 18.8099C29.6539 19.774 28.692 20.4936 27.5796 20.8581C26.4673 21.2226 25.266 21.2118 24.1604 20.8274L22.2464 20.1234L28.6316 12.6652C29.6257 11.5081 31.0259 10.7767 32.5434 10.6217C34.0609 10.4667 35.5801 10.9 36.7875 11.8322L30.3177 18.8099ZM45.3125 25.1179C45.313 25.2234 45.292 25.3279 45.2509 25.4251C45.2098 25.5223 45.1494 25.6101 45.0734 25.6832C44.9973 25.7564 44.9073 25.8133 44.8086 25.8506C44.7099 25.8879 44.6046 25.9048 44.4992 25.9003C38.1073 25.4025 33.8196 21.5031 31.9287 19.3707C31.9287 19.3707 38.3997 12.3193 38.5155 12.1781C40.0395 10.146 42.553 9.32505 44.3928 8.99432C44.5054 8.97453 44.6209 8.97961 44.7313 9.00919C44.8418 9.03877 44.9444 9.09213 45.032 9.16554C45.1196 9.23895 45.1901 9.33063 45.2386 9.43416C45.287 9.53768 45.3123 9.65056 45.3125 9.76486V25.1179Z" fill="white"/>
<path d="M15.7674 25.3365C15.6579 25.1523 15.5024 24.9996 15.3162 24.8936C15.1299 24.7876 14.9193 24.7319 14.705 24.7319C14.4906 24.7319 14.28 24.7876 14.0938 24.8936C13.9075 24.9997 13.752 25.1523 13.6426 25.3366L12.122 27.9702C11.8573 28.4226 11.7178 28.9373 11.7178 29.4615C11.7178 29.9857 11.8573 30.5004 12.122 30.9529C14.1657 34.3164 19.1794 31.4213 17.2882 27.9701L15.7674 25.3365ZM15.9348 30.1713C15.7438 30.4919 15.4342 30.7244 15.073 30.8185C14.7119 30.9126 14.3282 30.8608 14.005 30.6741C13.6817 30.4875 13.445 30.1812 13.3459 29.8213C13.2468 29.4615 13.2934 29.0771 13.4755 28.7514L14.7054 26.6213L15.9348 28.7514C16.0609 28.9668 16.1274 29.2118 16.1274 29.4613C16.1274 29.7109 16.0609 29.9559 15.9348 30.1713ZM15.7674 39.2304C15.6579 39.0461 15.5024 38.8935 15.3162 38.7875C15.1299 38.6815 14.9193 38.6258 14.705 38.6258C14.4907 38.6258 14.28 38.6815 14.0938 38.7875C13.9075 38.8935 13.752 39.0461 13.6426 39.2304L12.122 41.864C11.8573 42.3165 11.7178 42.8312 11.7178 43.3554C11.7178 43.8796 11.8573 44.3943 12.122 44.8467C14.1657 48.2102 19.1794 45.3152 17.2882 41.8639L15.7674 39.2304ZM15.9348 44.0652C15.7438 44.3858 15.4342 44.6183 15.073 44.7124C14.7119 44.8065 14.3282 44.7547 14.005 44.568C13.6817 44.3814 13.445 44.0751 13.3459 43.7152C13.2468 43.3554 13.2934 42.971 13.4755 42.6453L14.7054 40.5152L15.9348 42.6453C16.0609 42.8607 16.1274 43.1057 16.1274 43.3552C16.1274 43.6048 16.0609 43.8498 15.9348 44.0652ZM25.5864 34.8652C25.477 34.6809 25.3215 34.5282 25.1352 34.4221C24.9489 34.3161 24.7383 34.2603 24.5239 34.2603C24.3095 34.2602 24.0989 34.3159 23.9126 34.4219C23.7262 34.528 23.5707 34.6806 23.4612 34.8649L21.9407 37.4982C21.6759 37.9505 21.5364 38.4652 21.5365 38.9894C21.5365 39.5135 21.6762 40.0282 21.9411 40.4805C23.984 43.8443 28.9986 40.9501 27.1069 37.4981L25.5864 34.8652ZM25.7535 39.6996C25.5622 40.0199 25.2526 40.252 24.8916 40.3459C24.5305 40.4398 24.1471 40.3878 23.824 40.2013C23.501 40.0147 23.2643 39.7085 23.1652 39.3489C23.0661 38.9893 23.1124 38.6051 23.2942 38.2794L24.524 36.1497L25.7535 38.2794C25.8796 38.4948 25.946 38.7399 25.946 38.9895C25.946 39.2391 25.8796 39.4842 25.7535 39.6996ZM25.6631 30.0866C25.9278 29.6342 26.0673 29.1195 26.0673 28.5954C26.0673 28.0713 25.9278 27.5566 25.6631 27.1042L24.1425 24.471C24.0349 24.2844 23.88 24.1294 23.6935 24.0217C23.507 23.914 23.2954 23.8572 23.0801 23.8572C22.8647 23.8571 22.6531 23.9138 22.4665 24.0215C22.28 24.1292 22.1251 24.2841 22.0174 24.4706L20.4968 27.1042C20.1095 27.7889 20.0082 28.5988 20.2152 29.3577C20.4221 30.1166 20.9204 30.763 21.6016 31.1563C22.2829 31.5495 23.0919 31.6578 23.8525 31.4574C24.6132 31.2571 25.2639 30.7644 25.6631 30.0866ZM21.8503 29.3053C21.7242 29.09 21.6577 28.845 21.6577 28.5954C21.6577 28.3459 21.7242 28.1008 21.8503 27.8855L23.0801 25.7554L24.3096 27.8855C24.4918 28.2113 24.5384 28.5957 24.4394 28.9556C24.3403 29.3154 24.1035 29.6218 23.7803 29.8085C23.457 29.9951 23.0733 30.0469 22.7121 29.9528C22.3509 29.8586 22.0413 29.626 21.8503 29.3053ZM33.2333 28.4161C33.1239 28.2318 32.9684 28.0791 32.7822 27.973C32.5959 27.867 32.3852 27.8112 32.1708 27.8111C31.9565 27.8111 31.7458 27.8668 31.5595 27.9728C31.3732 28.0788 31.2176 28.2315 31.1082 28.4158L29.5876 31.0494C29.3229 31.5017 29.1833 32.0164 29.1834 32.5406C29.1835 33.0647 29.3231 33.5794 29.588 34.0317C31.6309 37.3955 36.6455 34.5013 34.7538 31.0493L33.2333 28.4161ZM33.4005 33.2508C33.2093 33.5714 32.8997 33.8039 32.5385 33.898C32.1773 33.992 31.7936 33.9401 31.4704 33.7534C31.1472 33.5668 30.9105 33.2604 30.8115 32.9006C30.7124 32.5407 30.759 32.1563 30.9412 31.8306L32.1706 29.7005L33.4005 31.8307C33.5265 32.0461 33.593 32.2912 33.593 32.5407C33.593 32.7903 33.5265 33.0354 33.4005 33.2508Z" fill="white"/>
</svg>
