<svg width="46" height="46" viewBox="0 0 46 46" fill="none" xmlns="http://www.w3.org/2000/svg">
<g clip-path="url(#clip0_147_1529)">
<circle cx="23.5752" cy="23.1328" r="15.0342" fill="white"/>
<path d="M23.0751 0.132812C10.6487 0.132812 0.575195 10.2063 0.575195 22.6328C0.575195 35.0592 10.6487 45.1327 23.0751 45.1327C35.5016 45.1327 45.5752 35.0592 45.5752 22.6328C45.5751 10.2063 35.5014 0.132812 23.0751 0.132812ZM17.0721 33.5105H12.132V17.5504H17.0721V33.5105ZM14.5785 15.4603C12.9651 15.4603 11.6572 14.1418 11.6572 12.5154C11.6572 10.889 12.9653 9.57046 14.5785 9.57046C16.1917 9.57046 17.4997 10.889 17.4997 12.5154C17.4998 14.1418 16.1918 15.4603 14.5785 15.4603ZM35.5851 33.5105H30.669V25.1328C30.669 22.835 29.7962 21.5524 27.9793 21.5524C26.0019 21.5524 24.9689 22.8882 24.9689 25.1328V33.5105H20.2307V17.5504H24.9689V19.7C24.9689 19.7 26.3941 17.0636 29.7783 17.0636C33.1626 17.0636 35.5852 19.13 35.5852 23.4048L35.5851 33.5105Z" fill="url(#paint0_linear_147_1529)"/>
</g>
<defs>
<linearGradient id="paint0_linear_147_1529" x1="7.16527" y1="6.72289" x2="38.985" y2="38.5426" gradientUnits="userSpaceOnUse">
<stop stop-color="#2489BE"/>
<stop offset="1" stop-color="#0575B3"/>
</linearGradient>
<clipPath id="clip0_147_1529">
<rect width="45" height="45" fill="white" transform="translate(0.575195 0.132812)"/>
</clipPath>
</defs>
</svg>
