<svg width="12" height="12" viewBox="0 0 12 12" fill="none" xmlns="http://www.w3.org/2000/svg">
<path d="M6.05621 1.00056C3.84708 0.969489 2.03104 2.73521 2 4.94434C2 7.66846 5.68213 10.8086 5.83887 10.9409C5.88385 10.9792 5.94098 11.0001 6 11C6.05902 11.0001 6.11615 10.9792 6.16113 10.9409C6.31787 10.8086 10 7.66846 10 4.94434C9.96957 2.77897 8.22159 1.03098 6.05621 1.00056ZM6 10.417C5.29199 9.78126 2.5 7.13331 2.5 4.94434C2.51767 3.02769 4.08331 1.48695 6 1.50001C7.91669 1.48695 9.48236 3.02769 9.5 4.94434C9.5 7.13135 6.70749 9.78077 6 10.417ZM6 3.50001C5.17157 3.50001 4.5 4.17158 4.5 5.00001C4.5 5.82844 5.17157 6.50001 6 6.50001C6.82806 6.49909 7.49908 5.82807 7.5 5.00001C7.5 4.17158 6.82843 3.50001 6 3.50001ZM6 6.00001C5.44772 6.00001 5 5.55228 5 5.00001C5 4.44773 5.44772 4.00001 6 4.00001C6.552 4.00071 6.9993 4.448 7 5.00001C7 5.55228 6.55228 6.00001 6 6.00001Z" fill="#7F8194"/>
</svg>
