<svg width="19" height="18" viewBox="0 0 19 18" fill="none" xmlns="http://www.w3.org/2000/svg">
<path d="M9.75229 1.557C6.43858 1.51073 3.71452 4.14055 3.66797 7.4308C3.66797 11.488 9.19116 16.1649 9.42627 16.362C9.49374 16.4189 9.57944 16.4501 9.66797 16.45C9.7565 16.4501 9.84219 16.4189 9.90967 16.362C10.1448 16.1649 15.668 11.488 15.668 7.4308C15.6223 4.20573 13.0004 1.60231 9.75229 1.557ZM9.66797 15.5817C8.60596 14.6348 4.41797 10.691 4.41797 7.4308C4.44447 4.57617 6.79294 2.28142 9.66797 2.30087C12.543 2.28142 14.8915 4.57617 14.918 7.4308C14.918 10.6881 10.7292 14.6341 9.66797 15.5817ZM9.66797 5.27963C8.42532 5.27963 7.41797 6.27985 7.41797 7.5137C7.41797 8.74755 8.42532 9.74777 9.66797 9.74777C10.9101 9.74641 11.9166 8.747 11.918 7.5137C11.918 6.27985 10.9106 5.27963 9.66797 5.27963ZM9.66797 9.00308C8.83955 9.00308 8.16797 8.33625 8.16797 7.5137C8.16797 6.69115 8.83955 6.02432 9.66797 6.02432C10.496 6.02537 11.1669 6.69156 11.168 7.5137C11.168 8.33625 10.4964 9.00308 9.66797 9.00308Z" fill="white"/>
</svg>
