<svg width="32" height="32" viewBox="0 0 32 32" fill="none" xmlns="http://www.w3.org/2000/svg">
<path d="M28.5938 6.79688C28.5938 7.68572 27.8732 8.40625 26.9844 8.40625H5.42188C4.53303 8.40625 3.8125 7.68572 3.8125 6.79688C3.8125 5.90803 4.53303 5.1875 5.42188 5.1875H26.9844C27.8732 5.1875 28.5938 5.90803 28.5938 6.79688Z" fill="white"/>
<path d="M23.375 16.0469C23.375 16.9357 22.6544 17.6562 21.7656 17.6562H5.42188C4.53303 17.6562 3.8125 16.9357 3.8125 16.0469C3.8125 15.158 4.53303 14.4375 5.42188 14.4375H21.7656C22.6544 14.4375 23.375 15.158 23.375 16.0469Z" fill="white"/>
<path d="M14.7188 25.2656C14.7188 26.1544 13.9982 26.875 13.1094 26.875H5.42188C4.53303 26.875 3.8125 26.1544 3.8125 25.2656C3.8125 24.3768 4.53303 23.6562 5.42188 23.6562H13.1094C13.9982 23.6562 14.7188 24.3768 14.7188 25.2656Z" fill="white"/>
</svg>
