<svg width="50" height="50" viewBox="0 0 50 50" fill="none" xmlns="http://www.w3.org/2000/svg">
<path d="M8.87187 41.111H7.60469V38.0993C7.60469 37.8884 7.43359 37.7173 7.22266 37.7173H5.39844V13.9642H20.3305C20.5414 13.9642 20.7125 13.7931 20.7125 13.5821V3.05791C20.7125 2.84697 20.5414 2.67588 20.3305 2.67588H5.39844V1.98604C5.39844 1.7751 5.22734 1.604 5.01641 1.604C4.80547 1.604 4.63438 1.7751 4.63438 1.98604V37.7181H2.81094C2.6 37.7181 2.42891 37.8892 2.42891 38.1001V41.1118H1.16328C0.952344 41.1118 0.78125 41.2829 0.78125 41.4938V48.0149C0.78125 48.2259 0.952344 48.397 1.16328 48.397H8.87187C9.08281 48.397 9.25391 48.2259 9.25391 48.0149V41.4938C9.25391 41.2829 9.08281 41.111 8.87187 41.111ZM19.9492 3.43916V13.2009H5.39844V3.43916H19.9492ZM3.19297 38.4813H6.84141V41.111H3.19297V38.4813ZM8.48984 47.6321H1.54453V41.8743H8.48984V47.6321Z" fill="white"/>
<path d="M10.6506 11.6007C10.8615 11.6007 11.0326 11.4296 11.0326 11.2187V9.58354H12.8053C14.0584 9.58354 15.0771 8.56479 15.0771 7.31167C15.0771 6.05854 14.0584 5.03979 12.8053 5.03979H10.6506C10.4396 5.03979 10.2686 5.21089 10.2686 5.42183V11.2203C10.2686 11.4312 10.4396 11.6023 10.6506 11.6023V11.6007ZM14.3139 7.31167C14.3139 8.1437 13.6373 8.82026 12.8053 8.82026H11.0326V5.80308H12.8053C13.6373 5.80308 14.3139 6.47964 14.3139 7.31167ZM21.1037 23.3328H29.1725C29.3834 23.3328 29.5545 23.1617 29.5545 22.9507V17.4031C29.5545 17.2945 29.5084 17.1914 29.4279 17.1187C29.3459 17.0453 29.2303 17.0093 29.1311 17.0234C25.5506 17.4203 22.4232 19.5695 20.7646 22.775C20.7037 22.8929 20.7084 23.0351 20.7779 23.1484C20.8475 23.2625 20.9701 23.3328 21.1037 23.3328ZM28.7904 17.839V22.5695H21.7537C23.2818 20.0226 25.8529 18.2914 28.7904 17.839ZM33.8068 23.4812H41.592C41.724 23.4812 41.8467 23.4125 41.9162 23.2999C41.9865 23.1875 41.992 23.0476 41.9334 22.9289C40.3318 19.7218 37.31 17.5695 33.8498 17.1726C33.7443 17.1632 33.6342 17.196 33.5521 17.2671C33.4709 17.3398 33.4248 17.4429 33.4248 17.5515V23.0992C33.4248 23.3101 33.5959 23.4812 33.8068 23.4812ZM34.1889 17.9898C37.0131 18.446 39.4834 20.1757 40.9537 22.7179H34.1889V17.9898Z" fill="white"/>
<path d="M47.1535 24.911H46.0714C43.898 18.8789 38.1683 14.7469 31.7488 14.6117C31.2089 14.5828 30.6371 14.6149 30.0339 14.6672C25.3941 15.0703 21.2136 17.5094 18.5652 21.3602C17.7222 22.5844 17.0691 23.9078 16.6152 25.2938C15.5613 25.5281 14.5449 25.8656 13.5941 26.3102C13.5363 26.3367 13.4839 26.3633 13.4472 26.3836C12.5636 26.7985 11.73 27.318 10.9668 27.9258C10.5527 28.2578 10.1621 28.6149 9.80426 28.9883C9.59176 29.2117 9.3902 29.4414 9.20348 29.6789C9.20348 29.6789 9.20348 29.6797 9.2027 29.6805C9.2027 29.6805 9.20113 29.682 9.20113 29.6828C9.20113 29.6828 9.20113 29.6836 9.20113 29.6844C8.66129 30.3524 8.2191 31.0781 7.88785 31.8406C7.88785 31.8414 7.88785 31.843 7.88707 31.8438C7.88629 31.8461 7.88551 31.8485 7.88473 31.8516C7.56363 32.5813 7.34332 33.3524 7.23004 34.1485C7.17535 34.5399 7.29176 34.9328 7.54723 35.2266C7.79879 35.5141 8.16129 35.6797 8.5441 35.6797H12.83C12.83 35.7109 12.8246 35.7406 12.8246 35.7711C12.8246 38.3391 14.9144 40.4289 17.4824 40.4289C20.0504 40.4289 22.1394 38.3391 22.1394 35.7711C22.1394 35.7399 22.1347 35.7102 22.1339 35.6797H35.0574C35.0574 35.7109 35.0519 35.7406 35.0519 35.7711C35.0519 38.3391 37.1418 40.4289 39.7097 40.4289C42.2777 40.4289 44.3675 38.3391 44.3675 35.7711C44.3675 35.7406 44.3629 35.7102 44.3621 35.6797H47.1527C48.291 35.6797 49.2175 34.9055 49.2175 33.9539V26.6399C49.2175 25.6883 48.291 24.9133 47.1527 24.9133L47.1535 24.911ZM41.8136 31.6117C41.7605 31.5844 41.7089 31.5586 41.6347 31.5227C41.5582 31.4875 41.4738 31.4516 41.4011 31.4242C41.2535 31.3649 41.1105 31.3172 40.9582 31.2758C40.8464 31.2445 40.7355 31.2149 40.5535 31.182C40.423 31.1578 40.2933 31.1406 40.1597 31.1305C39.8597 31.093 39.5566 31.0945 39.2644 31.1289C39.1683 31.1367 39.0675 31.1508 38.9527 31.1703C38.9246 31.175 38.8949 31.1766 38.8668 31.182C38.8644 31.182 38.7863 31.2 38.7832 31.2C38.673 31.2235 38.5675 31.2461 38.4636 31.275C38.3097 31.3164 38.1683 31.3649 38.0246 31.4219C37.9472 31.4516 37.8629 31.4875 37.7863 31.5227C37.7832 31.5242 37.7011 31.5649 37.6988 31.5656C37.6691 31.5805 37.6394 31.5961 37.6097 31.611H19.5714C18.2972 30.957 16.6527 30.9602 15.3933 31.611H8.86442C9.10192 31.1563 9.37457 30.7156 9.69801 30.2992H13.6097C13.8207 30.2992 13.9918 30.1281 13.9918 29.9172V26.9688C15.066 26.4742 16.2183 26.1141 17.4207 25.9031C18.0355 25.7922 18.6754 25.7211 19.3769 25.6875C19.6027 25.6781 19.8332 25.6727 20.0691 25.6727H45.8589C45.798 25.8836 45.766 26.1024 45.766 26.3235C45.766 27.6336 46.8347 28.7008 48.1488 28.7008C48.2527 28.7008 48.3535 28.6867 48.455 28.6735V31.6102H41.8136V31.6117ZM35.1339 34.9141H22.0605C22.0535 34.875 22.041 34.8375 22.0324 34.7985C22.0152 34.7156 21.9941 34.6336 21.9722 34.5524C21.9464 34.457 21.9183 34.3625 21.8871 34.2688C21.8605 34.1899 21.8324 34.1117 21.8011 34.0344C21.7644 33.9422 21.7238 33.8524 21.6816 33.7625C21.6464 33.6891 21.6113 33.6156 21.5722 33.5438C21.5246 33.4555 21.4722 33.3703 21.4191 33.2852C21.3769 33.218 21.3347 33.15 21.2894 33.0852C21.23 33.0008 21.166 32.9203 21.1004 32.8406C21.0519 32.7813 21.0058 32.7203 20.9543 32.6633C20.8816 32.582 20.8027 32.5063 20.7246 32.4305C20.7058 32.4125 20.6886 32.393 20.6699 32.375H36.5246C36.4785 32.4188 36.4324 32.4563 36.3847 32.5039C36.3222 32.5656 36.2605 32.6344 36.2152 32.6899C36.0589 32.8625 35.9129 33.057 35.7683 33.2828C35.7144 33.3664 35.666 33.4508 35.6222 33.5328C35.5519 33.657 35.4918 33.7875 35.4355 33.9188C35.4089 33.9774 35.3824 34.0445 35.3691 34.0867C35.3261 34.1953 35.2839 34.3055 35.2574 34.4047C35.216 34.5399 35.1808 34.6797 35.1519 34.8203C35.1449 34.8516 35.1402 34.8828 35.1339 34.9141ZM47.1535 25.6742C47.8714 25.6742 48.455 26.1063 48.455 26.6375V27.9102C48.355 27.9297 48.2519 27.9391 48.1488 27.9391C47.2558 27.9391 46.53 27.2156 46.53 26.325C46.53 26.1008 46.5777 25.8789 46.6683 25.6742H47.1535ZM45.2246 24.8086H32.1168V15.3977C37.9371 15.6735 43.1105 19.3867 45.2246 24.8086ZM19.1949 21.7914C21.7136 18.1297 25.6886 15.8102 30.1004 15.4266C30.5363 15.3899 30.9457 15.3742 31.3535 15.3719V24.8078H19.6824C19.5621 24.8078 19.448 24.8078 19.3582 24.818C18.7371 24.8305 18.1246 24.8875 17.5285 24.9875C17.9457 23.8672 18.5043 22.7945 19.1949 21.7914ZM11.4441 28.5211C11.7691 28.2617 12.1121 28.025 12.4644 27.8008C12.5707 27.7328 12.6808 27.6719 12.7894 27.607C12.9316 27.5227 13.0816 27.4477 13.2285 27.3688V29.5352H10.3386C10.3449 29.5281 10.3511 29.5203 10.3574 29.5133C10.691 29.1641 11.0566 28.8305 11.4433 28.5203L11.4441 28.5211ZM8.12301 34.7227C8.01207 34.5945 7.96207 34.4227 7.98551 34.2516C8.07692 33.6047 8.25895 32.9774 8.50426 32.3742H14.2957C14.2754 32.393 14.2574 32.4141 14.2379 32.4328C14.1605 32.507 14.0839 32.5813 14.0129 32.661C13.9605 32.7188 13.9136 32.7805 13.8644 32.8414C13.8004 32.9211 13.7363 33.0008 13.6769 33.0844C13.6308 33.15 13.5886 33.218 13.5457 33.2859C13.4925 33.3711 13.4402 33.4563 13.3925 33.5438C13.3535 33.6149 13.3183 33.6883 13.2832 33.7617C13.2402 33.8516 13.1996 33.9422 13.1629 34.0352C13.1324 34.1117 13.1043 34.1891 13.0777 34.2672C13.0457 34.3617 13.0175 34.4578 12.991 34.5547C12.9699 34.6344 12.9496 34.7149 12.9324 34.7961C12.9238 34.836 12.9113 34.8735 12.9043 34.9133H8.5441C8.38004 34.9133 8.23004 34.8453 8.12301 34.7227ZM17.4832 39.6625C15.3355 39.6625 13.5886 37.9156 13.5886 35.768C13.5886 35.6203 13.598 35.4774 13.6129 35.336C13.7519 34.0539 14.5152 32.9305 15.6605 32.3274C16.7496 31.7289 18.2058 31.7242 19.3105 32.3305C19.4527 32.4055 19.5894 32.4891 19.7199 32.5789C20.6308 33.2133 21.23 34.2141 21.3519 35.336C21.3668 35.4781 21.3761 35.6211 21.3761 35.768C21.3761 37.9156 19.63 39.6625 17.4832 39.6625ZM39.7105 39.6625C37.5629 39.6625 35.816 37.9156 35.816 35.768C35.816 35.6195 35.8261 35.4758 35.8402 35.3406C35.8558 35.2172 35.8754 35.093 35.8996 34.9742C35.9238 34.857 35.9535 34.7391 35.9902 34.6172C36.0144 34.5328 36.0472 34.4485 36.0863 34.3477C36.0988 34.3102 36.1144 34.2688 36.1339 34.2266C36.1816 34.1156 36.23 34.0086 36.2918 33.8992C36.3308 33.8274 36.3683 33.761 36.4129 33.6938C36.5347 33.5031 36.655 33.3422 36.7941 33.1867C36.8347 33.1375 36.8808 33.0883 36.9339 33.0336C37.0121 32.9555 37.0886 32.8774 37.1933 32.7938C37.2394 32.7531 37.2886 32.7125 37.348 32.6688C37.4949 32.5531 37.6597 32.4469 37.8519 32.3438C37.8699 32.336 37.8871 32.3281 37.9043 32.3188C37.9464 32.2945 37.9925 32.2727 38.0355 32.2508L38.0105 32.2C38.023 32.1805 38.0402 32.1641 38.0496 32.1422L38.1066 32.2156C38.1683 32.1867 38.2347 32.1586 38.3019 32.1328C38.4238 32.0844 38.5394 32.0453 38.6668 32.011C38.7386 31.9914 38.8121 31.9727 38.8878 31.9586C38.9246 31.9508 38.9566 31.943 39.0043 31.9336C39.1105 31.9141 39.2175 31.8992 39.3535 31.8883C39.5902 31.8602 39.805 31.8586 40.0933 31.8899C40.1785 31.8977 40.2605 31.9102 40.3418 31.9235C40.3863 31.9313 40.4269 31.9375 40.4839 31.9485C40.5777 31.9672 40.6668 31.9875 40.7558 32.0117C40.8808 32.0461 40.9972 32.0852 41.123 32.1344C41.1855 32.1586 41.2519 32.1867 41.348 32.2328C41.4113 32.261 41.4691 32.2906 41.5324 32.3242L41.5457 32.3313C41.7457 32.4367 41.9183 32.5477 42.0824 32.6774C42.1308 32.7133 42.18 32.7524 42.2441 32.8094C42.3316 32.8781 42.4082 32.9563 42.4957 33.0438C42.5402 33.0891 42.5855 33.1383 42.6378 33.2008C42.7668 33.3438 42.8886 33.5055 43.0089 33.6953C43.0519 33.7625 43.0894 33.8289 43.1332 33.9094C43.1902 34.011 43.2386 34.1164 43.2886 34.2328C43.3043 34.268 43.3199 34.3078 43.3402 34.3664C43.373 34.45 43.4058 34.5344 43.4324 34.6281C43.4668 34.7406 43.4957 34.8586 43.5207 34.9758C43.5449 35.0938 43.5644 35.2172 43.58 35.3399C43.5941 35.4813 43.6043 35.6235 43.6043 35.7695C43.6043 37.9172 41.8574 39.6641 39.7097 39.6641L39.7105 39.6625ZM47.1535 34.9133H44.2863C44.28 34.882 44.2746 34.8508 44.2675 34.8195C44.2386 34.6789 44.2035 34.5383 44.1644 34.4133C44.1347 34.3039 44.0925 34.1938 44.0582 34.1086C44.0386 34.0469 44.0113 33.9781 43.9863 33.9227C43.9269 33.786 43.8668 33.6547 43.7996 33.5391C43.7519 33.4492 43.7043 33.3656 43.6511 33.2828C43.5074 33.0586 43.3613 32.8649 43.2144 32.7031C43.1582 32.6344 43.0964 32.5656 43.0254 32.4953C42.9808 32.4508 42.9394 32.4172 42.8957 32.375H48.4543V33.9516C48.4543 34.482 47.8707 34.9141 47.1527 34.9141L47.1535 34.9133Z" fill="white"/>
</svg>
