<svg width="24" height="25" viewBox="0 0 24 25" fill="none" xmlns="http://www.w3.org/2000/svg">
<path d="M10.9455 3.41679C11.0909 3.56224 11.3091 3.56224 11.4182 3.41679C11.5637 3.27134 11.5637 3.05315 11.4182 2.94406L11.2364 2.68952C11.0909 2.54406 10.8728 2.54406 10.7637 2.68952C10.6182 2.83497 10.6182 3.05315 10.7637 3.16224L10.9455 3.41679ZM10.1455 5.27134H10.4728C10.6546 5.27134 10.8 5.12588 10.8 4.94406C10.8 4.76224 10.6546 4.61679 10.4728 4.61679H10.1455C9.96367 4.61679 9.81822 4.76224 9.81822 4.94406C9.81822 5.12588 9.96367 5.27134 10.1455 5.27134ZM15.1637 4.94406C15.1637 5.12588 15.3091 5.27134 15.4909 5.27134H15.8182C16 5.27134 16.1455 5.12588 16.1455 4.94406C16.1455 4.76224 16 4.61679 15.8182 4.61679H15.4909C15.3091 4.58043 15.1637 4.72588 15.1637 4.94406ZM14.9819 3.41679L15.2 3.19861C15.3455 3.05315 15.3455 2.83497 15.2 2.72588C15.0546 2.61679 14.8364 2.58043 14.7273 2.72588L14.5091 2.94406C14.3637 3.08952 14.3637 3.3077 14.5091 3.41679C14.6546 3.52588 14.8728 3.52588 14.9819 3.41679ZM12.9819 2.76224C13.1637 2.76224 13.3091 2.61679 13.3091 2.43497V2.1077C13.3091 1.92588 13.1637 1.78043 12.9819 1.78043C12.8 1.78043 12.6546 1.92588 12.6546 2.1077V2.43497C12.6182 2.61679 12.8 2.76224 12.9819 2.76224ZM6.80004 10.6895C6.80004 11.4895 7.45458 12.1077 8.21822 12.1077C9.01822 12.1077 9.6364 11.4532 9.6364 10.6895C9.6364 9.92588 8.98185 9.27134 8.21822 9.27134C7.41822 9.27134 6.80004 9.88952 6.80004 10.6895ZM8.94549 10.6895C8.94549 11.0895 8.61822 11.4168 8.21822 11.4168C7.81822 11.4168 7.49094 11.0895 7.49094 10.6895C7.49094 10.2895 7.81822 9.96224 8.21822 9.96224C8.61822 9.96224 8.94549 10.2895 8.94549 10.6895ZM8.50913 18.435V21.0168C8.50913 21.1986 8.65458 21.3441 8.8364 21.3441H12.7637C12.9455 21.3441 13.0909 21.1986 13.0909 21.0168V18.435C13.0909 18.2532 12.9455 18.1077 12.7637 18.1077H8.8364C8.65458 18.1077 8.50913 18.2532 8.50913 18.435ZM11.1273 18.7986H12.4364V20.6895H11.1273V18.7986ZM9.20004 18.7986H10.4728V20.6895H9.20004V18.7986ZM6.72731 15.4532H9.70913C9.89094 15.4532 10.0364 15.3077 10.0364 15.1259C10.0364 14.9441 9.89094 14.7986 9.70913 14.7986H6.72731C6.54549 14.7986 6.40004 14.9441 6.40004 15.1259C6.40004 15.2713 6.54549 15.4532 6.72731 15.4532ZM6.72731 16.835H9.70913C9.89094 16.835 10.0364 16.6895 10.0364 16.5077C10.0364 16.3259 9.89094 16.1804 9.70913 16.1804H6.72731C6.54549 16.1804 6.40004 16.3259 6.40004 16.5077C6.40004 16.6532 6.54549 16.835 6.72731 16.835ZM5.09094 19.7441C4.90913 19.7441 4.76367 19.8895 4.76367 20.0713V20.435C4.76367 20.6168 4.90913 20.7622 5.09094 20.7622C5.27276 20.7622 5.41822 20.6168 5.41822 20.435V20.0713C5.41822 19.8895 5.27276 19.7441 5.09094 19.7441Z" fill="#181818"/>
<path d="M23.5637 16.944L21.8182 14.835H22.5818C22.7636 14.835 22.9091 14.6895 22.9091 14.5077C22.9091 14.3986 22.8727 14.2895 22.8 14.2531L21.3455 12.5077H21.6727C21.8546 12.5077 22 12.3622 22 12.1804C22 12.1077 21.9636 12.035 21.9273 11.9622L19.8546 7.52587C19.7818 7.41677 19.6727 7.34405 19.5273 7.34405C19.3818 7.34405 19.2727 7.41677 19.2 7.52587L17.1273 12.035C17.0909 12.144 17.0909 12.2531 17.1636 12.3622C17.2364 12.4713 17.3455 12.5077 17.4546 12.5077H17.8182C16.4364 14.2531 16.1091 14.3259 16.2546 14.6895C16.4 15.0168 16.7636 14.835 17.3455 14.8713L15.6 16.944C15.5273 17.0531 15.4909 17.1986 15.5636 17.3077C15.6364 17.4168 15.7455 17.4895 15.8909 17.4895H19.2727V22.544H14.7273V14.2895H15.1636C15.4909 14.2895 15.6364 13.8531 15.3455 13.6713L8.47274 6.79859C8.32728 6.65314 8.1091 6.65314 8.00001 6.79859L5.20001 9.59859V7.78041C5.20001 7.59859 5.05456 7.45314 4.87274 7.45314H2.47274C2.29092 7.45314 2.14547 7.59859 2.14547 7.78041V12.6531L1.09092 13.7077C0.872738 13.9259 1.01819 14.2895 1.34547 14.2895H1.74547V22.544H0.69092C0.509102 22.544 0.363647 22.6895 0.363647 22.8713C0.363647 23.0531 0.509102 23.1986 0.69092 23.1986H22.7273C22.9091 23.1986 23.0546 23.0531 23.0546 22.8713C23.0546 22.6895 22.9091 22.544 22.7273 22.544H19.8909V17.4895H23.2727C23.4182 17.4895 23.5273 17.4168 23.6 17.3077C23.6727 17.1986 23.6364 17.0531 23.5637 16.944ZM2.80001 8.14405H4.43637V10.3259L2.80001 11.9622V8.14405ZM6.80001 22.5804H4.25456V18.6531C4.25456 18.4713 4.40001 18.3622 4.54547 18.3622H6.47274C6.65456 18.3622 6.76365 18.5077 6.76365 18.6531V22.5804H6.80001ZM14.0364 22.5804H7.49092V18.6531C7.49092 18.1077 7.05456 17.6713 6.5091 17.6713H4.58183C4.03638 17.6713 3.60001 18.1077 3.60001 18.6531V22.5804H2.40001V14.2895H14.0364V22.5804ZM2.14547 13.635L8.21819 7.56223L14.2909 13.635H2.14547ZM16.6182 16.7986L18.3636 14.7259C18.4364 14.6168 18.4727 14.4713 18.4 14.3622C18.3273 14.2531 18.2182 14.1804 18.0727 14.1804H17.3091L18.8 12.3622C18.8727 12.2531 18.9091 12.1077 18.8364 11.9986C18.8 11.8531 18.6909 11.7804 18.5455 11.7804H18.0364L19.6 8.43496L21.1636 11.7804H20.6546C20.5091 11.7804 20.4 11.8531 20.3273 11.9622C20.2546 12.0713 20.2909 12.2168 20.3636 12.3259L21.8546 14.144H21.0909C20.9455 14.144 20.8364 14.2168 20.7636 14.3259C20.6909 14.435 20.7273 14.5804 20.8 14.6895L22.5455 16.7622H16.6182V16.7986ZM13.0909 6.76223C14.1455 6.76223 15.0182 5.8895 15.0182 4.83496C15.0546 3.78041 14.1818 2.90768 13.0909 2.90768C12.0364 2.90768 11.1636 3.78041 11.1636 4.83496C11.1636 5.8895 12.0364 6.76223 13.0909 6.76223ZM13.0909 3.59859C13.7818 3.59859 14.3273 4.14405 14.3273 4.83496C14.3273 5.52587 13.7818 6.07132 13.0909 6.07132C12.4 6.07132 11.8546 5.52587 11.8546 4.83496C11.8546 4.14405 12.4364 3.59859 13.0909 3.59859Z" fill="#181818"/>
<path d="M14.9818 6.47133C14.8364 6.32588 14.6182 6.32588 14.5091 6.47133C14.3637 6.61679 14.3637 6.83497 14.5091 6.94406L14.7273 7.16224C14.8728 7.3077 15.0909 7.3077 15.2 7.16224C15.3455 7.01679 15.3455 6.79861 15.2 6.68952L14.9818 6.47133ZM10.9455 6.47133L10.7273 6.68952C10.5818 6.83497 10.5818 7.05315 10.7273 7.16224C10.8728 7.3077 11.0909 7.3077 11.2 7.16224L11.4182 6.94406C11.5637 6.79861 11.5637 6.58042 11.4182 6.47133C11.3091 6.32588 11.0909 6.32588 10.9455 6.47133ZM12.6182 7.45315V7.78042C12.6182 7.96224 12.7637 8.1077 12.9455 8.1077C13.1273 8.1077 13.2728 7.96224 13.2728 7.78042V7.45315C13.2728 7.27133 13.1273 7.12588 12.9455 7.12588C12.8 7.08952 12.6182 7.27133 12.6182 7.45315ZM3.20003 6.28952C3.38185 6.28952 3.5273 6.14406 3.5273 5.96224V3.7077C3.5273 3.52588 3.38185 3.38042 3.20003 3.38042C3.01821 3.38042 2.87276 3.52588 2.87276 3.7077V5.96224C2.83639 6.14406 2.98185 6.28952 3.20003 6.28952ZM4.3273 5.01679C4.50912 5.01679 4.65457 4.87133 4.65457 4.68951V2.43497C4.65457 2.25315 4.50912 2.1077 4.3273 2.1077C4.14548 2.1077 4.00003 2.25315 4.00003 2.43497V4.68951C4.00003 4.87133 4.14548 5.01679 4.3273 5.01679Z" fill="#181818"/>
</svg>
