<svg width="50" height="50" viewBox="0 0 50 50" fill="none" xmlns="http://www.w3.org/2000/svg">
<path d="M17.1872 17.0625C14.2236 17.0625 11.9023 20.4942 11.9023 24.875C11.9023 29.2558 14.2236 32.6875 17.1872 32.6875C20.1509 32.6875 22.4721 29.2558 22.4721 24.875C22.4721 20.4942 20.1509 17.0625 17.1872 17.0625ZM17.1872 31.125C15.1696 31.125 13.4648 28.2628 13.4648 24.875C13.4648 21.4872 15.1696 18.625 17.1872 18.625C19.2048 18.625 20.9096 21.4872 20.9096 24.875C20.9096 28.2628 19.2048 31.125 17.1872 31.125Z" fill="white"/>
<path d="M43.7499 29.5625H41.1672C41.7929 28.9753 42.1598 28.1637 42.1874 27.3061C42.1874 26.1354 41.3085 24.875 39.379 24.875C37.1465 24.875 35.8619 26.4789 35.1561 27.9284C34.4504 26.4789 33.1658 24.875 30.9333 24.875C29.0038 24.875 28.1249 26.1354 28.1249 27.3061C28.1524 28.1637 28.5194 28.9753 29.1451 29.5625H28.1272L26.2893 13.0697C26.268 12.8786 26.1771 12.7021 26.0339 12.574C25.8906 12.4458 25.7052 12.375 25.513 12.375H22.6561V8.46875C22.6561 7.01835 22.08 5.62735 21.0544 4.60176C20.0288 3.57617 18.6378 3 17.1874 3C15.737 3 14.346 3.57617 13.3204 4.60176C12.2948 5.62735 11.7186 7.01835 11.7186 8.46875V12.375H8.86181C8.66961 12.375 8.48414 12.4458 8.34091 12.574C8.19769 12.7021 8.10675 12.8786 8.08552 13.0697L5.4736 36.5072C5.46137 36.6164 5.47234 36.7269 5.50577 36.8316C5.53921 36.9363 5.59437 37.0328 5.66764 37.1147C5.74091 37.1966 5.83065 37.2621 5.93098 37.307C6.03131 37.3519 6.13998 37.375 6.24989 37.375H26.5624V41.2812C26.5624 41.4884 26.6447 41.6872 26.7912 41.8337C26.9377 41.9802 27.1364 42.0625 27.3436 42.0625H42.9686C43.1758 42.0625 43.3745 41.9802 43.5211 41.8337C43.6676 41.6872 43.7499 41.4884 43.7499 41.2812V34.25C43.9571 34.25 44.1558 34.1677 44.3023 34.0212C44.4488 33.8747 44.5311 33.676 44.5311 33.4688V30.3438C44.5311 30.1365 44.4488 29.9378 44.3023 29.7913C44.1558 29.6448 43.9571 29.5625 43.7499 29.5625ZM42.9686 32.6875H37.4999V31.125H42.9686V32.6875ZM27.3436 31.125H32.8124V32.6875H27.3436V31.125ZM39.379 26.4375C39.7536 26.4375 40.6249 26.5222 40.6249 27.3061C40.6249 28.2163 39.4236 29.5625 36.8453 29.5625H36.1781C36.5802 28.3685 37.5175 26.4375 39.379 26.4375ZM29.6874 27.3061C29.6874 26.5222 30.5587 26.4375 30.9333 26.4375C32.7948 26.4375 33.7321 28.3685 34.1342 29.5625H33.467C30.8886 29.5625 29.6874 28.2163 29.6874 27.3061ZM13.2811 8.46875C13.2811 7.43275 13.6927 6.43918 14.4253 5.70661C15.1578 4.97405 16.1514 4.5625 17.1874 4.5625C18.2234 4.5625 19.217 4.97405 19.9495 5.70661C20.6821 6.43918 21.0936 7.43275 21.0936 8.46875V12.375H13.2811V8.46875ZM7.12307 35.8125L9.56066 13.9375H24.8141L26.5555 29.5639C26.3496 29.5655 26.1528 29.6484 26.0078 29.7944C25.8627 29.9405 25.7813 30.1379 25.7811 30.3438V33.4688C25.7811 33.676 25.8634 33.8747 26.01 34.0212C26.1565 34.1677 26.3552 34.25 26.5624 34.25V35.8125H7.12307ZM28.1249 34.25H32.8124V40.5H28.1249V34.25ZM34.3749 31.125H35.9374V40.5H34.3749V31.125ZM42.1874 40.5H37.4999V34.25H42.1874V40.5Z" fill="white"/>
</svg>
