<svg width="50" height="50" viewBox="0 0 50 50" fill="none" xmlns="http://www.w3.org/2000/svg">
<path d="M24.92 32.53C23.7911 32.5321 22.6966 32.9184 21.8164 33.6254C20.9363 34.3324 20.3231 35.3179 20.0778 36.4199C19.8324 37.5218 19.9695 38.6744 20.4665 39.688C20.9635 40.7017 21.7908 41.5159 22.8122 41.9967C23.8336 42.4775 24.9883 42.5963 26.0862 42.3334C27.1841 42.0706 28.1597 41.4418 28.8527 40.5506C29.5456 39.6593 29.9144 38.5587 29.8985 37.4299C29.8826 36.3011 29.4828 35.2114 28.765 34.34C28.2964 33.7744 27.709 33.319 27.0444 33.0062C26.3799 32.6934 25.6546 32.5308 24.92 32.53ZM24.92 40.99C23.9918 40.99 23.1016 40.6213 22.4452 39.9649C21.7888 39.3085 21.42 38.4183 21.42 37.49C21.4172 36.6828 21.6986 35.9004 22.215 35.28C22.5894 34.8238 23.073 34.4696 23.621 34.2504C24.1689 34.0312 24.7634 33.9541 25.3492 34.0263C25.9349 34.0986 26.4929 34.3177 26.9712 34.6634C27.4495 35.0092 27.8326 35.4702 28.0849 36.0037C28.3372 36.5373 28.4505 37.1259 28.4143 37.715C28.378 38.3041 28.1934 38.8744 27.8776 39.373C27.5618 39.8715 27.125 40.2821 26.6079 40.5666C26.0909 40.8511 25.5102 41.0002 24.92 41V40.99Z" fill="white"/>
<path d="M33.6556 27.0751C31.1295 25.2018 28.068 24.1904 24.9231 24.1904C21.7782 24.1904 18.7166 25.2018 16.1906 27.0751C15.7537 27.3954 15.3972 27.8128 15.149 28.2943C14.9009 28.7758 14.7679 29.3084 14.7606 29.8501C14.749 30.382 14.8609 30.9093 15.0873 31.3908C15.3137 31.8722 15.6485 32.2947 16.0656 32.6251L16.2006 32.7301C16.802 33.1947 17.5406 33.4468 18.3006 33.4468C19.0606 33.4468 19.7991 33.1947 20.4006 32.7301C21.708 31.758 23.2939 31.2331 24.9231 31.2331C26.5523 31.2331 28.1381 31.758 29.4456 32.7301C30.0547 33.186 30.7947 33.4333 31.5556 33.4351C32.3141 33.4362 33.0507 33.1807 33.6456 32.7101L33.7806 32.6001C34.1969 32.2702 34.5314 31.8486 34.7577 31.368C34.9841 30.8875 35.0963 30.3611 35.0856 29.8301C35.0752 29.2918 34.9407 28.7632 34.6927 28.2854C34.4447 27.8075 34.0898 27.3934 33.6556 27.0751ZM32.8456 31.4501L32.7106 31.5551C32.3729 31.8211 31.9555 31.9657 31.5256 31.9657C31.0957 31.9657 30.6783 31.8211 30.3406 31.5551C28.7747 30.3899 26.8749 29.7606 24.9231 29.7606C22.9713 29.7606 21.0714 30.3899 19.5056 31.5551C19.1679 31.8211 18.7505 31.9657 18.3206 31.9657C17.8907 31.9657 17.4733 31.8211 17.1356 31.5551L17.0006 31.4501C16.7646 31.262 16.5751 31.0221 16.4467 30.749C16.3184 30.4758 16.2547 30.1768 16.2606 29.8751C16.2642 29.5633 16.3408 29.2567 16.484 28.9798C16.6272 28.7028 16.8333 28.4632 17.0856 28.2801C19.3526 26.5984 22.1004 25.6905 24.9231 25.6905C27.7457 25.6905 30.4936 26.5984 32.7606 28.2801C33.0129 28.4632 33.2189 28.7028 33.3621 28.9798C33.5054 29.2567 33.5819 29.5633 33.5856 29.8751C33.5915 30.1768 33.5278 30.4758 33.3994 30.749C33.2711 31.0221 33.0816 31.262 32.8456 31.4501Z" fill="white"/>
<path d="M24.9201 15.8501C19.0826 15.8393 13.4639 18.0714 9.22514 22.0851C8.86666 22.4275 8.585 22.8422 8.39882 23.3016C8.21263 23.761 8.12617 24.2548 8.14514 24.7501C8.16973 25.2578 8.3035 25.7542 8.53734 26.2055C8.77117 26.6567 9.09957 27.0523 9.50014 27.3651C10.1226 27.8645 10.8971 28.1362 11.6951 28.1351C12.5746 28.1376 13.4221 27.8051 14.0651 27.2051C17.0161 24.4459 20.9052 22.9109 24.9451 22.9109C28.9851 22.9109 32.8742 24.4459 35.8251 27.2051C36.3178 27.6592 36.9305 27.9623 37.5903 28.0785C38.2502 28.1947 38.9295 28.119 39.5476 27.8605C40.1657 27.602 40.6967 27.1715 41.0773 26.6201C41.458 26.0688 41.6724 25.4198 41.6951 24.7501C41.717 24.2549 41.6324 23.7607 41.4469 23.3009C41.2615 22.8412 40.9795 22.4266 40.6201 22.0851C36.379 18.0719 30.7591 15.84 24.9201 15.8501ZM39.4201 26.1951C39.0475 26.4947 38.5798 26.6508 38.1019 26.6352C37.624 26.6197 37.1675 26.4334 36.8151 26.1101C33.5855 23.0904 29.3291 21.4105 24.9076 21.4105C20.4862 21.4105 16.2298 23.0904 13.0001 26.1101C12.6478 26.4334 12.1913 26.6197 11.7134 26.6352C11.2355 26.6508 10.7678 26.4947 10.3951 26.1951C10.1682 26.014 9.98259 25.7864 9.85066 25.5277C9.71874 25.2691 9.64355 24.9852 9.63014 24.6951C9.61744 24.4159 9.66539 24.1372 9.77069 23.8783C9.876 23.6193 10.0362 23.3863 10.2401 23.1951C14.2076 19.4541 19.4546 17.3705 24.9076 17.3705C30.3607 17.3705 35.6077 19.4541 39.5751 23.1951C39.7783 23.3869 39.938 23.62 40.0432 23.8788C40.1484 24.1376 40.1969 24.416 40.1851 24.6951C40.1736 24.984 40.1007 25.2672 39.9714 25.5258C39.8421 25.7844 39.6593 26.0125 39.4351 26.1951H39.4201Z" fill="white"/>
<path d="M47.2305 16.8951C44.324 13.924 40.8534 11.5634 37.0223 9.95179C33.1912 8.34018 29.0768 7.51001 24.9205 7.51001C20.7642 7.51001 16.6498 8.34018 12.8187 9.95179C8.98755 11.5634 5.51693 13.924 2.61047 16.8951C2.26443 17.2524 1.99676 17.6779 1.82457 18.1446C1.65238 18.6112 1.57946 19.1086 1.61047 19.6051C1.64122 20.0971 1.77454 20.5772 2.00187 21.0147C2.2292 21.4521 2.5455 21.8371 2.93047 22.1451C3.55228 22.6416 4.32473 22.9114 5.12047 22.9101C5.59575 22.9102 6.06624 22.8151 6.5042 22.6305C6.94216 22.4459 7.33871 22.1754 7.67047 21.8351C9.91979 19.5369 12.6053 17.7111 15.5696 16.4645C18.5339 15.218 21.7173 14.5759 24.933 14.5759C28.1487 14.5759 31.332 15.218 34.2963 16.4645C37.2606 17.7111 39.9462 19.5369 42.1955 21.8351C42.8059 22.4662 43.6294 22.8475 44.5056 22.9049C45.3818 22.9622 46.248 22.6913 46.9355 22.1451C47.3223 21.8351 47.6398 21.4472 47.8672 21.0067C48.0947 20.5662 48.2271 20.0828 48.2558 19.5879C48.2846 19.093 48.2091 18.5975 48.0341 18.1337C47.8592 17.6698 47.5888 17.2478 47.2405 16.8951H47.2305ZM46.0005 20.9701C45.603 21.2844 45.1028 21.4396 44.5973 21.4054C44.0917 21.3712 43.617 21.1501 43.2655 20.7851C40.8769 18.3442 38.0249 16.4049 34.8769 15.081C31.7288 13.757 28.3481 13.075 24.933 13.075C21.5178 13.075 18.1371 13.757 14.9891 15.081C11.841 16.4049 8.98905 18.3442 6.60047 20.7851C6.2484 21.1491 5.77381 21.3695 5.26856 21.4037C4.76331 21.4378 4.26335 21.2833 3.86547 20.9701C3.64031 20.7939 3.45552 20.5716 3.32356 20.318C3.19159 20.0645 3.11552 19.7855 3.10047 19.5001C3.08192 19.2119 3.12444 18.9231 3.22526 18.6526C3.32607 18.382 3.4829 18.1358 3.68547 17.9301C6.45188 15.1013 9.75556 12.8536 13.4025 11.3191C17.0495 9.78463 20.9663 8.99417 24.923 8.99417C28.8796 8.99417 32.7964 9.78463 36.4434 11.3191C40.0904 12.8536 43.3941 15.1013 46.1605 17.9301C46.3623 18.1364 46.5186 18.3827 46.6194 18.6531C46.7201 18.9235 46.7631 19.212 46.7455 19.5001C46.7328 19.784 46.6599 20.0619 46.5314 20.3154C46.403 20.5688 46.222 20.792 46.0005 20.9701Z" fill="white"/>
</svg>
