<svg width="46" height="46" viewBox="0 0 46 46" fill="none" xmlns="http://www.w3.org/2000/svg">
<g clip-path="url(#clip0_147_1532)">
<path d="M1.26953 22.6328C1.26953 10.5918 11.0342 0.827148 23.0752 0.827148C35.1162 0.827148 44.8809 10.5918 44.8809 22.6328C44.8809 34.6738 35.1162 44.4385 23.0752 44.4385C11.0342 44.4385 1.26953 34.6738 1.26953 22.6328Z" fill="#D42428"/>
<path d="M38.4912 7.2168C47.0078 15.7334 47.0078 29.541 38.4912 38.0488C29.9746 46.5654 16.167 46.5654 7.65918 38.0488L38.4912 7.2168Z" fill="#CC202D"/>
<path d="M44.5469 26.4033L29.8779 11.7344L28.6914 12.9209L27.5049 11.7344L26.2041 13.0352L27.0742 13.9053L26.793 14.1865L24.5342 11.9277L24.4375 12.0244L21.3965 8.9834L20.0957 10.2842L20.4473 10.6357L19.9287 11.1543L17.7314 8.95703L16.8174 9.87109L18.9531 15.0215L17.9863 18.9766L20.623 21.6133L13.9609 22.0791L13.8643 33.6455L24.5869 44.377C34.6416 43.665 42.8506 36.1504 44.5469 26.4033Z" fill="#BA202E"/>
<path d="M30.8711 27.6865H29.4648L29.4736 26.8691C29.4736 26.5088 29.7725 26.21 30.1328 26.21H30.2207C30.5811 26.21 30.8887 26.5088 30.8887 26.8691L30.8711 27.6865ZM25.5977 25.9375C25.2461 25.9375 24.9473 26.1748 24.9473 26.4736V30.4463C24.9473 30.7363 25.2373 30.9824 25.5977 30.9824C25.958 30.9824 26.248 30.7451 26.248 30.4463V26.4736C26.248 26.1748 25.958 25.9375 25.5977 25.9375ZM34.167 23.7139V31.2725C34.167 33.083 32.5938 34.5684 30.6777 34.5684H16.3076C14.3828 34.5684 12.8184 33.083 12.8184 31.2725V23.7139C12.8184 21.9033 14.3916 20.418 16.3076 20.418H30.6689C32.5938 20.4268 34.167 21.9033 34.167 23.7139ZM17.2656 32.0898V24.1357H19.0498V22.958L14.3037 22.9492V24.1094L15.7891 24.1182V32.0986H17.2656V32.0898ZM22.6094 25.3223H21.124V29.5674C21.124 30.1826 21.1592 30.4902 21.124 30.5957C21.001 30.9209 20.4561 31.2725 20.2451 30.6309C20.21 30.5166 20.2451 30.1738 20.2363 29.5938L20.2275 25.3135H18.751L18.7598 29.5234C18.7598 30.165 18.7422 30.6484 18.7686 30.8682C18.8037 31.2549 18.7949 31.7031 19.1465 31.958C19.8145 32.4414 21.0977 31.8877 21.4141 31.2021V32.0811H22.6094V25.3223ZM27.3555 30.1826V26.6494C27.3555 25.3047 26.3447 24.4961 24.9736 25.5859L24.9824 22.958H23.4971L23.4883 32.0371L24.71 32.0195L24.8242 31.457C26.3799 32.8809 27.3555 31.8965 27.3555 30.1826ZM31.9961 29.7168L30.8799 29.7256V30.499C30.8799 30.833 30.6074 31.1055 30.2734 31.1055H30.0537C29.7197 31.1055 29.4473 30.833 29.4473 30.499V28.8643H31.9961V27.9062C31.9961 27.2031 31.9785 26.5088 31.917 26.1045C31.7324 24.8389 29.957 24.6367 29.0605 25.2871C28.7793 25.4893 28.5596 25.7617 28.4365 26.1221C28.3135 26.4824 28.252 26.9834 28.252 27.6162V29.7256C28.252 33.2324 32.5059 32.7314 31.9961 29.7168ZM26.292 18.2646C26.3711 18.4492 26.4854 18.5986 26.6523 18.7129C26.8105 18.8271 27.0127 18.8799 27.2588 18.8799C27.4697 18.8799 27.6631 18.8184 27.8301 18.7041C27.9971 18.5811 28.1377 18.4053 28.2432 18.168L28.2168 18.748H29.8691V11.7168H28.5684V17.1924C28.5684 17.4912 28.3223 17.7285 28.0234 17.7285C27.7246 17.7285 27.4785 17.4824 27.4785 17.1924V11.7168H26.1162V16.4629C26.1162 17.0693 26.125 17.4736 26.1426 17.6758C26.1689 17.8867 26.2129 18.0801 26.292 18.2646ZM21.2734 14.292C21.2734 13.6152 21.3262 13.0879 21.4404 12.71C21.5547 12.332 21.7568 12.0244 22.0469 11.7959C22.3369 11.5674 22.7148 11.4531 23.1719 11.4531C23.5586 11.4531 23.8838 11.5322 24.1562 11.6729C24.4287 11.8223 24.6396 12.0156 24.7891 12.2529C24.9385 12.4902 25.0439 12.7363 25.0967 12.9824C25.1494 13.2373 25.1758 13.6152 25.1758 14.1338V15.918C25.1758 16.5684 25.1494 17.0518 25.0967 17.3594C25.0439 17.667 24.9385 17.9482 24.7715 18.2119C24.6045 18.4756 24.3936 18.6689 24.1299 18.8008C23.8662 18.9238 23.5674 18.9854 23.2334 18.9854C22.8555 18.9854 22.5391 18.9326 22.2754 18.8271C22.0117 18.7217 21.8096 18.5547 21.6689 18.3437C21.5195 18.124 21.4229 17.8604 21.3613 17.5527C21.2998 17.2451 21.2734 16.7793 21.2734 16.1641V14.292ZM22.5742 17.0869C22.5742 17.4824 22.873 17.8076 23.2334 17.8076C23.5937 17.8076 23.8926 17.4824 23.8926 17.0869V13.3428C23.8926 12.9473 23.5937 12.6221 23.2334 12.6221C22.873 12.6221 22.5742 12.9473 22.5742 13.3428V17.0869ZM17.9951 18.9854H19.5596V13.5889L21.4053 8.96582H19.7002L18.7158 12.4023L17.7227 8.95703H16.0352L17.9951 13.5889V18.9854Z" fill="white"/>
</g>
<defs>
<clipPath id="clip0_147_1532">
<rect width="45" height="45" fill="white" transform="translate(0.575195 0.132812)"/>
</clipPath>
</defs>
</svg>
